<svg width="110" height="110" viewBox="0 0 110 110" fill="none" xmlns="http://www.w3.org/2000/svg">
<g clip-path="url(#clip0_487_6)">
<path d="M99.5928 82.1014C87.698 68.4009 89.5271 63.1695 108.231 59.0677C90.0608 52.6529 88.7648 47.3719 102.687 35.6709C83.3174 37.8326 79.1628 33.5814 83.8979 16.9122C68.2636 27.19 62.206 25.4569 56.999 8.8817C50.114 24.705 44.0781 25.6949 30.3492 13.4037C33.2683 30.1823 28.4953 33.6856 9.55286 29.3056C21.4476 43.0061 19.6186 48.2375 0.914596 52.3393C19.0848 58.7541 20.3809 64.0351 6.45829 75.7361C25.8283 73.5744 29.9829 77.8256 25.2477 94.4948C40.8821 84.217 46.9397 85.9501 52.1467 102.525C59.0317 86.702 65.0676 85.7121 78.7964 98.0033C75.8774 81.2247 80.6504 77.7214 99.5928 82.1014Z" fill="#EF5A23"/>
<path d="M66.7813 40.4304C72.2657 40.4304 75.7417 44.0811 75.7417 50.7526V76H83V50.5115C83 40.4304 77.2849 34 67.5529 34C62.7644 34 57.28 36.0644 54.5 41.7017C51.72 36.0644 46.2356 34 41.4471 34C31.7151 34 26 40.4304 26 50.5115V75.9961H33.2583V50.7526C33.2583 44.085 36.7343 40.4304 42.2187 40.4304C47.7031 40.4304 50.8689 44.0811 50.8689 50.7526V76H58.1273V50.7526C58.1273 44.085 61.2931 40.4304 66.7775 40.4304H66.7813Z" fill="#FFFCD9"/>
</g>
<defs>
<clipPath id="clip0_487_6">
<rect width="110" height="110" fill="white"/>
</clipPath>
</defs>
</svg>
