<svg width="100" height="100" viewBox="0 0 100 100" fill="none" xmlns="http://www.w3.org/2000/svg">
<g clip-path="url(#clip0_510_159)">
<path d="M79.5234 28.0469C81.4505 40.8854 82.8828 49.401 83.8203 53.5938C84.7578 57.7604 85.6823 61.7318 86.5938 65.5078C87.5052 69.2839 88.2344 72.4219 88.7812 74.9219C86.9323 75.5208 84.7057 75.8203 82.1016 75.8203C79.5234 75.8203 77.7005 75.5208 76.6328 74.9219C74.6016 71.0677 72.1797 58.9583 69.3672 38.5938C68.8984 35.2083 68.625 33.2682 68.5469 32.7734C63.7292 44.1797 60.474 54.375 58.7812 63.3594C58.1562 66.6406 57.8438 68.9453 57.8438 70.2734C57.8438 71.6016 57.8438 72.3828 57.8438 72.6172C56.2292 73.763 54.1068 74.3359 51.4766 74.3359C48.5859 74.3359 46.8151 73.763 46.1641 72.6172C45.7734 71.4974 44.8359 68.6198 43.3516 63.9844C39.3672 51.4844 35.8255 40.9375 32.7266 32.3438L32.5703 34.6094C32.1797 42.9688 31.6719 48.8672 31.0469 52.3047C30.4219 55.7422 29.849 58.5677 29.3281 60.7812C28.8073 62.9688 28.1823 64.9219 27.4531 66.6406C26.75 68.3333 25.9427 69.8958 25.0312 71.3281C22.9479 74.6615 20.3568 76.3281 17.2578 76.3281C14.6797 76.3281 12.6224 75.3906 11.0859 73.5156C10.3568 72.6302 9.99219 71.6797 9.99219 70.6641C12.2057 69.1797 14.237 67.1484 16.0859 64.5703C17.9349 61.9922 19.4453 59.2839 20.6172 56.4453C21.7891 53.6068 22.8047 50.5729 23.6641 47.3438C25.4609 40.625 26.3594 34.8047 26.3594 29.8828C26.3594 28.2682 26.2422 27.2266 26.0078 26.7578C25.7734 26.263 25.6042 25.8984 25.5 25.6641C25.3958 25.4036 25.1875 25.1693 24.875 24.9609C24.5625 24.7526 24.3542 24.6224 24.25 24.5703C24.1719 24.5182 23.9375 24.4271 23.5469 24.2969C23.1562 24.1406 22.9349 24.0495 22.8828 24.0234C22.4661 23.5026 22.2578 22.6432 22.2578 21.4453C22.2578 20.2214 22.3099 19.401 22.4141 18.9844C23.7161 18.724 25.4609 18.5938 27.6484 18.5938C29.862 18.5938 32.7526 18.724 36.3203 18.9844C37.5703 19.2448 41.5677 28.0339 48.3125 45.3516C50.8646 51.9141 52.4661 55.8203 53.1172 57.0703C54.5234 52.2786 59.0286 39.6094 66.6328 19.0625C69.237 18.8802 70.9427 18.7891 71.75 18.7891C72.5833 18.7891 73.4948 18.9583 74.4844 19.2969C75.5 19.6094 76.5026 20.5599 77.4922 22.1484C78.4818 23.737 79.1589 25.7031 79.5234 28.0469Z" fill="black"/>
</g>
<defs>
<clipPath id="clip0_510_159">
<rect width="100" height="100" fill="white"/>
</clipPath>
</defs>
</svg>
