<svg width="324" height="64" viewBox="0 0 324 64" fill="none" xmlns="http://www.w3.org/2000/svg">
<g clip-path="url(#clip0_360_15269)">
<path d="M9.42353 43.0235V45.6924C9.42353 48.417 10.2853 50.6412 11.9949 52.3649C13.7044 54.0886 15.9005 54.9366 18.5691 54.9366C21.2377 54.9366 23.4337 54.0747 25.1433 52.3649C26.8529 50.6551 27.7146 48.417 27.7146 45.6924C27.7146 42.9679 26.8529 40.8271 25.1433 39.1173C23.4337 37.4075 21.2377 36.5456 18.5691 36.5456H10.9246V27.4822H18.5691C21.2377 27.4822 23.4337 26.6203 25.1433 24.8966C26.8668 23.1729 27.7146 20.9626 27.7146 18.2381C27.7146 15.5135 26.8529 13.3727 25.1433 11.6629C23.4337 9.95308 21.2377 9.07732 18.5691 9.07732C15.9005 9.07732 13.7044 9.93918 11.9949 11.6629C10.2853 13.3866 9.42353 15.5691 9.42353 18.2381V20.9904H0V18.2381C0 12.9001 1.73738 8.53519 5.19823 5.12945C8.65909 1.72372 13.1207 0 18.583 0C24.0453 0 28.4235 1.69592 31.9121 5.07385C35.4147 8.45178 37.1521 12.6638 37.1521 17.6959C37.1521 24.0348 34.6919 28.8028 29.7717 32.0139C34.6919 35.3362 37.1521 40.1043 37.1521 46.318C37.1521 51.3501 35.4008 55.5621 31.9121 58.9401C28.4096 62.318 23.9758 64.0139 18.583 64.0139C13.1902 64.0139 8.67299 62.2902 5.21213 58.8566C1.75128 55.4231 0.013899 51.0304 0.013899 45.7063V43.0374H9.43743L9.42353 43.0235Z" fill="#4400FF"/>
<path d="M43.7819 61.6507C42.5032 60.3718 41.8638 58.7593 41.8638 56.8132C41.8638 54.8671 42.5032 53.2407 43.7819 51.9618C45.0606 50.6829 46.6729 50.0573 48.6327 50.0573C50.5924 50.0573 52.2047 50.6968 53.4834 51.9618C54.7621 53.2407 55.3876 54.8532 55.3876 56.8132C55.3876 58.7732 54.7482 60.3857 53.4834 61.6507C52.2047 62.9296 50.5924 63.5691 48.6327 63.5691C46.6729 63.5691 45.0606 62.9296 43.7819 61.6507Z" fill="#4400FF"/>
<path d="M87.2858 43.5517V45.6924C87.2858 48.417 88.1476 50.6412 89.8572 52.3649C91.5667 54.0886 93.7628 54.9366 96.4314 54.9366C99.1 54.9366 101.296 54.0747 103.006 52.3649C104.729 50.6412 105.577 48.417 105.577 45.6924C105.577 42.9679 104.715 40.8271 103.006 39.1173C101.282 37.3936 99.1 36.5456 96.4314 36.5456H79.9889V0.88966H111.637V9.95308H89.4124V27.4683H96.4314C101.824 27.4683 106.272 29.192 109.761 32.6255C113.249 36.0591 115 40.424 115 45.6924C115 50.9609 113.249 55.4092 109.761 58.8427C106.272 62.2763 101.824 64 96.4314 64C91.0386 64 86.5214 62.2763 83.0605 58.8427C79.5997 55.4092 77.8623 51.0165 77.8623 45.6924V43.5517H87.2858Z" fill="#4400FF"/>
<path d="M121.325 61.6507C120.046 60.3718 119.406 58.7593 119.406 56.8132C119.406 54.8671 120.046 53.2407 121.325 51.9618C122.603 50.6829 124.216 50.0573 126.175 50.0573C128.135 50.0573 129.747 50.6968 131.026 51.9618C132.305 53.2407 132.93 54.8532 132.93 56.8132C132.93 58.7732 132.291 60.3857 131.026 61.6507C129.747 62.9296 128.135 63.5691 126.175 63.5691C124.216 63.5691 122.603 62.9296 121.325 61.6507Z" fill="#4400FF"/>
<path d="M155.405 56.98C155.405 53.8384 156.086 50.8775 157.448 48.0973C158.81 45.3171 160.534 42.9679 162.605 41.0773C164.676 39.1868 166.899 37.2685 169.276 35.3501C171.653 33.4179 173.863 31.6803 175.948 30.1095C178.019 28.5387 179.742 26.7176 181.104 24.6464C182.466 22.5752 183.147 20.4344 183.147 18.252C183.147 15.583 182.286 13.3866 180.576 11.6768C178.853 9.95308 176.67 9.09122 174.002 9.09122C171.333 9.09122 169.137 9.95308 167.428 11.6768C165.718 13.4005 164.856 15.583 164.856 18.252V21.0043H155.433V18.252C155.433 12.914 157.17 8.54909 160.631 5.14335C164.092 1.73762 168.553 0.0278015 174.002 0.0278015C179.45 0.0278015 183.842 1.75152 187.331 5.18506C190.82 8.61859 192.571 12.9835 192.571 18.252C192.571 21.2685 191.904 24.1043 190.569 26.7454C189.235 29.3866 187.595 31.5969 185.635 33.3623C183.676 35.1416 181.535 36.9209 179.186 38.7003C176.851 40.4796 174.697 42.0643 172.737 43.4544C170.777 44.8445 169.137 46.4709 167.803 48.3475C166.469 50.2103 165.801 52.1286 165.801 54.0747H192.557V63.1381H155.405V57.0078V56.98Z" fill="#4400FF"/>
<path d="M203.662 58.8428C200.201 55.4092 198.464 51.0165 198.464 45.6924V18.2242C198.464 12.8862 200.201 8.52129 203.662 5.11555C207.123 1.70982 211.585 0 217.033 0C222.482 0 226.86 1.72372 230.321 5.15725C233.781 8.59079 235.519 12.9557 235.519 18.2242V45.6924C235.519 51.0304 233.781 55.4092 230.321 58.8428C226.86 62.2763 222.426 64 217.033 64C211.64 64 207.123 62.2763 203.662 58.8428ZM223.566 52.351C225.261 50.6273 226.095 48.4031 226.095 45.6785V18.2242C226.095 15.5552 225.247 13.3588 223.566 11.649C221.884 9.92528 219.702 9.06342 217.033 9.06342C214.365 9.06342 212.168 9.92528 210.459 11.649C208.749 13.3727 207.888 15.5552 207.888 18.2242V45.6924C207.888 48.417 208.749 50.6412 210.459 52.3649C212.168 54.0886 214.365 54.9366 217.033 54.9366C219.702 54.9366 221.884 54.0747 223.566 52.3649V52.351Z" fill="#4400FF"/>
<path d="M241.412 56.98C241.412 53.8384 242.093 50.8775 243.455 48.0973C244.817 45.3171 246.541 42.9679 248.612 41.0773C250.683 39.1868 252.907 37.2685 255.283 35.3501C257.66 33.4179 259.87 31.6803 261.955 30.1095C264.026 28.5387 265.749 26.7176 267.111 24.6464C268.473 22.5752 269.154 20.4344 269.154 18.252C269.154 15.583 268.293 13.3866 266.583 11.6768C264.86 9.95308 262.678 9.09122 260.009 9.09122C257.34 9.09122 255.144 9.95308 253.435 11.6768C251.725 13.4005 250.863 15.583 250.863 18.252V21.0043H241.44V18.252C241.44 12.914 243.177 8.54909 246.638 5.14335C250.099 1.73762 254.561 0.0278015 260.009 0.0278015C265.457 0.0278015 269.849 1.75152 273.338 5.18506C276.827 8.61859 278.578 12.9835 278.578 18.252C278.578 21.2685 277.911 24.1043 276.577 26.7454C275.242 29.3866 273.602 31.5969 271.642 33.3623C269.683 35.1416 267.542 36.9209 265.193 38.7003C262.858 40.4796 260.704 42.0643 258.744 43.4544C256.784 44.8445 255.144 46.4709 253.81 48.3475C252.476 50.2103 251.809 52.1286 251.809 54.0747H278.564V63.1381H241.412V57.0078V56.98Z" fill="#4400FF"/>
<path d="M281.775 41.4248L303.735 0.88966H316.8V41.4248H324V50.4883H316.8V63.1103H307.377V50.4883H281.775V41.4248ZM307.377 41.4248V11.2042L291.018 41.4248H307.377Z" fill="#4400FF"/>
</g>
<defs>
<clipPath id="clip0_360_15269">
<rect width="324" height="64" fill="white"/>
</clipPath>
</defs>
</svg>
