<?xml version="1.0" encoding="UTF-8"?>
<svg id="Vrstva_1" data-name="Vrstva 1" xmlns="http://www.w3.org/2000/svg" viewBox="0 0 1080 1080.5">
  <defs>
    <style>
      .cls-1, .cls-2, .cls-3, .cls-4, .cls-5, .cls-6, .cls-7, .cls-8, .cls-9, .cls-10, .cls-11, .cls-12, .cls-13 {
        stroke-width: 0px;
      }

      .cls-1, .cls-7 {
        fill: #ef5a23;
      }

      .cls-2, .cls-3 {
        fill: #ea92f4;
      }

      .cls-14 {
        stroke: #9f19dd;
      }

      .cls-14, .cls-15, .cls-16, .cls-17, .cls-18, .cls-19, .cls-20, .cls-21, .cls-22 {
        fill: none;
      }

      .cls-14, .cls-15, .cls-16, .cls-17, .cls-18, .cls-21, .cls-22 {
        stroke-width: 5px;
      }

      .cls-14, .cls-15, .cls-16, .cls-17, .cls-19, .cls-20, .cls-21, .cls-22 {
        stroke-miterlimit: 10;
      }

      .cls-14, .cls-15, .cls-17, .cls-18, .cls-21, .cls-22 {
        stroke-linecap: round;
      }

      .cls-3, .cls-7, .cls-10 {
        fill-rule: evenodd;
      }

      .cls-15 {
        stroke: #5bed06;
      }

      .cls-16 {
        stroke: #ed2424;
      }

      .cls-4, .cls-10 {
        fill: #9f19dd;
      }

      .cls-5 {
        fill: #88bc93;
      }

      .cls-17 {
        stroke: #ef5a23;
      }

      .cls-18 {
        stroke-linejoin: round;
      }

      .cls-18, .cls-21 {
        stroke: #40f;
      }

      .cls-19 {
        stroke: #e2e2e2;
        stroke-width: 33px;
      }

      .cls-6 {
        fill: #40f;
      }

      .cls-20 {
        stroke: #fffcdd;
        stroke-width: 9px;
      }

      .cls-8 {
        fill: #fff;
      }

      .cls-9 {
        fill: #5bed06;
      }

      .cls-11 {
        fill: #e2e2e2;
      }

      .cls-22 {
        stroke: #ea92f4;
      }

      .cls-12 {
        fill: #fffcd9;
      }

      .cls-13 {
        fill: #ed2424;
      }
    </style>
  </defs>
  <rect class="cls-12" y=".5" width="1080" height="1080"/>
  <path class="cls-5" d="m1080,461.3v431l-111-28.8-205.73-12.39-174-10.49-118.27-7.12-407,29L0,846.73v-495.36l283.44-101.78,459.2,14.28,285.45,130.81s.04.02.07.05l51.84,66.57Z"/>
  <path class="cls-11" d="m1080,375.07v116.63c-184.13-156.5-409.69-228.98-672.82-215.76C216.8,285.51,61.88,339.05,0,363.5v-98.33c19.12-6.87,41.89-14.52,67.85-22.34,76.34-22.98,196.37-51.82,334.72-58.77,156.54-7.86,304.09,13.3,438.55,62.91,85.12,31.4,164.93,74.23,238.88,128.1Z"/>
  <path class="cls-8" d="m1043.34,401.6l-3.46,4.9c8.08,5.7,16.2,11.63,24.15,17.62l3.61-4.79c-8-6.03-16.17-11.99-24.3-17.73Zm-50.21-33.15l-3.14,5.11c8.42,5.19,16.9,10.6,25.2,16.08l3.31-5.01c-8.35-5.52-16.89-10.96-25.37-16.18Zm-52.22-29.88l-2.81,5.3c8.76,4.65,17.57,9.5,26.18,14.43l2.98-5.21c-8.66-4.96-17.53-9.84-26.35-14.52Zm-54.03-26.46l-2.47,5.47c9.05,4.08,18.16,8.36,27.06,12.71l2.64-5.38c-8.96-4.39-18.12-8.7-27.23-12.8Zm-852.3-13.48c-9.61,3.27-19.16,6.65-28.37,10.04l2.07,5.63c9.16-3.37,18.66-6.73,28.24-9.99l-1.94-5.68Zm796.67-9.46l-2.11,5.62c9.31,3.49,18.67,7.18,27.82,10.95l2.29-5.54c-9.22-3.8-18.63-7.51-28-11.03Zm-739.28-8.64c-9.63,2.81-19.32,5.74-28.79,8.73l1.8,5.72c9.44-2.97,19.08-5.9,28.67-8.69l-1.68-5.76Zm682.31-10.71l-1.75,5.74c9.51,2.9,19.09,5.99,28.45,9.17l1.93-5.68c-9.42-3.2-19.06-6.31-28.63-9.23Zm-624.2-4.89c-9.7,2.39-19.5,4.91-29.13,7.49l1.55,5.8c9.6-2.58,19.36-5.09,29.01-7.46l-1.43-5.83Zm566.13-10.87l-1.4,5.84c9.68,2.31,19.43,4.79,28.98,7.39l1.57-5.79c-9.61-2.61-19.42-5.11-29.15-7.44Zm-507.42-2.25c-9.76,1.96-19.66,4.07-29.42,6.25l1.31,5.86c9.72-2.18,19.58-4.27,29.29-6.23l-1.18-5.88Zm448.5-9.96l-1.04,5.9c9.8,1.74,19.68,3.63,29.37,5.64l1.22-5.87c-9.75-2.03-19.69-3.93-29.55-5.67Zm-389.29-.63c-9.83,1.53-19.81,3.21-29.66,4.97l1.06,5.91c9.81-1.76,19.74-3.42,29.53-4.96l-.93-5.92Zm329.77-8.12l-.7,5.96c9.88,1.16,19.86,2.48,29.65,3.92l.87-5.94c-9.84-1.44-19.88-2.77-29.82-3.94Zm-270.15.14c-9.87,1.09-19.92,2.32-29.85,3.65l.8,5.95c9.88-1.32,19.88-2.55,29.72-3.64l-.67-5.96Zm59.93-5.25c-9.92.63-20.01,1.4-29.99,2.27l.52,5.98c9.93-.87,19.98-1.64,29.85-2.27l-.38-5.98Zm150.3-.29l-.37,5.99c9.94.62,19.98,1.39,29.83,2.27l.54-5.97c-9.91-.89-20-1.66-30-2.29Zm-90.19-2.1c-9.95.15-20.07.43-30.07.82l.24,6c9.95-.4,20.02-.67,29.92-.82l-.09-6Zm30.07-.08l-.06,6c9.96.1,20.03.34,29.92.69l.22-5.99c-9.95-.36-20.07-.6-30.08-.7Z"/>
  <path class="cls-11" d="m1080,855.66v94.11c-36.89-7.99-77.3-16.13-119.86-23.79-195.25-35.14-361.79-46.86-487.55-34.62-25.18,2.46-48.73,5.87-70.54,10.24-61.46,12.32-122.8,19.75-182.98,22.19-17.44.72-34.79,1.01-52.02.88-57.32-.45-113.46-5.54-167.05-15.15v-93.64c3.13.63,6.31,1.25,9.54,1.86,80.73,15.17,211.22,26.39,374.41-6.34,24.51-4.92,50.77-8.76,78.71-11.51,5.47-.55,11.01-1.05,16.61-1.5,59.24-4.85,125.6-5.06,198.39-.6,90.45,5.54,191.3,18.26,299.75,37.81,36.1,6.51,70.53,13.31,102.59,20.06Z"/>
  <path class="cls-11" d="m484.65,890.21c-3.91.23-7.87.6-11.9,1.13-.04.01-.08.01-.12.02h-.01s-.02-.01-.03,0c-31.46,4.08-66.32,16.98-103.8,38.44-7.67,4.39-15.55,9.2-23.44,14.32-7.63,4.94-15.36,10.22-23,15.71-7.43,5.33-14.99,10.99-22.52,16.88-6.12,4.79-12.31,9.78-18.39,14.85-1.22,1.01-2.38,1.98-3.53,2.95l-.08.07c-7.1,5.98-14.34,12.28-21.56,18.78-6.94,6.23-14.02,12.79-21.03,19.49-6.9,6.58-13.81,13.36-20.55,20.16-6.76,6.83-13.52,13.82-20.08,20.79-2.08,2.22-4.17,4.45-6.25,6.7h-121.3c2.81-3.58,9.32-11.76,18.89-23.07,1.85-2.2,3.83-4.53,5.92-6.96,4.76-5.53,9.71-11.18,14.66-16.72,6.85-7.66,13.95-15.42,21.08-23.01,7.13-7.56,14.42-15.11,21.73-22.48,7.35-7.42,14.87-14.8,22.37-21.96,7.67-7.32,15.43-14.51,23.05-21.36,7.96-7.16,15.96-14.13,23.79-20.71l.04-.04c.16-.13.32-.27.48-.4,1.19-1.01,2.39-2.01,3.59-3.01,6.74-5.61,13.65-11.19,20.49-16.53,8.54-6.68,17.14-13.13,25.56-19.16,4.12-2.96,8.28-5.88,12.44-8.73,2.08-1.43,4.16-2.84,6.24-4.22h0c2.65-1.78,5.29-3.52,7.92-5.22,9.29-6.03,18.65-11.75,27.79-16.97,48.54-27.8,95.35-44.59,139.39-50.04.05-.01.11-.02.17-.02,5.58-.69,11.12-1.2,16.61-1.52v.02l5.38,91.82Z"/>
  <path class="cls-8" d="m577.67,837.57c-7.54-.02-15.11.06-22.49.18l.1,6c7.21-.12,14.61-.18,21.97-.18,2.67,0,5.31,0,7.97.02l.04-6c-2.54-.01-5.07-.02-7.59-.02Zm37.65.5l-.15,6c9.76.25,19.84.61,29.95,1.06l.26-5.99c-10.14-.46-20.25-.81-30.06-1.07Zm-90.21.55c-10.2.42-20.31.98-30.05,1.66l.42,5.98c9.68-.67,19.74-1.23,29.88-1.65l-.25-5.99Zm150.3,2.11l-.36,5.99c9.78.6,19.84,1.3,29.9,2.08l.46-5.98c-10.09-.78-20.18-1.48-30-2.09Zm-210.35,2.1c-10.16,1.03-20.23,2.22-29.91,3.56l.82,5.94c9.61-1.32,19.6-2.51,29.7-3.53l-.61-5.97Zm270.36,2.52l-.55,5.98c9.8.89,19.84,1.88,29.85,2.94l.63-5.97c-10.03-1.05-20.1-2.05-29.93-2.95Zm59.78,6.29l-.7,5.95c9.74,1.15,19.73,2.39,29.69,3.69l.77-5.95c-9.98-1.3-19.99-2.54-29.76-3.69Zm-389.8-.55c-4.36.78-8.73,1.61-12.99,2.47-5.46,1.09-11,2.17-16.49,3.19l1.1,5.89c5.51-1.02,11.09-2.1,16.57-3.2,4.22-.85,8.56-1.67,12.87-2.45l-1.06-5.9Zm449.35,8.28l-.84,5.94c9.81,1.39,19.8,2.85,29.68,4.35l.9-5.93c-9.9-1.5-19.91-2.97-29.74-4.36Zm-508.31,2.47c-9.85,1.57-19.81,3.03-29.61,4.33l.79,5.95c9.85-1.31,19.87-2.77,29.76-4.35l-.94-5.93Zm-327.61,1.21l-.99,5.92c9.8,1.64,19.82,3.14,29.77,4.46l.79-5.95c-9.89-1.31-19.84-2.8-29.57-4.43Zm268.56,9.09h0s-.26-2.42-.26-2.42c-9.93,1.05-19.95,1.97-29.8,2.74l.47,5.99c7.72-.61,15.55-1.31,23.35-2.09,2.21-.21,4.41-.44,6.61-.67l-.37-3.55Zm626.8-3.74l-.97,5.92c9.8,1.59,19.76,3.25,29.59,4.94l1.02-5.91c-9.85-1.69-19.83-3.36-29.64-4.95Zm-836.08,2.53l-.6,5.97c9.89.99,19.99,1.84,29.99,2.52l.41-5.99c-9.94-.68-19.97-1.52-29.8-2.5Zm149.37,3.45c-9.95.5-20,.87-29.89,1.08l.13,6c9.94-.22,20.06-.58,30.06-1.08l-.3-6Zm-89.71.62l-.22,6c9.95.37,20.07.6,30.08.67l.05-6c-9.96-.07-20.02-.3-29.91-.67Zm835.66,3.58l-1.07,5.91c9.73,1.76,19.66,3.61,29.5,5.48l1.12-5.89c-9.86-1.88-19.8-3.73-29.55-5.5Zm59.06,11.25l-1.18,5.88c9.72,1.94,19.61,3.95,29.41,5.99l1.22-5.87c-9.81-2.04-19.72-4.06-29.45-6Z"/>
  <path class="cls-8" d="m161.13,1042.25l-2.18-2.05c-6.86,7.3-13.72,14.77-20.37,22.22l2.24,2,2.24,1.99c6.61-7.4,13.43-14.84,20.26-22.1l-2.19-2.06Zm42.34-42.67l-2.07-2.17c-7.16,6.83-14.4,13.94-21.51,21.11l2.13,2.11,2.13,2.12c7.07-7.14,14.27-14.2,21.39-21l-2.07-2.17Zm44.7-40.16l-1.94-2.3c-7.51,6.33-15.15,12.99-22.73,19.8l2.01,2.23,2,2.23c7.53-6.77,15.13-13.38,22.59-19.67l-1.93-2.29Zm47.33-36.94l-1.75-2.44c-7.94,5.69-16.05,11.78-24.11,18.08l1.85,2.36,1.84,2.36c8-6.25,16.04-12.28,23.92-17.93l-1.75-2.43Zm50.43-32.6l-1.49-2.61c-8.46,4.85-17.13,10.14-25.77,15.74l1.64,2.52,1.63,2.51c8.54-5.53,17.12-10.77,25.48-15.56l-1.49-2.6Z"/>
  <path class="cls-19" d="m404,824.5s34-185-46-212-189.83-75.38-219.42-304.19"/>
  <path class="cls-19" d="m520.5,260s62.03,366.42-148.98,359.21"/>
  <path class="cls-20" d="m243.44,770.44h506.58c11,0,19.91-8.92,19.91-19.91v-299.13c0-21.63-15.44-40.09-36.69-44.12-32.72-6.21-71.25-17.76-108.25-62.76-53.38-64.93-310.91-42.02-387.37-18.82-8.4,2.55-14.11,10.32-14.08,19.1.35,107.48.07,336.87-.02,405.72-.02,11.01,8.91,19.93,19.91,19.93Z"/>
  <rect class="cls-2" x="251.5" y="648" width="66" height="96" rx="5.37" ry="5.37"/>
  <path class="cls-9" d="m240,456.5c0,25,3,53,31.78,74.27,30.81,22.77,79.07,56.54,127.22,52.73,76-6,97-89,47-102-50.78-13.2-100,8-131-23-34.93-34.93-33-63-54-63-18,0-21,37.98-21,61Z"/>
  <path class="cls-1" d="m274.15,335.79c8.71-4.09,17.9-7.02,27.36-8.75,18.05-3.31,50.45-8.27,61.49-3.53,35,15,16,87-20,85s-27-21-59-21c-22,0-45-24-29-40,4.07-4.07,11.98-8.35,19.15-11.71Z"/>
  <path class="cls-2" d="m436.66,408.54s-28.71-1.17-37.66-25.04-9.07-42.02-7-51c3-13,38-29,64-7,15.15,12.82,3.33,27.14,25,36s15,54-44.34,47.04Z"/>
  <rect class="cls-6" x="629" y="427.5" width="118" height="62" rx="7.23" ry="7.23"/>
  <rect class="cls-6" x="664" y="577.5" width="118" height="62" rx="7.23" ry="7.23" transform="translate(1331.5 -114.5) rotate(90)"/>
  <path class="cls-1" d="m574.39,479.01s46.57,11.66,46.61-20.15c.05-31.81-18.09-39.23-42.96-32.87-24.86,6.36-48.19,43.48-3.65,53.02Z"/>
  <path class="cls-1" d="m471.06,677.35s-6.32-28.06-26.45-16.51c-20.14,11.55-19.5,23.53-8.16,33.93s41.68,8.83,34.62-17.42Z"/>
  <path class="cls-3" d="m533.19,650.54c-.31-9.72,4.05-18.53,10.78-25.56,7.22-7.54,16.18-14.61,26.56-13.46,10.6,1.18,17.96,10.07,23.68,19.07,6.01,9.44,12.06,20.4,8.11,30.88-3.95,10.47-15.72,14.72-26.47,17.82-10.18,2.93-21.39,4.43-30.18-1.49-8.72-5.87-12.14-16.75-12.48-27.25Z"/>
  <path class="cls-7" d="m622.75,668.18c8.12-6,17.07-10.58,27.16-10.5,10.46.08,20.88,3.4,28.14,10.93,7.41,7.69,9.97,18.35,10.37,29.03.45,11.83,1.3,25.9-8.01,33.22-9.14,7.18-21.95.46-33.53-.58-10.6-.95-21.92,1.45-30.28-5.13-9.52-7.49-17.15-19.11-15.86-31.16,1.26-11.68,12.54-18.83,21.99-25.81Z"/>
  <path class="cls-10" d="m508.47,680.3c-13.09,4.3-26.71-2.65-34.71-13.86-7.89-11.07-9.29-25.75-1.46-36.86,8.32-11.81,23.22-18.15,36.84-13.36,12.98,4.56,18.24,18.91,18.1,32.67-.14,13.49-5.95,27.21-18.77,31.42Z"/>
  <rect class="cls-13" x="434" y="714.5" width="37" height="37" rx="2.74" ry="2.74"/>
  <rect class="cls-9" x="21.5" y="507" width="123" height="108"/>
  <path class="cls-22" d="m258.28,700.75s-59.28,18.75-110.28-15.25"/>
  <rect class="cls-2" x="56" y="647.5" width="95" height="58"/>
  <g>
    <path class="cls-12" d="m93.14,680.56l-1.55,11.07h-4.52l-10.67-27.77h4.6l7.78,21.03,1.47-11.82-3.53-9.21h4.6l.04.16.04-.16h4.05l-1.11,8.13,4.76,12.89,2.62-21.03h4.05l-3.85,27.77h-4.52l-4.25-11.07Z"/>
    <path class="cls-12" d="m112.59,689.8c-1.64-1.48-2.59-3.41-2.86-5.79l-1.51-12.26c-.26-2.38.33-4.36,1.79-5.93,1.45-1.57,3.43-2.36,5.91-2.36,2.35,0,4.35.74,5.99,2.22,1.64,1.48,2.59,3.41,2.86,5.79l.2,1.35h-4.21l-.2-1.23c-.13-1.19-.63-2.17-1.49-2.94-.86-.77-1.88-1.15-3.07-1.15s-2.12.38-2.8,1.15c-.67.77-.93,1.75-.77,2.94l1.51,12.26c.16,1.22.66,2.21,1.51,2.97.85.77,1.86,1.15,3.06,1.15s2.12-.38,2.8-1.15c.67-.77.93-1.76.77-2.97l-.12-1.19h4.21l.12,1.07c.21,2.41-.4,4.39-1.84,5.95s-3.38,2.34-5.81,2.34-4.39-.74-6.03-2.22Z"/>
  </g>
  <g>
    <path class="cls-12" d="m48.18,527.8h12.85l.52,4.05h-8.65l.95,7.82h8.01l.48,4.05h-8.01l1.47,11.86h-4.21l-3.41-27.77Z"/>
    <path class="cls-12" d="m68.35,554.03c-1.4-1.3-2.23-2.98-2.5-5.04l-1.27-10.35c-.26-2.04.27-3.76,1.61-5.16,1.34-1.4,3.05-2.1,5.14-2.1s3.8.65,5.2,1.94c1.4,1.3,2.24,2.99,2.5,5.08l1.27,10.35c.26,2.01-.27,3.72-1.61,5.12-1.33,1.4-3.05,2.1-5.14,2.1s-3.79-.65-5.2-1.94Zm7.28-2.86c.54-.61.76-1.38.65-2.3l-1.27-10.35c-.13-.95-.54-1.73-1.21-2.34-.67-.61-1.47-.91-2.4-.91s-1.65.3-2.18.91c-.53.61-.74,1.39-.63,2.34l1.27,10.35c.13.93.54,1.69,1.21,2.3.67.61,1.47.91,2.4.91s1.62-.3,2.16-.91Z"/>
    <path class="cls-12" d="m86.85,554.03c-1.4-1.3-2.23-2.98-2.5-5.04l-1.27-10.35c-.26-2.04.27-3.76,1.61-5.16,1.34-1.4,3.05-2.1,5.14-2.1s3.8.65,5.2,1.94c1.4,1.3,2.24,2.99,2.5,5.08l1.27,10.35c.26,2.01-.27,3.72-1.61,5.12-1.33,1.4-3.05,2.1-5.14,2.1s-3.79-.65-5.2-1.94Zm7.28-2.86c.54-.61.76-1.38.65-2.3l-1.27-10.35c-.13-.95-.54-1.73-1.21-2.34-.67-.61-1.47-.91-2.4-.91s-1.65.3-2.18.91c-.53.61-.74,1.39-.63,2.34l1.27,10.35c.13.93.54,1.69,1.21,2.3.67.61,1.47.91,2.4.91s1.62-.3,2.16-.91Z"/>
    <path class="cls-12" d="m105.37,554.03c-1.4-1.3-2.24-2.98-2.5-5.04l-1.31-10.59c-.26-1.98.23-3.65,1.49-5,1.26-1.35,2.88-2.02,4.86-2.02,1.4,0,2.53.32,3.37.95l-1.03-8.49h4.05l3.01,24.91c.26,2.01-.27,3.72-1.61,5.12-1.34,1.4-3.05,2.1-5.14,2.1s-3.8-.65-5.2-1.94Zm7.28-2.86c.54-.61.76-1.38.65-2.3l-1.27-10.35c-.13-.95-.54-1.73-1.21-2.34s-1.47-.91-2.4-.91-1.65.3-2.18.91c-.53.61-.74,1.39-.63,2.34l1.27,10.35c.13.93.54,1.69,1.21,2.3.67.61,1.47.91,2.4.91s1.62-.3,2.16-.91Z"/>
    <path class="cls-12" d="m49.9,587.93l7.5-16.03h-9.48l-.48-3.89h13.81l.48,3.89-7.5,16.03h9.48l.48,3.89h-13.81l-.48-3.89Z"/>
    <path class="cls-12" d="m68.62,590.27c-1.4-1.3-2.24-2.98-2.5-5.04l-1.27-10.35c-.26-2.04.27-3.76,1.61-5.16,1.34-1.4,3.05-2.1,5.14-2.1s3.79.65,5.2,1.94c1.4,1.3,2.23,2.99,2.5,5.08l1.27,10.35c.26,2.01-.27,3.72-1.61,5.12-1.34,1.4-3.05,2.1-5.14,2.1s-3.8-.65-5.2-1.94Zm1.83-29.6h4.72l-4.09,5.63h-3.57l2.94-5.63Zm5.46,26.74c.54-.61.76-1.38.65-2.3l-1.27-10.35c-.13-.95-.54-1.73-1.21-2.34s-1.47-.91-2.4-.91-1.65.3-2.18.91c-.53.61-.74,1.39-.63,2.34l1.27,10.35c.13.93.54,1.69,1.21,2.3.67.61,1.47.91,2.4.91s1.62-.3,2.16-.91Z"/>
    <path class="cls-12" d="m83.46,574.87c-.26-2.04.27-3.76,1.61-5.16,1.34-1.4,3.05-2.1,5.14-2.1s3.79.65,5.2,1.94c1.4,1.3,2.23,2.99,2.5,5.08l2.14,17.18h-4.05l-2.1-17.06c-.13-.95-.54-1.73-1.21-2.34s-1.47-.91-2.4-.91-1.65.3-2.18.91c-.53.61-.74,1.39-.63,2.34l2.1,17.06h-4.05l-2.06-16.94Z"/>
    <path class="cls-12" d="m105.29,590.05c-1.47-1.44-2.2-3.29-2.2-5.53,0-1.69.62-3.13,1.84-4.32s2.72-1.79,4.46-1.79c1.32,0,2.49.3,3.49.91l-.56-4.56c-.13-.95-.54-1.73-1.21-2.34-.67-.61-1.47-.91-2.4-.91s-1.65.3-2.18.91c-.53.61-.74,1.39-.63,2.34l.2,1.35h-4.05l-.16-1.23c-.26-2.04.27-3.76,1.61-5.16,1.34-1.4,3.05-2.1,5.14-2.1s3.8.65,5.2,1.94c1.4,1.3,2.24,2.99,2.5,5.08l1.31,10.35c.26,2.01-.28,3.72-1.63,5.12-1.35,1.4-3.07,2.1-5.16,2.1-2.25,0-4.11-.72-5.57-2.16Zm7.58-2.52c.52-.53.77-1.19.77-1.98,0-1.06-.35-1.94-1.05-2.64s-1.57-1.05-2.6-1.05c-.85,0-1.53.27-2.04.81-.52.54-.77,1.21-.77,2,0,1.08.36,1.96,1.07,2.64s1.56,1.01,2.54,1.01c.87,0,1.57-.26,2.08-.79Z"/>
  </g>
  <path class="cls-15" d="m317.5,502s-55,98-173,64"/>
  <path class="cls-17" d="m292,357.5s-155-7-183-185"/>
  <path class="cls-17" d="m667.3,714.5s120.2,18.5,154.82,140.15"/>
  <rect class="cls-1" x="42" y="113.5" width="176" height="70"/>
  <rect class="cls-1" x="582" y="200.5" width="282" height="68"/>
  <path class="cls-16" d="m458.96,744s70.54,96,55.15,202.69"/>
  <rect class="cls-1" x="712" y="795.5" width="282" height="68"/>
  <g>
    <path class="cls-12" d="m64.58,133.42h12.85l.52,4.05h-8.65l.95,7.82h8.01l.48,4.05h-8.01l1.47,11.86h-4.21l-3.41-27.77Z"/>
    <path class="cls-12" d="m84.9,159.65c-1.43-1.3-2.27-2.98-2.54-5.04l-2.14-17.22h4.05l2.1,17.06c.13.95.54,1.73,1.21,2.34s1.47.91,2.4.91,1.69-.3,2.22-.91.73-1.39.59-2.34l-2.1-17.06h4.05l2.06,16.94c.26,2.04-.26,3.76-1.57,5.16-1.31,1.4-3.01,2.1-5.1,2.1s-3.81-.65-5.24-1.94Z"/>
    <path class="cls-12" d="m99.98,144.25c-.26-2.04.27-3.76,1.61-5.16,1.34-1.4,3.05-2.1,5.14-2.1s3.8.65,5.2,1.94c1.4,1.3,2.24,2.99,2.5,5.08l2.14,17.18h-4.05l-2.1-17.06c-.13-.95-.54-1.73-1.21-2.34-.67-.61-1.47-.91-2.4-.91s-1.65.3-2.18.91c-.53.61-.74,1.39-.63,2.34l2.1,17.06h-4.05l-2.06-16.94Z"/>
    <path class="cls-12" d="m127.19,157.31l7.5-16.03h-9.48l-.48-3.89h13.81l.48,3.89-7.5,16.03h9.48l.48,3.89h-13.81l-.48-3.89Z"/>
    <path class="cls-12" d="m145.91,159.65c-1.4-1.3-2.23-2.98-2.5-5.04l-1.27-10.35c-.26-2.04.27-3.76,1.61-5.16,1.34-1.4,3.05-2.1,5.14-2.1s3.8.65,5.2,1.94c1.4,1.3,2.24,2.99,2.5,5.08l1.27,10.35c.26,2.01-.27,3.72-1.61,5.12-1.33,1.4-3.05,2.1-5.14,2.1s-3.79-.65-5.2-1.94Zm1.83-29.6h4.72l-4.09,5.63h-3.57l2.94-5.63Zm5.46,26.74c.54-.61.76-1.38.65-2.3l-1.27-10.35c-.13-.95-.54-1.73-1.21-2.34-.67-.61-1.47-.91-2.4-.91s-1.65.3-2.18.91c-.53.61-.74,1.39-.63,2.34l1.27,10.35c.13.93.54,1.69,1.21,2.3.67.61,1.47.91,2.4.91s1.62-.3,2.16-.91Z"/>
    <path class="cls-12" d="m160.75,144.25c-.26-2.04.27-3.76,1.61-5.16,1.34-1.4,3.05-2.1,5.14-2.1s3.8.65,5.2,1.94c1.4,1.3,2.24,2.99,2.5,5.08l2.14,17.18h-4.05l-2.1-17.06c-.13-.95-.54-1.73-1.21-2.34-.67-.61-1.47-.91-2.4-.91s-1.65.3-2.18.91c-.53.61-.74,1.39-.63,2.34l2.1,17.06h-4.05l-2.06-16.94Z"/>
    <path class="cls-12" d="m182.58,159.43c-1.47-1.44-2.2-3.29-2.2-5.53,0-1.69.62-3.13,1.84-4.32,1.23-1.19,2.72-1.79,4.46-1.79,1.32,0,2.49.3,3.49.91l-.56-4.56c-.13-.95-.54-1.73-1.21-2.34s-1.47-.91-2.4-.91-1.65.3-2.18.91c-.53.61-.74,1.39-.63,2.34l.2,1.35h-4.05l-.16-1.23c-.26-2.04.27-3.76,1.61-5.16,1.34-1.4,3.05-2.1,5.14-2.1s3.79.65,5.2,1.94c1.4,1.3,2.23,2.99,2.5,5.08l1.31,10.35c.26,2.01-.28,3.72-1.63,5.12-1.35,1.4-3.07,2.1-5.16,2.1-2.25,0-4.11-.72-5.57-2.16Zm7.58-2.52c.52-.53.77-1.19.77-1.98,0-1.06-.35-1.94-1.05-2.64-.7-.7-1.57-1.05-2.6-1.05-.85,0-1.53.27-2.04.81s-.77,1.21-.77,2c0,1.08.36,1.96,1.07,2.64.71.67,1.56,1.01,2.54,1.01.87,0,1.57-.26,2.08-.79Z"/>
  </g>
  <g>
    <path class="cls-12" d="m609.95,225.07h-4.92l-.44-3.46h13.49l.41,3.46h-4.95l2.51,20.28h-3.59l-2.51-20.28Z"/>
    <path class="cls-12" d="m625.21,235.99l1.15,9.36h-3.59l-2.92-23.73h7.36c2.35,0,4.26.72,5.73,2.15s2.2,3.31,2.2,5.61c0,1.6-.47,3-1.42,4.17s-2.21,1.92-3.8,2.24l9.05,9.56h-4.95l-8.81-9.36Zm2.98-3.46c1.02,0,1.83-.3,2.44-.9.61-.6.91-1.38.91-2.36,0-1.2-.38-2.2-1.15-3-.77-.8-1.74-1.2-2.92-1.2h-3.59l.92,7.46h3.39Z"/>
    <path class="cls-12" d="m637.25,221.61h3.59l2.92,23.73h-3.59l-2.92-23.73Z"/>
    <path class="cls-12" d="m644.77,221.61h4.44l8.48,17.09-2.14-17.09h3.39l2.92,23.73h-4.44l-8.44-17.09,2.1,17.09h-3.39l-2.92-23.73Z"/>
    <path class="cls-12" d="m662.9,221.61h3.59l2.92,23.73h-3.59l-2.92-23.73Z"/>
    <path class="cls-12" d="m673.6,225.07h-4.92l-.44-3.46h13.49l.41,3.46h-4.95l2.51,20.28h-3.59l-2.51-20.28Z"/>
    <path class="cls-12" d="m689.81,234.36l-7.26-12.75h4.07l4.54,8.34,2.51-8.34h3.76l-4.04,12.75,1.32,10.99h-3.59l-1.32-10.99Z"/>
    <path class="cls-12" d="m706.39,221.61h7.77c2.08,0,3.79.67,5.12,2.02,1.33,1.35,2,3.03,2,5.07s-.76,3.52-2.27,4.58c2.4,1.29,3.59,3.35,3.59,6.17,0,1.63-.58,3.02-1.73,4.17s-2.69,1.73-4.61,1.73h-6.95l-2.92-23.73Zm8.38,10.14c.9,0,1.62-.27,2.14-.81s.78-1.23.78-2.07c0-1.08-.36-1.99-1.09-2.71-.72-.72-1.6-1.08-2.64-1.08h-3.53l.81,6.68h3.53Zm1.29,10.14c.93,0,1.64-.27,2.15-.81s.76-1.23.76-2.07c0-1.11-.37-2.02-1.1-2.73-.73-.71-1.61-1.07-2.63-1.07h-3.59l.85,6.68h3.56Z"/>
    <path class="cls-12" d="m727.45,221.61h3.87l9.12,23.73h-3.93l-1.73-4.65h-6.58l-.58,4.65h-3.46l3.29-23.73Zm6.1,15.63l-3.7-9.87-1.29,9.87h4.98Z"/>
    <path class="cls-12" d="m739.23,221.61h4.44l8.48,17.09-2.14-17.09h3.39l2.92,23.73h-4.44l-8.44-17.09,2.1,17.09h-3.39l-2.92-23.73Z"/>
    <path class="cls-12" d="m757.36,221.61h3.59l1.49,12.1,1.42,11.63h-3.59l-2.92-23.73Zm5.09,12.1l5.49-12.1h3.53l-5.29,11.56,8.44,12.17h-4.3l-7.87-11.63Z"/>
    <path class="cls-12" d="m782.48,242.02l6.41-13.7h-8.1l-.41-3.32h11.8l.41,3.32-6.41,13.7h8.1l.41,3.32h-11.8l-.41-3.32Z"/>
    <path class="cls-12" d="m798.54,244.02c-1.2-1.11-1.91-2.54-2.14-4.31l-1.08-8.85c-.23-1.74.23-3.21,1.37-4.41,1.14-1.2,2.6-1.8,4.39-1.8s3.24.55,4.44,1.66c1.2,1.11,1.91,2.55,2.13,4.34l1.09,8.85c.23,1.72-.23,3.18-1.37,4.37-1.14,1.2-2.61,1.8-4.39,1.8s-3.24-.55-4.44-1.66Zm1.56-25.29h4.04l-3.49,4.81h-3.05l2.51-4.81Zm4.66,22.85c.46-.52.65-1.18.56-1.97l-1.09-8.85c-.11-.81-.46-1.48-1.03-2s-1.26-.78-2.05-.78-1.41.26-1.86.78c-.45.52-.63,1.19-.54,2l1.08,8.85c.11.79.46,1.45,1.04,1.97.58.52,1.26.78,2.05.78s1.38-.26,1.85-.78Z"/>
    <path class="cls-12" d="m811.26,230.87c-.23-1.74.23-3.21,1.37-4.41,1.14-1.2,2.6-1.8,4.39-1.8s3.24.55,4.44,1.66c1.2,1.11,1.91,2.55,2.13,4.34l1.83,14.68h-3.46l-1.8-14.58c-.11-.81-.46-1.48-1.03-2s-1.26-.78-2.05-.78-1.41.26-1.86.78c-.45.52-.63,1.19-.54,2l1.8,14.58h-3.46l-1.76-14.48Z"/>
    <path class="cls-12" d="m829.97,243.84c-1.25-1.23-1.88-2.81-1.88-4.73,0-1.45.53-2.68,1.58-3.7s2.32-1.53,3.81-1.53c1.13,0,2.12.26,2.98.78l-.47-3.9c-.11-.81-.46-1.48-1.04-2s-1.26-.78-2.05-.78-1.41.26-1.87.78c-.45.52-.63,1.19-.54,2l.17,1.15h-3.46l-.14-1.05c-.23-1.74.23-3.21,1.37-4.41,1.14-1.2,2.61-1.8,4.39-1.8s3.24.55,4.44,1.66c1.2,1.11,1.91,2.55,2.14,4.34l1.12,8.85c.22,1.72-.24,3.18-1.39,4.37-1.15,1.2-2.62,1.8-4.41,1.8-1.92,0-3.51-.62-4.76-1.85Zm6.48-2.15c.44-.45.66-1.02.66-1.7,0-.9-.3-1.66-.9-2.25-.6-.6-1.34-.9-2.22-.9-.72,0-1.3.23-1.75.7-.44.46-.66,1.03-.66,1.71,0,.93.3,1.68.92,2.25.61.58,1.33.86,2.17.86.74,0,1.34-.23,1.78-.68Z"/>
  </g>
  <g>
    <path class="cls-12" d="m741.72,838.79c-1.39-1.27-2.2-2.92-2.43-4.95l-2.1-17.22h3.59l2.1,17.09c.11,1.04.54,1.89,1.27,2.54.74.66,1.61.98,2.63.98s1.81-.33,2.39-.98c.58-.65.8-1.5.66-2.54l-2.1-17.09h3.59l2.07,16.99c.27,2.04-.23,3.72-1.49,5.07s-2.95,2.02-5.05,2.02-3.75-.63-5.14-1.9Z"/>
    <path class="cls-12" d="m758.41,820.07h-4.92l-.44-3.46h13.49l.41,3.46h-4.95l2.51,20.28h-3.59l-2.51-20.28Z"/>
    <path class="cls-12" d="m768.31,816.61h7.76c2.08,0,3.79.67,5.12,2.02,1.33,1.35,2,3.04,2,5.07s-.76,3.52-2.27,4.58c2.4,1.29,3.6,3.34,3.6,6.17,0,1.63-.58,3.02-1.73,4.17s-2.69,1.73-4.61,1.73h-6.95l-2.92-23.73Zm8.38,10.14c.9,0,1.62-.27,2.13-.81s.78-1.23.78-2.07c0-1.08-.36-1.99-1.08-2.71-.72-.72-1.61-1.08-2.64-1.08h-3.53l.81,6.68h3.53Zm1.29,10.14c.93,0,1.64-.27,2.15-.81.51-.54.76-1.23.76-2.07,0-1.11-.37-2.02-1.1-2.73-.73-.71-1.61-1.07-2.63-1.07h-3.6l.85,6.68h3.56Z"/>
    <path class="cls-12" d="m796.85,839.03c-1.2-1.11-1.91-2.54-2.13-4.31l-1.05-8.85c-.23-1.74.23-3.21,1.37-4.41,1.14-1.2,2.6-1.8,4.39-1.8s3.24.55,4.44,1.66c1.2,1.11,1.91,2.55,2.13,4.34l.17,1.25h-3.42l-.17-1.15c-.11-.81-.46-1.48-1.03-2s-1.26-.78-2.05-.78-1.41.26-1.86.78c-.45.52-.63,1.19-.54,2l1.08,8.85c.11.79.46,1.45,1.04,1.97s1.26.78,2.05.78,1.38-.26,1.85-.78.65-1.18.56-1.97l-.14-1.15h3.42l.14,1.05c.23,1.72-.23,3.18-1.37,4.37-1.14,1.2-2.61,1.8-4.39,1.8s-3.28-.55-4.48-1.66Z"/>
    <path class="cls-12" d="m807.61,813.22h3.46l.92,7.53c.84-.72,1.89-1.08,3.15-1.08,1.76,0,3.21.51,4.34,1.54,1.13,1.03,1.8,2.4,2,4.12l1.87,15.02h-3.46l-1.8-14.58c-.11-.81-.46-1.48-1.04-2s-1.26-.78-2.05-.78-1.41.26-1.87.78-.63,1.19-.54,2l1.8,14.58h-3.46l-3.32-27.12Z"/>
    <path class="cls-12" d="m824.71,817.6c-.45-.43-.68-.97-.68-1.63,0-.52.17-.95.51-1.3.34-.35.77-.53,1.29-.53.66,0,1.21.21,1.66.64s.68.97.68,1.63c0,.54-.17.98-.51,1.32-.34.34-.77.51-1.29.51-.65,0-1.21-.21-1.66-.64Zm.1,2.41h3.46l2.51,20.34h-3.46l-2.51-20.34Z"/>
    <path class="cls-12" d="m831.53,813.22h3.46l3.32,27.12h-3.46l-3.32-27.12Z"/>
    <path class="cls-12" d="m839.06,813.22h3.46l3.32,27.12h-3.46l-3.32-27.12Z"/>
    <path class="cls-12" d="m847.62,828.45h9.36l.41,3.46h-9.36l-.41-3.46Z"/>
    <path class="cls-12" d="m863.07,839.03c-1.2-1.11-1.91-2.54-2.14-4.31l-1.08-8.85c-.23-1.74.23-3.21,1.37-4.41,1.14-1.2,2.6-1.8,4.39-1.8s3.24.55,4.44,1.66c1.2,1.11,1.91,2.55,2.13,4.34l1.09,8.85c.23,1.72-.23,3.18-1.37,4.37-1.14,1.2-2.61,1.8-4.39,1.8s-3.24-.55-4.44-1.66Zm6.22-2.44c.46-.52.65-1.18.56-1.97l-1.09-8.85c-.11-.81-.46-1.48-1.03-2s-1.26-.78-2.05-.78-1.41.26-1.86.78c-.45.52-.63,1.19-.54,2l1.08,8.85c.11.79.46,1.45,1.04,1.97s1.26.78,2.05.78,1.38-.26,1.85-.78Z"/>
    <path class="cls-12" d="m878.96,839.03c-1.22-1.11-1.94-2.54-2.17-4.31l-1.83-14.71h3.46l1.8,14.58c.11.81.46,1.48,1.04,2s1.26.78,2.05.78,1.45-.26,1.9-.78c.45-.52.62-1.19.51-2l-1.8-14.58h3.46l1.76,14.48c.23,1.74-.22,3.21-1.34,4.41-1.12,1.2-2.57,1.8-4.36,1.8s-3.25-.55-4.47-1.66Z"/>
    <path class="cls-12" d="m899.44,840.35c-1.79,0-3.29-.53-4.51-1.59s-1.92-2.46-2.1-4.21l-2.24-17.94h3.46l.41,3.39h4.81l.41,3.32h-4.78l1.32,10.95c.11.79.46,1.45,1.03,1.97.58.52,1.26.78,2.05.78h2.07l.41,3.32h-2.34Z"/>
    <path class="cls-12" d="m910.15,837.02l6.41-13.7h-8.1l-.41-3.32h11.8l.41,3.32-6.41,13.7h8.1l.41,3.32h-11.8l-.41-3.32Z"/>
    <path class="cls-12" d="m926.2,839.03c-1.2-1.11-1.91-2.54-2.13-4.31l-1.09-8.85c-.23-1.74.23-3.21,1.37-4.41,1.14-1.2,2.61-1.8,4.39-1.8s3.24.55,4.44,1.66c1.2,1.11,1.91,2.55,2.14,4.34l1.08,8.85c.23,1.72-.23,3.18-1.37,4.37-1.14,1.2-2.6,1.8-4.39,1.8s-3.24-.55-4.44-1.66Zm1.56-25.29h4.04l-3.49,4.81h-3.05l2.51-4.81Zm4.66,22.85c.46-.52.65-1.18.56-1.97l-1.08-8.85c-.11-.81-.46-1.48-1.04-2s-1.26-.78-2.05-.78-1.41.26-1.87.78c-.45.52-.63,1.19-.54,2l1.09,8.85c.11.79.46,1.45,1.03,1.97s1.26.78,2.05.78,1.38-.26,1.85-.78Z"/>
    <path class="cls-12" d="m938.93,825.87c-.23-1.74.23-3.21,1.37-4.41,1.14-1.2,2.61-1.8,4.39-1.8s3.24.55,4.44,1.66c1.2,1.11,1.91,2.55,2.14,4.34l1.83,14.68h-3.46l-1.8-14.58c-.11-.81-.46-1.48-1.04-2s-1.26-.78-2.05-.78-1.41.26-1.87.78c-.45.52-.63,1.19-.54,2l1.8,14.58h-3.46l-1.76-14.48Z"/>
    <path class="cls-12" d="m957.64,838.84c-1.25-1.23-1.88-2.81-1.88-4.73,0-1.45.53-2.68,1.58-3.7,1.05-1.02,2.32-1.53,3.81-1.53,1.13,0,2.12.26,2.98.78l-.47-3.9c-.11-.81-.46-1.48-1.03-2s-1.26-.78-2.05-.78-1.41.26-1.86.78c-.45.52-.63,1.19-.54,2l.17,1.15h-3.46l-.13-1.05c-.23-1.74.23-3.21,1.37-4.41,1.14-1.2,2.6-1.8,4.39-1.8s3.24.55,4.44,1.66c1.2,1.11,1.91,2.55,2.13,4.34l1.12,8.85c.23,1.72-.24,3.18-1.39,4.37-1.15,1.2-2.62,1.8-4.41,1.8-1.92,0-3.51-.62-4.76-1.85Zm6.47-2.15c.44-.45.66-1.02.66-1.7,0-.9-.3-1.66-.9-2.25s-1.34-.9-2.22-.9c-.72,0-1.3.23-1.75.7s-.66,1.03-.66,1.71c0,.93.31,1.68.92,2.25.61.58,1.33.86,2.17.86.75,0,1.34-.23,1.78-.68Z"/>
  </g>
  <rect class="cls-1" x="62" y="790.5" width="282" height="96"/>
  <g>
    <path class="cls-12" d="m83.6,810.47h3.5l1.45,11.78,1.39,11.32h-3.5l-2.84-23.1Zm4.95,11.78l5.35-11.78h3.43l-5.15,11.26,8.22,11.85h-4.19l-7.66-11.32Z"/>
    <path class="cls-12" d="m100.58,819.65c-.22-1.69.22-3.15,1.32-4.37,1.1-1.22,2.51-1.83,4.22-1.83h1.75l.4,3.23h-2.01c-.77,0-1.38.25-1.82.76s-.62,1.15-.53,1.95l1.75,14.19h-3.37l-1.72-13.93Z"/>
    <path class="cls-12" d="m113.27,832.11c-1.22-1.2-1.83-2.73-1.83-4.6,0-1.41.51-2.61,1.53-3.6s2.26-1.49,3.71-1.49c1.1,0,2.07.25,2.9.76l-.46-3.79c-.11-.79-.45-1.44-1.01-1.95-.56-.51-1.23-.76-2-.76s-1.38.25-1.82.76c-.44.51-.62,1.15-.53,1.95l.17,1.12h-3.37l-.13-1.02c-.22-1.69.23-3.12,1.34-4.29,1.11-1.17,2.54-1.75,4.27-1.75s3.16.54,4.32,1.62c1.17,1.08,1.86,2.49,2.08,4.22l1.09,8.62c.22,1.67-.23,3.09-1.35,4.26-1.12,1.17-2.55,1.75-4.29,1.75-1.87,0-3.42-.6-4.64-1.8Zm6.3-2.1c.43-.44.64-.99.64-1.65,0-.88-.29-1.61-.88-2.19s-1.3-.87-2.16-.87c-.7,0-1.27.22-1.7.68-.43.45-.64,1.01-.64,1.67,0,.9.3,1.63.89,2.19.59.56,1.3.84,2.11.84.73,0,1.3-.22,1.73-.66Z"/>
    <path class="cls-12" d="m125.19,811.43c-.44-.42-.66-.95-.66-1.58,0-.51.17-.93.5-1.27.33-.34.75-.51,1.25-.51.64,0,1.18.21,1.62.63.44.42.66.95.66,1.58,0,.53-.17.96-.5,1.29s-.75.5-1.25.5c-.64,0-1.18-.21-1.62-.63Zm.1,2.34h3.37l3.27,26.4h-3.37l-3.27-26.4Z"/>
    <path class="cls-12" d="m137.08,826.91l.13,1.09c.11.79.44,1.44.99,1.93.55.5,1.21.74,1.98.74.7,0,1.28-.22,1.72-.66.44-.44.66-1.01.66-1.72,0-.92-.33-1.66-.99-2.21-.42-.33-1.02-.55-1.8-.66-.78-.11-1.61-.29-2.48-.53s-1.64-.66-2.33-1.25c-1.47-1.21-2.21-2.82-2.21-4.82,0-1.52.54-2.79,1.62-3.83s2.42-1.55,4.03-1.55c1.72,0,3.16.54,4.34,1.63,1.18,1.09,1.88,2.49,2.1,4.21l.17,1.16h-3.37l-.17-1.06c-.09-.79-.41-1.44-.97-1.95-.56-.51-1.23-.76-2-.76-.7,0-1.28.22-1.72.66s-.66,1.01-.66,1.72c0,.95.33,1.68.99,2.21.44.38,1.44.69,2.99.94,1.55.25,2.77.76,3.65,1.53,1.47,1.28,2.21,2.88,2.21,4.82,0,1.5-.55,2.76-1.65,3.79-1.1,1.03-2.45,1.55-4.06,1.55-1.72,0-3.16-.54-4.32-1.62s-1.86-2.47-2.08-4.19l-.13-1.19h3.37Z"/>
    <path class="cls-12" d="m151.94,823.67l1.22,9.9h-3.37l-3.23-26.4h3.37l2.01,16.5Zm0,0l4.88-9.9h3.43l-4.75,9.41,7.23,10.4h-3.96l-6.83-9.9Z"/>
    <path class="cls-12" d="m165.23,832.11c-1.22-1.2-1.83-2.73-1.83-4.6,0-1.41.51-2.61,1.53-3.6s2.26-1.49,3.71-1.49c1.1,0,2.07.25,2.9.76l-.46-3.79c-.11-.79-.45-1.44-1.01-1.95-.56-.51-1.23-.76-2-.76s-1.38.25-1.82.76c-.44.51-.62,1.15-.53,1.95l.17,1.12h-3.37l-.13-1.02c-.22-1.69.23-3.12,1.34-4.29,1.11-1.17,2.54-1.75,4.27-1.75s3.16.54,4.32,1.62c1.17,1.08,1.86,2.49,2.08,4.22l1.09,8.62c.22,1.67-.23,3.09-1.35,4.26-1.12,1.17-2.55,1.75-4.29,1.75-1.87,0-3.42-.6-4.64-1.8Zm2.26-24.44h3.93l-3.4,4.69h-2.97l2.44-4.69Zm4.04,22.34c.43-.44.64-.99.64-1.65,0-.88-.29-1.61-.88-2.19s-1.3-.87-2.16-.87c-.7,0-1.27.22-1.7.68-.43.45-.64,1.01-.64,1.67,0,.9.3,1.63.89,2.19.59.56,1.3.84,2.11.84.73,0,1.3-.22,1.73-.66Z"/>
    <path class="cls-12" d="m184.65,819.48c-.22-1.69.23-3.12,1.34-4.29,1.11-1.17,2.54-1.75,4.27-1.75s3.16.54,4.32,1.62c1.17,1.08,1.86,2.49,2.08,4.22l1.78,14.29h-3.37l-1.75-14.19c-.11-.79-.45-1.44-1.01-1.95-.56-.51-1.23-.76-2-.76s-1.38.25-1.82.76c-.44.51-.62,1.15-.53,1.95l1.75,14.19h-3.37l-1.72-14.09Z"/>
    <path class="cls-12" d="m203.34,832.29c-1.17-1.08-1.86-2.47-2.08-4.19l-1.02-8.61c-.22-1.69.23-3.12,1.34-4.29,1.11-1.17,2.54-1.75,4.27-1.75s3.16.54,4.32,1.62c1.17,1.08,1.86,2.49,2.08,4.22l.73,5.78h-8.68l.33,2.94c.11.77.45,1.41,1.01,1.91.56.51,1.23.76,2,.76s1.35-.25,1.8-.76c.45-.51.63-1.14.54-1.91l-.1-.92h3.33l.1.83c.22,1.67-.23,3.09-1.34,4.26-1.11,1.17-2.54,1.75-4.27,1.75s-3.19-.54-4.36-1.62Zm5.94-10l-.36-2.9c-.11-.79-.45-1.44-1.01-1.95-.56-.51-1.23-.76-2-.76s-1.38.25-1.82.76c-.44.51-.62,1.15-.53,1.95l.36,2.9h5.35Z"/>
    <path class="cls-12" d="m215.78,819.48c-.22-1.69.23-3.12,1.34-4.29,1.11-1.17,2.54-1.75,4.27-1.75s3.29.62,4.46,1.85c.99-1.23,2.4-1.85,4.22-1.85,1.72,0,3.17.54,4.36,1.62s1.89,2.49,2.11,4.22l1.75,14.29h-3.37l-1.75-14.19c-.11-.79-.45-1.44-1.01-1.95-.56-.51-1.23-.76-2-.76s-1.41.25-1.85.76c-.44.51-.6,1.15-.5,1.95l1.75,14.19h-3.37l-1.75-14.19c-.11-.79-.45-1.44-1.01-1.95-.56-.51-1.23-.76-2-.76s-1.38.25-1.82.76-.62,1.15-.53,1.95l1.75,14.19h-3.37l-1.72-14.09Z"/>
    <path class="cls-12" d="m243.26,832.29c-1.17-1.08-1.86-2.47-2.08-4.19l-1.06-8.61c-.22-1.69.23-3.12,1.34-4.29,1.11-1.17,2.54-1.75,4.27-1.75s3.16.54,4.32,1.62c1.17,1.08,1.86,2.49,2.08,4.22l1.06,8.62c.22,1.67-.23,3.09-1.34,4.26-1.11,1.17-2.54,1.75-4.27,1.75s-3.16-.54-4.32-1.62Zm6.06-2.38c.45-.51.63-1.14.54-1.91l-1.06-8.61c-.11-.79-.45-1.44-1.01-1.95-.56-.51-1.23-.76-2-.76s-1.38.25-1.82.76c-.44.51-.62,1.15-.53,1.95l1.06,8.61c.11.77.45,1.41,1.01,1.91.56.51,1.23.76,2,.76s1.35-.25,1.8-.76Z"/>
    <path class="cls-12" d="m258.67,832.29c-1.17-1.08-1.86-2.47-2.08-4.19l-1.02-8.61c-.22-1.69.23-3.12,1.34-4.29,1.11-1.17,2.54-1.75,4.27-1.75s3.16.54,4.32,1.62c1.17,1.08,1.86,2.49,2.08,4.22l.17,1.22h-3.33l-.17-1.12c-.11-.79-.45-1.44-1.01-1.95-.56-.51-1.23-.76-2-.76s-1.38.25-1.82.76-.62,1.15-.53,1.95l1.06,8.61c.11.77.45,1.41,1.01,1.91.56.51,1.23.76,2,.76s1.35-.25,1.8-.76c.45-.51.63-1.14.54-1.91l-.13-1.12h3.33l.13,1.02c.22,1.67-.23,3.09-1.34,4.26-1.11,1.17-2.54,1.75-4.27,1.75s-3.19-.54-4.36-1.62Z"/>
    <path class="cls-12" d="m270.76,819.48c-.22-1.69.23-3.12,1.34-4.29,1.11-1.17,2.54-1.75,4.27-1.75s3.16.54,4.32,1.62c1.17,1.08,1.86,2.49,2.08,4.22l1.78,14.29h-3.37l-1.75-14.19c-.11-.79-.45-1.44-1.01-1.95-.56-.51-1.23-.76-2-.76s-1.38.25-1.82.76c-.44.51-.62,1.15-.53,1.95l1.75,14.19h-3.37l-1.72-14.09Z"/>
    <path class="cls-12" d="m285.73,811.43c-.44-.42-.66-.95-.66-1.58,0-.51.17-.93.5-1.27.33-.34.75-.51,1.25-.51.64,0,1.18.21,1.62.63.44.42.66.95.66,1.58,0,.53-.17.96-.5,1.29s-.75.5-1.25.5c-.64,0-1.18-.21-1.62-.63Zm.1,2.34h3.37l2.44,19.8h-3.37l-2.44-19.8Z"/>
    <path class="cls-12" d="m296.87,832.29c-1.17-1.08-1.86-2.47-2.08-4.19l-1.02-8.61c-.22-1.69.23-3.12,1.34-4.29,1.11-1.17,2.54-1.75,4.27-1.75s3.16.54,4.32,1.62c1.17,1.08,1.86,2.49,2.08,4.22l.17,1.22h-3.33l-.17-1.12c-.11-.79-.45-1.44-1.01-1.95-.56-.51-1.23-.76-2-.76s-1.38.25-1.82.76-.62,1.15-.53,1.95l1.06,8.61c.11.77.45,1.41,1.01,1.91.56.51,1.23.76,2,.76s1.35-.25,1.8-.76c.45-.51.63-1.14.54-1.91l-.13-1.12h3.33l.13,1.02c.22,1.67-.23,3.09-1.34,4.26-1.11,1.17-2.54,1.75-4.27,1.75s-3.19-.54-4.36-1.62Z"/>
    <path class="cls-12" d="m311.97,832.29c-1.17-1.08-1.86-2.47-2.08-4.19l-1.02-8.61c-.22-1.69.23-3.12,1.34-4.29,1.11-1.17,2.54-1.75,4.27-1.75s3.16.54,4.32,1.62c1.17,1.08,1.86,2.49,2.08,4.22l.73,5.78h-8.68l.33,2.94c.11.77.45,1.41,1.01,1.91.56.51,1.23.76,2,.76s1.35-.25,1.8-.76c.45-.51.63-1.14.54-1.91l-.1-.92h3.33l.1.83c.22,1.67-.23,3.09-1.34,4.26-1.11,1.17-2.54,1.75-4.27,1.75s-3.19-.54-4.36-1.62Zm5.94-10l-.36-2.9c-.11-.79-.45-1.44-1.01-1.95-.56-.51-1.23-.76-2-.76s-1.38.25-1.82.76c-.44.51-.62,1.15-.53,1.95l.36,2.9h5.35Z"/>
    <path class="cls-12" d="m130.4,844.81h-4.79l-.43-3.37h13.14l.4,3.37h-4.82l2.44,19.74h-3.5l-2.44-19.74Z"/>
    <path class="cls-12" d="m143.03,863.26c-1.17-1.08-1.86-2.47-2.08-4.19l-1.06-8.61c-.22-1.69.23-3.12,1.34-4.29,1.11-1.17,2.54-1.75,4.27-1.75s3.16.54,4.32,1.62c1.17,1.08,1.86,2.49,2.08,4.22l1.06,8.62c.22,1.67-.23,3.09-1.34,4.26-1.11,1.17-2.54,1.75-4.27,1.75s-3.16-.54-4.32-1.62Zm6.06-2.38c.45-.51.63-1.14.54-1.91l-1.06-8.61c-.11-.79-.45-1.44-1.01-1.95-.56-.51-1.23-.76-2-.76s-1.38.25-1.82.76-.62,1.15-.53,1.95l1.06,8.61c.11.77.45,1.41,1.01,1.91.56.51,1.23.76,2,.76s1.35-.25,1.8-.76Z"/>
    <path class="cls-12" d="m155.43,850.45c-.22-1.69.23-3.12,1.34-4.29,1.11-1.17,2.54-1.75,4.27-1.75s3.29.62,4.46,1.85c.99-1.23,2.4-1.85,4.22-1.85,1.72,0,3.17.54,4.36,1.62s1.89,2.49,2.11,4.22l1.75,14.29h-3.37l-1.75-14.19c-.11-.79-.45-1.44-1.01-1.95-.56-.51-1.23-.76-2-.76s-1.41.25-1.85.76c-.44.51-.6,1.15-.5,1.95l1.75,14.19h-3.37l-1.75-14.19c-.11-.79-.45-1.44-1.01-1.95-.56-.51-1.23-.76-2-.76s-1.38.25-1.82.76-.62,1.15-.53,1.95l1.75,14.19h-3.37l-1.72-14.09Z"/>
    <path class="cls-12" d="m182.4,863.08c-1.22-1.2-1.83-2.73-1.83-4.6,0-1.41.51-2.61,1.53-3.6s2.26-1.49,3.71-1.49c1.1,0,2.07.25,2.9.76l-.46-3.79c-.11-.79-.45-1.44-1.01-1.95-.56-.51-1.23-.76-2-.76s-1.38.25-1.82.76c-.44.51-.62,1.15-.53,1.95l.17,1.12h-3.37l-.13-1.02c-.22-1.69.23-3.12,1.34-4.29,1.11-1.17,2.54-1.75,4.27-1.75s3.16.54,4.32,1.62c1.17,1.08,1.86,2.49,2.08,4.22l1.09,8.62c.22,1.67-.23,3.09-1.35,4.26-1.12,1.17-2.55,1.75-4.29,1.75-1.87,0-3.42-.6-4.64-1.8Zm2.26-24.44h3.93l-3.4,4.69h-2.97l2.44-4.69Zm4.04,22.34c.43-.44.64-.99.64-1.65,0-.88-.29-1.61-.88-2.19s-1.3-.87-2.16-.87c-.7,0-1.27.22-1.7.68-.43.45-.64,1.01-.64,1.67,0,.9.3,1.63.89,2.19.59.56,1.3.84,2.11.84.73,0,1.3-.22,1.73-.66Z"/>
    <path class="cls-12" d="m193.55,838.64h3.53l2.28,2.77,1.65-2.77h3.23l-2.74,4.69h-4.09l-3.86-4.69Zm5.21,19.24l.13,1.09c.11.79.44,1.44.99,1.93.55.5,1.21.74,1.98.74.7,0,1.28-.22,1.72-.66.44-.44.66-1.01.66-1.72,0-.92-.33-1.66-.99-2.21-.42-.33-1.02-.55-1.8-.66-.78-.11-1.61-.29-2.48-.53s-1.64-.66-2.33-1.25c-1.47-1.21-2.21-2.82-2.21-4.82,0-1.52.54-2.79,1.62-3.83s2.42-1.55,4.03-1.55c1.72,0,3.16.54,4.34,1.63,1.18,1.09,1.88,2.49,2.1,4.21l.17,1.16h-3.37l-.17-1.06c-.09-.79-.41-1.44-.97-1.95-.56-.51-1.23-.76-2-.76-.7,0-1.28.22-1.72.66s-.66,1.01-.66,1.72c0,.95.33,1.68.99,2.21.44.38,1.44.69,2.99.94,1.55.25,2.77.76,3.65,1.53,1.47,1.28,2.21,2.88,2.21,4.82,0,1.5-.55,2.76-1.65,3.79-1.1,1.03-2.45,1.55-4.06,1.55-1.72,0-3.16-.54-4.32-1.62s-1.86-2.47-2.08-4.19l-.13-1.19h3.37Z"/>
    <path class="cls-12" d="m212.58,863.26c-1.17-1.08-1.86-2.47-2.08-4.19l-1.02-8.61c-.22-1.69.23-3.12,1.34-4.29,1.11-1.17,2.54-1.75,4.27-1.75s3.16.54,4.32,1.62c1.17,1.08,1.86,2.49,2.08,4.22l.73,5.78h-8.68l.33,2.94c.11.77.45,1.41,1.01,1.91.56.51,1.23.76,2,.76s1.35-.25,1.8-.76c.45-.51.63-1.14.54-1.91l-.1-.92h3.33l.1.83c.22,1.67-.23,3.09-1.34,4.26-1.11,1.17-2.54,1.75-4.27,1.75s-3.19-.54-4.36-1.62Zm5.94-10l-.36-2.9c-.11-.79-.45-1.44-1.01-1.95-.56-.51-1.23-.76-2-.76s-1.38.25-1.82.76c-.44.51-.62,1.15-.53,1.95l.36,2.9h5.35Z"/>
    <path class="cls-12" d="m230.53,841.44h7.56c2.02,0,3.69.66,4.98,1.96,1.3,1.31,1.95,2.95,1.95,4.93s-.74,3.42-2.21,4.46c2.33,1.25,3.5,3.26,3.5,6.01,0,1.58-.56,2.94-1.68,4.06-1.12,1.12-2.62,1.68-4.49,1.68h-6.77l-2.84-23.1Zm8.15,9.87c.88,0,1.57-.26,2.08-.79s.76-1.2.76-2.01c0-1.06-.35-1.94-1.06-2.64-.7-.71-1.56-1.06-2.57-1.06h-3.43l.79,6.5h3.43Zm1.25,9.87c.9,0,1.6-.26,2.1-.79.5-.53.74-1.2.74-2.01,0-1.08-.36-1.96-1.07-2.66-.71-.69-1.57-1.04-2.56-1.04h-3.5l.83,6.5h3.46Z"/>
    <path class="cls-12" d="m251.02,863.08c-1.22-1.2-1.83-2.73-1.83-4.6,0-1.41.51-2.61,1.53-3.6s2.26-1.49,3.71-1.49c1.1,0,2.07.25,2.9.76l-.46-3.79c-.11-.79-.45-1.44-1.01-1.95-.56-.51-1.23-.76-2-.76s-1.38.25-1.82.76c-.44.51-.62,1.15-.53,1.95l.17,1.12h-3.37l-.13-1.02c-.22-1.69.23-3.12,1.34-4.29,1.11-1.17,2.54-1.75,4.27-1.75s3.16.54,4.32,1.62c1.17,1.08,1.86,2.49,2.08,4.22l1.09,8.62c.22,1.67-.23,3.09-1.35,4.26-1.12,1.17-2.55,1.75-4.29,1.75-1.87,0-3.42-.6-4.64-1.8Zm6.3-2.1c.43-.44.64-.99.64-1.65,0-.88-.29-1.61-.88-2.19s-1.3-.87-2.16-.87c-.7,0-1.27.22-1.7.68-.43.45-.64,1.01-.64,1.67,0,.9.3,1.63.89,2.19.59.56,1.3.84,2.11.84.73,0,1.3-.22,1.73-.66Z"/>
    <path class="cls-12" d="m271.07,864.54c-1.74,0-3.2-.52-4.39-1.55-1.19-1.03-1.87-2.4-2.05-4.09l-2.18-17.46h3.37l.4,3.3h4.69l.4,3.23h-4.65l1.29,10.66c.11.77.45,1.41,1.01,1.91.56.51,1.23.76,2,.76h2.01l.4,3.23h-2.28Z"/>
    <path class="cls-12" d="m273.06,842.4c-.44-.42-.66-.95-.66-1.58,0-.51.17-.93.5-1.27.33-.34.75-.51,1.25-.51.64,0,1.18.21,1.62.63.44.42.66.95.66,1.58,0,.53-.17.96-.5,1.29s-.75.5-1.25.5c-.64,0-1.18-.21-1.62-.63Zm.1,2.34h3.37l2.44,19.8h-3.37l-2.44-19.8Z"/>
  </g>
  <path class="cls-22" d="m433,335.5s95.5-137.5-28.11-201.45"/>
  <rect class="cls-2" x="251.82" y="43.5" width="335.18" height="100"/>
  <g>
    <path class="cls-12" d="m284.59,82.72l.12.87c.12.89.48,1.61,1.1,2.18.62.56,1.36.84,2.23.84.81,0,1.46-.24,1.94-.71.48-.47.73-1.12.73-1.93,0-1.06-.38-1.9-1.13-2.52-.43-.35-1.06-.59-1.9-.73s-1.72-.32-2.64-.55c-.92-.23-1.71-.63-2.36-1.19-1.47-1.3-2.2-2.94-2.2-4.93,0-1.55.53-2.83,1.6-3.84,1.06-1.02,2.43-1.52,4.09-1.52s3.18.54,4.38,1.62c1.2,1.08,1.9,2.49,2.09,4.24l.15.99h-3.08l-.15-.9c-.1-.87-.46-1.59-1.09-2.15-.63-.56-1.38-.84-2.25-.84-.81,0-1.46.24-1.94.71-.48.47-.73,1.12-.73,1.93,0,1.04.39,1.88,1.16,2.49.43.35,1.05.59,1.89.74s1.71.33,2.62.57,1.71.63,2.36,1.19c1.47,1.24,2.2,2.87,2.2,4.9,0,1.57-.53,2.86-1.58,3.87-1.05,1.02-2.41,1.52-4.08,1.52-1.76,0-3.23-.54-4.42-1.62s-1.88-2.49-2.07-4.23l-.12-.99h3.07Z"/>
    <path class="cls-12" d="m298.31,88.15c-1.02-.95-1.63-2.18-1.83-3.68l-.93-7.57c-.19-1.49.2-2.75,1.17-3.77s2.23-1.54,3.76-1.54,2.77.47,3.8,1.42,1.63,2.19,1.83,3.71l.93,7.57c.19,1.47-.2,2.72-1.17,3.74-.98,1.02-2.23,1.54-3.76,1.54s-2.78-.47-3.8-1.42Zm5.32-2.09c.4-.44.56-1.01.48-1.68l-.93-7.57c-.1-.7-.39-1.27-.88-1.71s-1.08-.67-1.75-.67-1.21.22-1.6.67-.54,1.02-.46,1.71l.93,7.57c.1.68.39,1.24.88,1.68s1.08.67,1.75.67,1.18-.22,1.58-.67Z"/>
    <path class="cls-12" d="m311.95,88.15c-1.04-.95-1.66-2.18-1.86-3.68l-1.57-12.59h2.96l1.54,12.47c.1.7.39,1.27.88,1.71s1.08.67,1.75.67,1.24-.22,1.62-.67.53-1.02.44-1.71l-1.54-12.47h2.96l1.51,12.39c.19,1.49-.19,2.75-1.15,3.77-.96,1.02-2.2,1.54-3.73,1.54s-2.78-.47-3.83-1.42Z"/>
    <path class="cls-12" d="m329.51,89.28c-1.53,0-2.81-.45-3.86-1.36-1.04-.91-1.64-2.11-1.8-3.6l-1.91-15.34h2.96l.35,2.9h4.12l.35,2.84h-4.09l1.13,9.37c.1.68.39,1.24.88,1.68s1.08.67,1.75.67h1.77l.35,2.84h-2Z"/>
    <path class="cls-12" d="m330.93,66.51h3.1l2,2.44,1.45-2.44h2.84l-2.41,4.12h-3.6l-3.39-4.12Zm3.45,21.64c-1.02-.95-1.63-2.18-1.83-3.68l-.9-7.57c-.19-1.49.2-2.75,1.17-3.77s2.23-1.54,3.76-1.54,2.77.47,3.8,1.42,1.63,2.19,1.83,3.71l.64,5.08h-7.63l.29,2.58c.1.68.39,1.24.88,1.68s1.08.67,1.75.67,1.18-.22,1.58-.67.56-1.01.48-1.68l-.09-.81h2.93l.09.73c.19,1.47-.2,2.72-1.17,3.74-.98,1.02-2.23,1.54-3.76,1.54s-2.8-.47-3.83-1.42Zm5.22-8.79l-.32-2.55c-.1-.7-.39-1.27-.88-1.71s-1.08-.67-1.75-.67-1.21.22-1.6.67-.54,1.02-.46,1.71l.32,2.55h4.7Z"/>
    <path class="cls-12" d="m343.15,66.51h3.1l2,2.44,1.45-2.44h2.84l-2.41,4.12h-3.6l-3.39-4.12Zm2.15,19.93l5.48-11.72h-6.93l-.35-2.84h10.09l.35,2.84-5.48,11.72h6.93l.35,2.84h-10.09l-.35-2.84Z"/>
    <path class="cls-12" d="m365.48,88.15c-1.02-.95-1.63-2.18-1.83-3.68l-.93-7.57c-.19-1.49.2-2.75,1.17-3.77s2.23-1.54,3.76-1.54,2.77.47,3.8,1.42,1.63,2.19,1.83,3.71l.93,7.57c.19,1.47-.2,2.72-1.17,3.74-.98,1.02-2.23,1.54-3.76,1.54s-2.78-.47-3.8-1.42Zm5.32-2.09c.4-.44.56-1.01.48-1.68l-.93-7.57c-.1-.7-.39-1.27-.88-1.71s-1.08-.67-1.75-.67-1.21.22-1.6.67-.54,1.02-.46,1.71l.93,7.57c.1.68.39,1.24.88,1.68s1.08.67,1.75.67,1.18-.22,1.58-.67Z"/>
    <path class="cls-12" d="m381.19,68.98h3.07l1.28,10.36,1.22,9.95h-3.07l-2.49-20.3Zm4.35,10.36l4.7-10.36h3.02l-4.53,9.89,7.22,10.41h-3.68l-6.73-9.95Z"/>
    <path class="cls-12" d="m396.15,77.04c-.19-1.49.19-2.77,1.16-3.84s2.2-1.61,3.71-1.61h1.54l.35,2.84h-1.77c-.68,0-1.21.22-1.6.67s-.54,1.02-.46,1.71l1.54,12.47h-2.96l-1.51-12.24Z"/>
    <path class="cls-12" d="m407.34,87.99c-1.07-1.05-1.61-2.4-1.61-4.05,0-1.24.45-2.29,1.35-3.16.9-.87,1.99-1.31,3.26-1.31.97,0,1.82.22,2.55.67l-.41-3.34c-.1-.7-.39-1.27-.88-1.71s-1.08-.67-1.75-.67-1.21.22-1.6.67-.54,1.02-.46,1.71l.15.99h-2.96l-.12-.9c-.19-1.49.2-2.75,1.17-3.77s2.23-1.54,3.76-1.54,2.77.47,3.8,1.42,1.63,2.19,1.83,3.71l.96,7.57c.19,1.47-.2,2.72-1.19,3.74-.99,1.02-2.24,1.54-3.77,1.54-1.64,0-3-.53-4.08-1.58Zm1.99-21.48h3.45l-2.99,4.12h-2.61l2.15-4.12Zm3.55,19.64c.38-.39.57-.87.57-1.45,0-.77-.26-1.42-.77-1.93-.51-.51-1.15-.77-1.9-.77-.62,0-1.12.2-1.49.59s-.57.88-.57,1.46c0,.79.26,1.44.78,1.93.52.49,1.14.74,1.86.74.64,0,1.15-.19,1.52-.58Z"/>
    <path class="cls-12" d="m417.26,66.07h2.96l2.84,23.21h-2.96l-2.84-23.21Z"/>
    <path class="cls-12" d="m427.69,88.15c-1.02-.95-1.63-2.18-1.83-3.68l-.9-7.57c-.19-1.49.2-2.75,1.17-3.77s2.23-1.54,3.76-1.54,2.77.47,3.8,1.42,1.63,2.19,1.83,3.71l.64,5.08h-7.63l.29,2.58c.1.68.39,1.24.88,1.68s1.08.67,1.75.67,1.18-.22,1.58-.67.56-1.01.48-1.68l-.09-.81h2.93l.09.73c.19,1.47-.2,2.72-1.17,3.74-.98,1.02-2.23,1.54-3.76,1.54s-2.8-.47-3.83-1.42Zm5.22-8.79l-.32-2.55c-.1-.7-.39-1.27-.88-1.71s-1.08-.67-1.75-.67-1.21.22-1.6.67-.54,1.02-.46,1.71l.32,2.55h4.7Z"/>
    <path class="cls-12" d="m447.02,87.99c-1.07-1.05-1.61-2.4-1.61-4.05,0-1.24.45-2.29,1.35-3.16.9-.87,1.99-1.31,3.26-1.31.97,0,1.82.22,2.55.67l-.41-3.34c-.1-.7-.39-1.27-.88-1.71s-1.08-.67-1.75-.67-1.21.22-1.6.67-.54,1.02-.46,1.71l.15.99h-2.96l-.12-.9c-.19-1.49.2-2.75,1.17-3.77s2.23-1.54,3.76-1.54,2.77.47,3.8,1.42,1.63,2.19,1.83,3.71l.96,7.57c.19,1.47-.2,2.72-1.19,3.74-.99,1.02-2.24,1.54-3.77,1.54-1.64,0-3-.53-4.08-1.58Zm5.54-1.84c.38-.39.57-.87.57-1.45,0-.77-.26-1.42-.77-1.93-.51-.51-1.15-.77-1.9-.77-.62,0-1.12.2-1.49.59s-.57.88-.57,1.46c0,.79.26,1.44.78,1.93.52.49,1.14.74,1.86.74.64,0,1.15-.19,1.52-.58Z"/>
    <path class="cls-12" d="m463.01,68.98h3.07l1.28,10.36,1.22,9.95h-3.07l-2.49-20.3Zm4.35,10.36l4.7-10.36h3.02l-4.53,9.89,7.22,10.41h-3.68l-6.73-9.95Z"/>
    <path class="cls-12" d="m477.96,77.04c-.19-1.49.19-2.77,1.16-3.84s2.2-1.61,3.71-1.61h1.54l.35,2.84h-1.77c-.68,0-1.21.22-1.6.67s-.54,1.02-.46,1.71l1.54,12.47h-2.96l-1.51-12.24Z"/>
    <path class="cls-12" d="m489.15,87.99c-1.07-1.05-1.61-2.4-1.61-4.05,0-1.24.45-2.29,1.35-3.16.9-.87,1.99-1.31,3.26-1.31.97,0,1.82.22,2.55.67l-.41-3.34c-.1-.7-.39-1.27-.88-1.71s-1.08-.67-1.75-.67-1.21.22-1.6.67-.54,1.02-.46,1.71l.15.99h-2.96l-.12-.9c-.19-1.49.2-2.75,1.17-3.77s2.23-1.54,3.76-1.54,2.77.47,3.8,1.42,1.63,2.19,1.83,3.71l.96,7.57c.19,1.47-.2,2.72-1.19,3.74-.99,1.02-2.24,1.54-3.77,1.54-1.64,0-3-.53-4.08-1.58Zm1.99-21.48h3.45l-2.99,4.12h-2.61l2.15-4.12Zm3.55,19.64c.38-.39.57-.87.57-1.45,0-.77-.26-1.42-.77-1.93-.51-.51-1.15-.77-1.9-.77-.62,0-1.12.2-1.49.59s-.57.88-.57,1.46c0,.79.26,1.44.78,1.93.52.49,1.14.74,1.86.74.64,0,1.15-.19,1.52-.58Z"/>
    <path class="cls-12" d="m499.07,66.07h2.96l2.84,23.21h-2.96l-2.84-23.21Z"/>
    <path class="cls-12" d="m509.53,88.15c-1.02-.95-1.63-2.18-1.83-3.68l-.93-7.57c-.19-1.49.2-2.75,1.17-3.77s2.23-1.54,3.76-1.54,2.77.47,3.8,1.42,1.63,2.19,1.83,3.71l.93,7.57c.19,1.47-.2,2.72-1.17,3.74-.98,1.02-2.23,1.54-3.76,1.54s-2.78-.47-3.8-1.42Zm5.32-2.09c.4-.44.56-1.01.48-1.68l-.93-7.57c-.1-.7-.39-1.27-.88-1.71s-1.08-.67-1.75-.67-1.21.22-1.6.67-.54,1.02-.46,1.71l.93,7.57c.1.68.39,1.24.88,1.68s1.08.67,1.75.67,1.18-.22,1.58-.67Z"/>
    <path class="cls-12" d="m518.05,71.88h3.13l4.64,12.47,1.57-12.47h2.84l-2.41,17.4h-3.07l-6.7-17.4Z"/>
    <path class="cls-12" d="m532.52,76.89c-.19-1.49.2-2.75,1.17-3.77s2.23-1.54,3.76-1.54,2.77.47,3.8,1.42c1.02.95,1.63,2.19,1.83,3.71l1.57,12.56h-2.96l-1.54-12.47c-.1-.7-.39-1.27-.88-1.71s-1.08-.67-1.75-.67-1.21.22-1.6.67-.54,1.02-.46,1.71l1.54,12.47h-2.96l-1.51-12.39Z"/>
    <path class="cls-12" d="m548.95,88.15c-1.04-.95-1.66-2.18-1.86-3.68l-1.57-12.59h2.96l1.54,12.47c.1.7.39,1.27.88,1.71s1.08.67,1.75.67,1.24-.22,1.62-.67.53-1.02.43-1.71l-1.54-12.47h2.96l1.51,12.39c.19,1.49-.19,2.75-1.15,3.77-.96,1.02-2.2,1.54-3.73,1.54s-2.78-.47-3.83-1.42Z"/>
    <path class="cls-12" d="m317.59,95.98h6.29c2.01,0,3.65.61,4.9,1.84,1.26,1.23,1.89,2.83,1.89,4.8,0,1.62-.57,2.97-1.7,4.05-1.13,1.07-2.58,1.61-4.34,1.61h-2.47l.99,8.01h-3.07l-2.49-20.3Zm7.14,9.34c.87,0,1.57-.26,2.09-.77.52-.51.78-1.18.78-2.02,0-1.02-.33-1.88-.99-2.57-.66-.69-1.49-1.03-2.49-1.03h-3.07l.78,6.38h2.9Z"/>
    <path class="cls-12" d="m332.63,104.04c-.19-1.49.19-2.77,1.16-3.84s2.2-1.61,3.71-1.61h1.54l.35,2.84h-1.77c-.68,0-1.21.22-1.6.67s-.54,1.02-.46,1.71l1.54,12.47h-2.96l-1.51-12.24Z"/>
    <path class="cls-12" d="m340.86,96.82c-.39-.37-.58-.83-.58-1.39,0-.44.15-.82.44-1.12s.66-.45,1.1-.45c.56,0,1.03.18,1.42.55.39.37.58.83.58,1.39,0,.46-.15.84-.44,1.13s-.66.44-1.1.44c-.56,0-1.03-.18-1.42-.55Zm.09,2.06h2.96l2.15,17.4h-2.96l-2.15-17.4Z"/>
    <path class="cls-12" d="m348.03,103.89c-.19-1.49.2-2.75,1.17-3.77s2.23-1.54,3.76-1.54,2.77.47,3.8,1.42,1.63,2.19,1.83,3.71l1.57,12.56h-2.96l-1.54-12.47c-.1-.7-.39-1.27-.88-1.71s-1.08-.67-1.75-.67-1.21.22-1.6.67-.54,1.02-.46,1.71l1.54,12.47h-2.96l-1.51-12.39Z"/>
    <path class="cls-12" d="m364.49,115.15c-1.02-.95-1.63-2.18-1.83-3.68l-.9-7.57c-.19-1.49.2-2.75,1.17-3.77s2.23-1.54,3.76-1.54,2.77.47,3.8,1.42,1.63,2.19,1.83,3.71l.15,1.07h-2.93l-.15-.99c-.1-.7-.39-1.27-.88-1.71s-1.08-.67-1.75-.67-1.21.22-1.6.67-.54,1.02-.46,1.71l.93,7.57c.1.68.39,1.24.88,1.68s1.08.67,1.75.67,1.18-.22,1.58-.67.56-1.01.48-1.68l-.12-.99h2.93l.12.9c.19,1.47-.2,2.72-1.17,3.74-.98,1.02-2.23,1.54-3.76,1.54s-2.8-.47-3.83-1.42Z"/>
    <path class="cls-12" d="m377.8,115.15c-1.02-.95-1.63-2.18-1.83-3.68l-.9-7.57c-.19-1.49.2-2.75,1.17-3.77s2.23-1.54,3.76-1.54,2.77.47,3.8,1.42,1.63,2.19,1.83,3.71l.64,5.08h-7.63l.29,2.58c.1.68.39,1.24.88,1.68s1.08.67,1.75.67,1.18-.22,1.58-.67.56-1.01.48-1.68l-.09-.81h2.93l.09.73c.19,1.47-.2,2.72-1.17,3.74-.98,1.02-2.23,1.54-3.76,1.54s-2.8-.47-3.83-1.42Zm5.22-8.79l-.32-2.55c-.1-.7-.39-1.27-.88-1.71s-1.08-.67-1.75-.67-1.21.22-1.6.67-.54,1.02-.46,1.71l.32,2.55h4.7Z"/>
    <path class="cls-12" d="m397.12,114.99c-1.07-1.05-1.61-2.4-1.61-4.05,0-1.24.45-2.29,1.35-3.16.9-.87,1.99-1.31,3.26-1.31.97,0,1.82.22,2.55.67l-.41-3.34c-.1-.7-.39-1.27-.88-1.71s-1.08-.67-1.75-.67-1.21.22-1.6.67-.54,1.02-.46,1.71l.15.99h-2.96l-.12-.9c-.19-1.49.2-2.75,1.17-3.77s2.23-1.54,3.76-1.54,2.77.47,3.8,1.42,1.63,2.19,1.83,3.71l.96,7.57c.19,1.47-.2,2.72-1.19,3.74-.99,1.02-2.24,1.54-3.77,1.54-1.64,0-3-.53-4.08-1.58Zm5.54-1.84c.38-.39.57-.87.57-1.45,0-.77-.26-1.42-.77-1.93-.51-.51-1.15-.77-1.9-.77-.62,0-1.12.2-1.49.59s-.57.88-.57,1.46c0,.79.26,1.44.78,1.93.52.49,1.14.74,1.86.74.64,0,1.15-.19,1.52-.58Z"/>
    <path class="cls-12" d="m413.12,95.98h6.29c2.01,0,3.65.61,4.9,1.84,1.26,1.23,1.89,2.83,1.89,4.8,0,1.62-.57,2.97-1.7,4.05-1.13,1.07-2.58,1.61-4.34,1.61h-2.47l.99,8.01h-3.07l-2.49-20.3Zm7.14,9.34c.87,0,1.57-.26,2.09-.77.52-.51.78-1.18.78-2.02,0-1.02-.33-1.88-.99-2.57-.66-.69-1.49-1.03-2.49-1.03h-3.07l.78,6.38h2.9Z"/>
    <path class="cls-12" d="m428.16,104.04c-.19-1.49.19-2.77,1.16-3.84s2.2-1.61,3.71-1.61h1.54l.35,2.84h-1.77c-.68,0-1.21.22-1.6.67s-.54,1.02-.46,1.71l1.54,12.47h-2.96l-1.51-12.24Z"/>
    <path class="cls-12" d="m436.39,96.82c-.39-.37-.58-.83-.58-1.39,0-.44.15-.82.44-1.12s.66-.45,1.1-.45c.56,0,1.03.18,1.42.55.39.37.58.83.58,1.39,0,.46-.15.84-.44,1.13s-.66.44-1.1.44c-.56,0-1.03-.18-1.42-.55Zm.09,2.06h2.96l2.15,17.4h-2.96l-2.15-17.4Z"/>
    <path class="cls-12" d="m443.56,103.89c-.19-1.49.2-2.75,1.17-3.77s2.23-1.54,3.76-1.54,2.77.47,3.8,1.42,1.63,2.19,1.83,3.71l1.57,12.56h-2.96l-1.54-12.47c-.1-.7-.39-1.27-.88-1.71s-1.08-.67-1.75-.67-1.21.22-1.6.67-.54,1.02-.46,1.71l1.54,12.47h-2.96l-1.51-12.39Z"/>
    <path class="cls-12" d="m460.02,115.15c-1.02-.95-1.63-2.18-1.83-3.68l-.9-7.57c-.19-1.49.2-2.75,1.17-3.77s2.23-1.54,3.76-1.54,2.77.47,3.8,1.42,1.63,2.19,1.83,3.71l.15,1.07h-2.93l-.15-.99c-.1-.7-.39-1.27-.88-1.71s-1.08-.67-1.75-.67-1.21.22-1.6.67-.54,1.02-.46,1.71l.93,7.57c.1.68.39,1.24.88,1.68s1.08.67,1.75.67,1.18-.22,1.58-.67.56-1.01.48-1.68l-.12-.99h2.93l.12.9c.19,1.47-.2,2.72-1.17,3.74-.98,1.02-2.23,1.54-3.76,1.54s-2.8-.47-3.83-1.42Z"/>
    <path class="cls-12" d="m473.33,115.15c-1.02-.95-1.63-2.18-1.83-3.68l-.9-7.57c-.19-1.49.2-2.75,1.17-3.77s2.23-1.54,3.76-1.54,2.77.47,3.8,1.42,1.63,2.19,1.83,3.71l.64,5.08h-7.63l.29,2.58c.1.68.39,1.24.88,1.68s1.08.67,1.75.67,1.18-.22,1.58-.67.56-1.01.48-1.68l-.09-.81h2.93l.09.73c.19,1.47-.2,2.72-1.17,3.74-.98,1.02-2.23,1.54-3.76,1.54s-2.8-.47-3.83-1.42Zm5.22-8.79l-.32-2.55c-.1-.7-.39-1.27-.88-1.71s-1.08-.67-1.75-.67-1.21.22-1.6.67-.54,1.02-.46,1.71l.32,2.55h4.7Z"/>
    <path class="cls-12" d="m484.3,113.44l5.48-11.72h-6.93l-.35-2.84h10.09l.35,2.84-5.48,11.72h6.93l.35,2.84h-10.09l-.35-2.84Z"/>
    <path class="cls-12" d="m495.43,103.89c-.19-1.49.2-2.75,1.17-3.77s2.23-1.54,3.76-1.54,2.77.47,3.8,1.42,1.63,2.19,1.83,3.71l1.57,12.56h-2.96l-1.54-12.47c-.1-.7-.39-1.27-.88-1.71s-1.08-.67-1.75-.67-1.21.22-1.6.67-.54,1.02-.46,1.71l1.54,12.47h-2.96l-1.51-12.39Z"/>
    <path class="cls-12" d="m511.87,115.15c-1.04-.95-1.66-2.18-1.86-3.68l-1.57-12.59h2.96l1.54,12.47c.1.7.39,1.27.88,1.71.49.44,1.08.67,1.75.67s1.24-.22,1.62-.67c.39-.44.53-1.02.44-1.71l-1.54-12.47h2.96l1.51,12.39c.19,1.49-.19,2.75-1.15,3.77-.96,1.02-2.2,1.54-3.73,1.54s-2.78-.47-3.83-1.42Z"/>
  </g>
  <path class="cls-17" d="m585.5,440s-40-134.43,98-180"/>
  <path class="cls-21" d="m683.5,444c12-26,112-126,214,20"/>
  <path class="cls-21" d="m723,608.5s49.32,86,129.66,68"/>
  <rect class="cls-6" x="798" y="458" width="243.5" height="82"/>
  <g>
    <path class="cls-12" d="m822.12,483.97h9c2.88,0,5.21.88,7.01,2.63,1.8,1.76,2.7,4.04,2.7,6.86,0,2.32-.81,4.25-2.43,5.79-1.62,1.53-3.69,2.3-6.2,2.3h-3.53l1.41,11.45h-4.4l-3.57-29.03Zm10.2,13.35c1.24,0,2.24-.37,2.99-1.1.75-.73,1.12-1.69,1.12-2.88,0-1.47-.47-2.69-1.41-3.67-.94-.98-2.13-1.47-3.57-1.47h-4.4l1.12,9.12h4.15Z"/>
    <path class="cls-12" d="m845.85,483.97h4.73l11.16,29.03h-4.81l-2.12-5.68h-8.05l-.71,5.68h-4.23l4.02-29.03Zm2.99-7.67h4.94l-4.27,5.89h-3.73l3.07-5.89Zm4.48,26.79l-4.52-12.07-1.58,12.07h6.1Z"/>
    <path class="cls-12" d="m866.74,501.55l1.41,11.45h-4.4l-3.57-29.03h9c2.88,0,5.21.88,7.01,2.63,1.8,1.76,2.7,4.04,2.7,6.86,0,1.96-.58,3.66-1.74,5.1-1.16,1.44-2.71,2.35-4.64,2.74l11.07,11.7h-6.05l-10.78-11.45Zm3.65-4.23c1.24,0,2.24-.37,2.99-1.1.75-.73,1.12-1.69,1.12-2.88,0-1.47-.47-2.69-1.41-3.67-.94-.98-2.13-1.47-3.57-1.47h-4.4l1.12,9.12h4.15Z"/>
    <path class="cls-12" d="m885.49,488.2h-6.01l-.54-4.23h16.51l.5,4.23h-6.05l3.07,24.8h-4.4l-3.07-24.8Z"/>
    <path class="cls-12" d="m905.26,499.56l-8.88-15.59h4.98l5.56,10.2,3.07-10.2h4.6l-4.94,15.59,1.62,13.44h-4.4l-1.62-13.44Z"/>
    <path class="cls-12" d="m931.38,503.62l.17,1.24c.17,1.27.69,2.31,1.58,3.11.88.8,1.95,1.2,3.19,1.2,1.16,0,2.09-.34,2.78-1.02.69-.68,1.04-1.6,1.04-2.76,0-1.52-.54-2.72-1.62-3.61-.61-.5-1.51-.84-2.71-1.04-1.2-.19-2.46-.46-3.78-.79-1.31-.33-2.44-.9-3.38-1.7-2.1-1.85-3.15-4.2-3.15-7.05,0-2.21.76-4.04,2.28-5.5,1.52-1.45,3.47-2.18,5.85-2.18s4.55.77,6.26,2.32,2.71,3.57,2.99,6.06l.21,1.41h-4.4l-.21-1.29c-.14-1.24-.66-2.27-1.55-3.07s-1.97-1.2-3.21-1.2c-1.16,0-2.09.34-2.78,1.02-.69.68-1.04,1.6-1.04,2.76,0,1.49.55,2.68,1.66,3.57.61.5,1.51.85,2.7,1.06,1.19.21,2.44.48,3.75.81,1.31.33,2.44.9,3.38,1.7,2.1,1.77,3.15,4.11,3.15,7.01,0,2.24-.75,4.08-2.26,5.54-1.51,1.45-3.45,2.18-5.83,2.18-2.52,0-4.62-.77-6.33-2.32-1.7-1.55-2.69-3.57-2.96-6.06l-.17-1.41h4.4Z"/>
    <path class="cls-12" d="m949.82,488.2h-6.01l-.54-4.23h16.51l.5,4.23h-6.05l3.07,24.8h-4.4l-3.07-24.8Z"/>
    <path class="cls-12" d="m965.61,483.97h4.73l11.16,29.03h-4.81l-2.12-5.68h-8.05l-.71,5.68h-4.23l4.02-29.03Zm7.46,19.12l-4.52-12.07-1.58,12.07h6.1Z"/>
    <path class="cls-12" d="m984.95,511.09c-1.71-1.55-2.71-3.57-2.99-6.06l-1.58-12.82c-.28-2.49.35-4.56,1.87-6.2s3.58-2.47,6.18-2.47c2.46,0,4.55.77,6.26,2.32,1.71,1.55,2.71,3.57,2.99,6.06l.21,1.41h-4.39l-.21-1.29c-.14-1.24-.66-2.27-1.55-3.07s-1.97-1.2-3.21-1.2-2.22.4-2.92,1.2-.97,1.82-.81,3.07l1.58,12.81c.17,1.27.69,2.31,1.58,3.11.88.8,1.95,1.2,3.19,1.2s2.22-.4,2.92-1.2c.71-.8.97-1.84.81-3.11l-.54-4.27h-4.06l-.5-4.23h8.46l1.04,8.38c.28,2.49-.35,4.56-1.87,6.2-1.52,1.65-3.57,2.47-6.14,2.47s-4.59-.77-6.3-2.32Z"/>
    <path class="cls-12" d="m1000.67,483.97h13.73l.54,4.23h-9.33l1,8.17h8.67l.5,4.23h-8.67l1.04,8.17h9.33l.5,4.23h-13.73l-3.57-29.03Z"/>
  </g>
  <rect class="cls-6" x="798" y="626.5" width="252.5" height="116.5"/>
  <g>
    <path class="cls-12" d="m823.15,677.17c-1.7-1.55-2.69-3.57-2.96-6.06l-2.57-21.07h4.39l2.57,20.9c.14,1.27.66,2.31,1.55,3.11.9.8,1.97,1.2,3.21,1.2s2.22-.4,2.92-1.2c.71-.8.97-1.84.81-3.11l-2.57-20.9h4.39l2.53,20.78c.33,2.49-.28,4.55-1.83,6.2-1.55,1.65-3.61,2.47-6.18,2.47s-4.58-.77-6.28-2.32Z"/>
    <path class="cls-12" d="m843.49,654.27h-6.01l-.54-4.23h16.51l.5,4.23h-6.05l3.07,24.8h-4.4l-3.07-24.8Z"/>
    <path class="cls-12" d="m855.52,650.04h9.5c2.54,0,4.63.82,6.26,2.47,1.63,1.64,2.45,3.71,2.45,6.2s-.93,4.3-2.78,5.6c2.93,1.58,4.4,4.09,4.4,7.55,0,1.99-.71,3.69-2.12,5.1s-3.29,2.12-5.64,2.12h-8.5l-3.57-29.03Zm10.24,12.4c1.11,0,1.98-.33,2.61-1,.63-.66.95-1.51.95-2.53,0-1.33-.44-2.43-1.33-3.32s-1.96-1.33-3.24-1.33h-4.31l1,8.17h4.31Zm1.58,12.4c1.13,0,2.01-.33,2.63-1,.62-.66.93-1.51.93-2.53,0-1.36-.45-2.47-1.35-3.34-.9-.87-1.97-1.31-3.21-1.31h-4.4l1.04,8.17h4.36Z"/>
    <path class="cls-12" d="m890.4,650.04h4.73l11.16,29.03h-4.81l-2.12-5.68h-8.04l-.71,5.68h-4.23l4.02-29.03Zm7.46,19.12l-4.52-12.07-1.58,12.07h6.1Z"/>
    <path class="cls-12" d="m918.27,654.27h-6.01l-.54-4.23h16.51l.5,4.23h-6.05l3.07,24.8h-4.4l-3.07-24.8Z"/>
    <path class="cls-12" d="m936.86,667.63l1.41,11.45h-4.4l-3.57-29.03h9c2.88,0,5.21.88,7.01,2.63s2.7,4.04,2.7,6.86c0,1.96-.58,3.66-1.74,5.1-1.16,1.44-2.71,2.35-4.64,2.74l11.07,11.7h-6.05l-10.78-11.45Zm3.65-4.23c1.24,0,2.24-.37,2.99-1.1s1.12-1.69,1.12-2.88c0-1.47-.47-2.69-1.41-3.67-.94-.98-2.13-1.47-3.57-1.47h-4.4l1.12,9.12h4.15Z"/>
    <path class="cls-12" d="m951.52,650.04h4.39l3.57,29.03h-4.4l-3.57-29.03Z"/>
    <path class="cls-12" d="m960.64,650.04h5.43l10.37,20.9-2.61-20.9h4.15l3.57,29.03h-5.43l-10.33-20.9,2.57,20.9h-4.15l-3.57-29.03Z"/>
    <path class="cls-12" d="m982.75,650.04h4.4l3.57,29.03h-4.4l-3.57-29.03Z"/>
    <path class="cls-12" d="m995.75,654.27h-6.01l-.54-4.23h16.51l.5,4.23h-6.05l3.07,24.8h-4.4l-3.07-24.8Z"/>
    <path class="cls-12" d="m1015.52,665.64l-8.88-15.59h4.98l5.56,10.2,3.07-10.2h4.6l-4.94,15.59,1.62,13.44h-4.4l-1.62-13.44Z"/>
    <path class="cls-12" d="m835.02,687.94h9.5c2.54,0,4.63.82,6.26,2.47,1.63,1.65,2.45,3.71,2.45,6.2s-.93,4.3-2.78,5.6c2.93,1.58,4.4,4.09,4.4,7.55,0,1.99-.71,3.69-2.12,5.1s-3.29,2.12-5.64,2.12h-8.5l-3.57-29.03Zm10.24,12.4c1.11,0,1.98-.33,2.61-1,.64-.66.96-1.51.96-2.53,0-1.33-.44-2.43-1.33-3.32s-1.96-1.33-3.23-1.33h-4.31l1,8.17h4.31Zm1.58,12.4c1.13,0,2.01-.33,2.63-1,.62-.66.93-1.51.93-2.53,0-1.36-.45-2.47-1.35-3.34-.9-.87-1.97-1.31-3.21-1.31h-4.4l1.04,8.17h4.35Z"/>
    <path class="cls-12" d="m860.7,687.94h4.73l11.16,29.03h-4.81l-2.12-5.68h-8.04l-.71,5.68h-4.23l4.02-29.03Zm7.46,19.12l-4.52-12.07-1.58,12.07h6.1Z"/>
    <path class="cls-12" d="m875.04,687.94h5.43l10.37,20.9-2.61-20.9h4.15l3.57,29.03h-5.43l-10.33-20.9,2.57,20.9h-4.15l-3.57-29.03Z"/>
    <path class="cls-12" d="m897.14,687.94h4.4l1.82,14.8,1.74,14.23h-4.4l-3.57-29.03Zm6.22,14.8l6.72-14.8h4.31l-6.47,14.14,10.33,14.89h-5.27l-9.62-14.23Z"/>
    <path class="cls-12" d="m931.61,707.59l.17,1.24c.17,1.27.69,2.31,1.58,3.11.88.8,1.95,1.2,3.19,1.2,1.16,0,2.09-.34,2.78-1.02s1.04-1.6,1.04-2.76c0-1.52-.54-2.72-1.62-3.61-.61-.5-1.51-.84-2.71-1.04-1.2-.19-2.46-.46-3.78-.79-1.31-.33-2.44-.9-3.38-1.7-2.1-1.85-3.15-4.2-3.15-7.05,0-2.21.76-4.04,2.28-5.5,1.52-1.45,3.47-2.18,5.85-2.18s4.55.78,6.26,2.32,2.71,3.57,2.99,6.06l.21,1.41h-4.4l-.21-1.29c-.14-1.25-.66-2.27-1.55-3.07s-1.97-1.2-3.21-1.2c-1.16,0-2.09.34-2.78,1.02-.69.68-1.04,1.6-1.04,2.76,0,1.49.55,2.68,1.66,3.57.61.5,1.51.85,2.7,1.06,1.19.21,2.44.48,3.75.81,1.31.33,2.44.9,3.38,1.7,2.1,1.77,3.15,4.11,3.15,7.01,0,2.24-.75,4.09-2.26,5.54-1.51,1.45-3.45,2.18-5.83,2.18-2.52,0-4.62-.77-6.33-2.32-1.7-1.55-2.69-3.57-2.96-6.05l-.17-1.41h4.4Z"/>
    <path class="cls-12" d="m950.04,692.17h-6.01l-.54-4.23h16.51l.5,4.23h-6.05l3.07,24.8h-4.4l-3.07-24.8Z"/>
    <path class="cls-12" d="m965.83,687.94h4.73l11.16,29.03h-4.81l-2.12-5.68h-8.05l-.71,5.68h-4.23l4.02-29.03Zm7.46,19.12l-4.52-12.07-1.58,12.07h6.1Z"/>
    <path class="cls-12" d="m985.17,715.06c-1.71-1.55-2.71-3.57-2.99-6.05l-1.58-12.82c-.28-2.49.35-4.55,1.87-6.2,1.52-1.65,3.58-2.47,6.18-2.47,2.46,0,4.55.78,6.26,2.32,1.71,1.55,2.71,3.57,2.99,6.06l.21,1.41h-4.39l-.21-1.29c-.14-1.25-.66-2.27-1.55-3.07s-1.97-1.2-3.21-1.2-2.22.4-2.92,1.2-.97,1.82-.81,3.07l1.58,12.82c.17,1.27.69,2.31,1.58,3.11.88.8,1.95,1.2,3.19,1.2s2.22-.4,2.92-1.2c.71-.8.97-1.84.81-3.11l-.54-4.27h-4.06l-.5-4.23h8.46l1.04,8.38c.28,2.49-.35,4.55-1.87,6.2-1.52,1.64-3.57,2.47-6.14,2.47s-4.59-.77-6.3-2.32Z"/>
    <path class="cls-12" d="m1000.89,687.94h13.73l.54,4.23h-9.33l1,8.17h8.67l.5,4.23h-8.67l1.04,8.17h9.33l.5,4.23h-13.73l-3.57-29.03Z"/>
  </g>
  <path class="cls-22" d="m568.38,658.05s-15.52,204.02,120.3,261.98"/>
  <rect class="cls-2" x="679.5" y="899" width="314.5" height="73"/>
  <g>
    <path class="cls-12" d="m707.07,944.79c-1.4-1.27-2.21-2.92-2.44-4.95l-1.29-10.48c-.23-2.04.28-3.72,1.53-5.07,1.24-1.34,2.93-2.02,5.05-2.02,2.01,0,3.72.63,5.12,1.9s2.21,2.92,2.44,4.95l.17,1.15h-3.59l-.17-1.05c-.11-1.02-.54-1.85-1.27-2.51-.74-.66-1.61-.98-2.63-.98s-1.81.33-2.39.98c-.58.65-.8,1.49-.66,2.51l1.29,10.48c.14,1.04.56,1.89,1.29,2.54.72.66,1.59.98,2.61.98s1.81-.33,2.39-.98c.58-.65.8-1.5.66-2.54l-.44-3.49h-3.32l-.41-3.46h6.92l.85,6.85c.23,2.04-.28,3.72-1.53,5.07-1.24,1.35-2.92,2.02-5.02,2.02s-3.75-.63-5.15-1.9Z"/>
    <path class="cls-12" d="m719.98,922.61h11.22l.44,3.46h-7.63l.81,6.68h7.09l.41,3.46h-7.09l.85,6.68h7.63l.41,3.46h-11.22l-2.92-23.73Z"/>
    <path class="cls-12" d="m734.11,922.61h4.44l8.48,17.09-2.14-17.09h3.39l2.92,23.73h-4.44l-8.44-17.09,2.1,17.09h-3.39l-2.92-23.73Z"/>
    <path class="cls-12" d="m752.23,922.61h3.59l2.92,23.73h-3.59l-2.92-23.73Z"/>
    <path class="cls-12" d="m764.05,944.79c-1.4-1.27-2.21-2.92-2.44-4.95l-1.29-10.48c-.23-2.04.28-3.72,1.53-5.07,1.24-1.34,2.93-2.02,5.05-2.02,2.01,0,3.72.63,5.12,1.9s2.21,2.92,2.44,4.95l.17,1.15h-3.59l-.17-1.05c-.11-1.02-.54-1.85-1.27-2.51-.73-.66-1.61-.98-2.63-.98s-1.81.33-2.39.98c-.58.65-.8,1.49-.66,2.51l1.29,10.48c.14,1.04.56,1.89,1.29,2.54.72.66,1.59.98,2.61.98s1.81-.33,2.39-.98c.58-.65.8-1.5.66-2.54l-.1-1.02h3.59l.1.91c.18,2.06-.34,3.75-1.58,5.09-1.23,1.33-2.89,2-4.97,2s-3.75-.63-5.15-1.9Z"/>
    <path class="cls-12" d="m777.48,942.89l6.68-16.82h-8.75l-.44-3.46h12.51l.41,3.46-6.68,16.82h8.75l.44,3.46h-12.51l-.41-3.46Z"/>
    <path class="cls-12" d="m789.91,922.61h11.22l.44,3.46h-7.63l.81,6.68h7.09l.41,3.46h-7.09l.85,6.68h7.63l.41,3.46h-11.22l-2.92-23.73Z"/>
    <path class="cls-12" d="m808.23,944.79c-1.4-1.27-2.21-2.92-2.44-4.95l-1.29-10.48c-.23-2.04.28-3.72,1.53-5.07,1.24-1.34,2.93-2.02,5.05-2.02,2.01,0,3.72.63,5.12,1.9s2.21,2.92,2.44,4.95l.17,1.15h-3.59l-.17-1.05c-.11-1.02-.54-1.85-1.27-2.51-.73-.66-1.61-.98-2.63-.98s-1.81.33-2.39.98c-.58.65-.8,1.49-.66,2.51l1.29,10.48c.14,1.04.56,1.89,1.29,2.54.72.66,1.59.98,2.61.98s1.81-.33,2.39-.98c.58-.65.8-1.5.66-2.54l-.1-1.02h3.59l.1.91c.18,2.06-.34,3.75-1.58,5.09-1.23,1.33-2.89,2-4.97,2s-3.75-.63-5.15-1.9Z"/>
    <path class="cls-12" d="m820.79,922.61h3.59l1.25,10.14h6.98l-1.25-10.14h3.59l2.92,23.73h-3.59l-1.25-10.14h-6.99l1.25,10.14h-3.59l-2.92-23.73Z"/>
    <path class="cls-12" d="m839.7,934.45h9.36l.41,3.46h-9.36l-.41-3.46Z"/>
    <path class="cls-12" d="m850.74,922.61h5.59l6.88,17.97,2.47-17.97h5.09l2.92,23.73h-3.36l-2.27-18.34-2.71,18.34h-3.36l-7.22-18.34,2.27,18.34h-3.39l-2.92-23.73Z"/>
    <path class="cls-12" d="m886.71,939.5l.14,1.12c.11.81.45,1.47,1.02,1.98.57.51,1.24.76,2.03.76.72,0,1.31-.23,1.76-.68.45-.45.68-1.04.68-1.76,0-.95-.34-1.71-1.02-2.27-.43-.34-1.05-.56-1.85-.68-.8-.11-1.65-.29-2.54-.54-.89-.25-1.69-.68-2.39-1.29-1.51-1.24-2.27-2.89-2.27-4.95,0-1.56.55-2.87,1.66-3.93s2.49-1.59,4.14-1.59c1.76,0,3.25.56,4.46,1.68s1.93,2.56,2.15,4.32l.17,1.19h-3.46l-.17-1.09c-.09-.81-.42-1.48-1-2s-1.26-.78-2.05-.78c-.72,0-1.31.22-1.76.68-.45.45-.68,1.04-.68,1.76,0,.97.34,1.73,1.02,2.27.45.38,1.47.71,3.07.96,1.59.26,2.84.79,3.75,1.58,1.51,1.31,2.27,2.96,2.27,4.95,0,1.54-.56,2.84-1.7,3.9-1.13,1.06-2.52,1.59-4.17,1.59-1.76,0-3.24-.55-4.44-1.66-1.2-1.11-1.91-2.54-2.14-4.31l-.13-1.22h3.46Z"/>
    <path class="cls-12" d="m905.47,946.35c-1.79,0-3.29-.53-4.51-1.59s-1.92-2.46-2.1-4.21l-2.24-17.94h3.46l.41,3.39h4.81l.41,3.32h-4.78l1.32,10.95c.11.79.46,1.45,1.03,1.97s1.26.78,2.05.78h2.07l.41,3.32h-2.34Z"/>
    <path class="cls-12" d="m911.21,944.84c-1.25-1.23-1.88-2.81-1.88-4.73,0-1.45.53-2.68,1.58-3.7,1.05-1.02,2.32-1.53,3.81-1.53,1.13,0,2.12.26,2.98.78l-.47-3.9c-.11-.81-.46-1.48-1.03-2s-1.26-.78-2.05-.78-1.41.26-1.86.78-.63,1.19-.54,2l.17,1.15h-3.46l-.14-1.05c-.23-1.74.23-3.21,1.37-4.41,1.14-1.2,2.6-1.8,4.39-1.8s3.24.55,4.44,1.66,1.91,2.55,2.14,4.34l1.12,8.85c.23,1.72-.24,3.18-1.39,4.37-1.15,1.2-2.62,1.8-4.41,1.8-1.92,0-3.51-.62-4.76-1.85Zm2.32-25.11h4.04l-3.49,4.81h-3.05l2.51-4.81Zm4.15,22.95c.44-.45.66-1.02.66-1.7,0-.9-.3-1.66-.9-2.25-.6-.6-1.34-.9-2.22-.9-.72,0-1.3.23-1.75.69-.44.46-.66,1.04-.66,1.71,0,.93.31,1.68.92,2.25.61.58,1.33.87,2.17.87.75,0,1.34-.23,1.78-.68Z"/>
    <path class="cls-12" d="m924.28,931.87c-.23-1.74.23-3.21,1.37-4.41,1.14-1.2,2.6-1.8,4.39-1.8s3.24.55,4.44,1.66,1.91,2.55,2.14,4.34l1.83,14.68h-3.46l-1.8-14.58c-.11-.81-.46-1.48-1.03-2s-1.26-.78-2.05-.78-1.41.26-1.86.78-.63,1.19-.54,2l1.8,14.58h-3.46l-1.76-14.48Z"/>
    <path class="cls-12" d="m943.48,945.03c-1.2-1.11-1.91-2.54-2.14-4.31l-1.05-8.85c-.23-1.74.23-3.21,1.37-4.41,1.14-1.2,2.6-1.8,4.39-1.8s3.24.55,4.44,1.66,1.91,2.55,2.14,4.34l.75,5.93h-8.92l.34,3.02c.11.79.46,1.45,1.03,1.97s1.26.78,2.05.78,1.38-.26,1.85-.78c.46-.52.65-1.18.56-1.97l-.1-.95h3.42l.1.85c.23,1.72-.23,3.18-1.37,4.37-1.14,1.2-2.6,1.8-4.39,1.8s-3.28-.55-4.48-1.66Zm6.1-10.27l-.37-2.98c-.11-.81-.46-1.48-1.03-2s-1.26-.78-2.05-.78-1.41.26-1.86.78-.63,1.19-.54,2l.37,2.98h5.49Z"/>
    <path class="cls-12" d="m960.27,936.18l1.25,10.17h-3.46l-3.32-27.12h3.46l2.07,16.95Zm0,0l5.02-10.17h3.53l-4.88,9.66,7.43,10.68h-4.07l-7.02-10.17Z"/>
  </g>
  <path class="cls-14" d="m502.5,663s54,75,34,157"/>
  <rect class="cls-4" x="450.5" y="813" width="212.5" height="66"/>
  <rect class="cls-13" x="476" y="898.5" width="187" height="73"/>
  <g>
    <path class="cls-12" d="m471.91,833.11h3.59l1.49,12.1,1.42,11.63h-3.59l-2.92-23.73Zm5.09,12.1l5.49-12.1h3.53l-5.29,11.56,8.44,12.17h-4.31l-7.87-11.63Z"/>
    <path class="cls-12" d="m487.97,833.11h7.36c2.35,0,4.26.72,5.73,2.15,1.47,1.43,2.2,3.3,2.2,5.61,0,1.9-.66,3.48-1.98,4.73s-3.01,1.88-5.07,1.88h-2.88l1.15,9.36h-3.59l-2.92-23.73Zm8.34,10.92c1.02,0,1.83-.3,2.44-.9s.92-1.38.92-2.36c0-1.2-.38-2.2-1.15-3s-1.74-1.2-2.92-1.2h-3.59l.92,7.46h3.39Z"/>
    <path class="cls-12" d="m504.3,833.11h5.59l6.88,17.97,2.48-17.97h5.09l2.92,23.73h-3.36l-2.27-18.34-2.71,18.34h-3.36l-7.22-18.34,2.27,18.34h-3.39l-2.92-23.73Z"/>
    <path class="cls-12" d="m532.61,855.29c-1.4-1.27-2.21-2.92-2.44-4.95l-1.29-10.48c-.23-2.04.28-3.72,1.53-5.07,1.24-1.34,2.93-2.02,5.05-2.02,2.01,0,3.72.63,5.12,1.9,1.4,1.27,2.22,2.92,2.44,4.95l.17,1.15h-3.59l-.17-1.05c-.11-1.02-.54-1.85-1.27-2.51-.73-.66-1.61-.98-2.63-.98s-1.81.33-2.39.98c-.58.65-.8,1.49-.66,2.51l1.29,10.48c.14,1.04.57,1.89,1.29,2.54.72.66,1.59.98,2.61.98s1.81-.33,2.39-.98c.58-.65.8-1.5.66-2.54l-.44-3.49h-3.32l-.41-3.46h6.92l.85,6.85c.23,2.04-.28,3.72-1.53,5.07-1.24,1.35-2.92,2.02-5.02,2.02s-3.75-.63-5.15-1.9Z"/>
    <path class="cls-12" d="m557.42,850l.13,1.12c.11.81.45,1.47,1.02,1.98.56.51,1.24.76,2.03.76.72,0,1.31-.23,1.76-.68.45-.45.68-1.04.68-1.76,0-.95-.34-1.71-1.02-2.27-.43-.34-1.05-.56-1.85-.68s-1.65-.29-2.54-.54c-.89-.25-1.69-.68-2.39-1.29-1.52-1.24-2.27-2.89-2.27-4.95,0-1.56.55-2.87,1.66-3.93s2.49-1.59,4.14-1.59c1.76,0,3.25.56,4.46,1.68s1.93,2.56,2.15,4.32l.17,1.19h-3.46l-.17-1.09c-.09-.81-.42-1.48-1-2-.58-.52-1.26-.78-2.05-.78-.72,0-1.31.22-1.76.68-.45.45-.68,1.04-.68,1.76,0,.97.34,1.73,1.02,2.27.45.38,1.47.71,3.07.96,1.59.26,2.84.79,3.75,1.58,1.52,1.31,2.27,2.96,2.27,4.95,0,1.54-.56,2.84-1.69,3.9-1.13,1.06-2.52,1.59-4.17,1.59-1.76,0-3.24-.55-4.44-1.66-1.2-1.11-1.91-2.54-2.14-4.31l-.14-1.22h3.46Z"/>
    <path class="cls-12" d="m576.19,856.85c-1.79,0-3.29-.53-4.51-1.59s-1.92-2.46-2.1-4.21l-2.24-17.94h3.46l.41,3.39h4.81l.41,3.32h-4.78l1.32,10.95c.11.79.46,1.45,1.03,1.97s1.26.78,2.05.78h2.07l.41,3.32h-2.34Z"/>
    <path class="cls-12" d="m581.93,855.34c-1.25-1.23-1.88-2.81-1.88-4.73,0-1.45.53-2.68,1.58-3.7,1.05-1.02,2.32-1.53,3.81-1.53,1.13,0,2.12.26,2.98.78l-.47-3.9c-.11-.81-.46-1.48-1.03-2s-1.26-.78-2.05-.78-1.41.26-1.87.78c-.45.52-.63,1.19-.54,2l.17,1.15h-3.46l-.13-1.05c-.23-1.74.23-3.21,1.37-4.41,1.14-1.2,2.61-1.8,4.39-1.8s3.24.55,4.44,1.66,1.91,2.55,2.14,4.34l1.12,8.85c.23,1.72-.24,3.18-1.39,4.37-1.15,1.2-2.62,1.8-4.41,1.8-1.92,0-3.51-.62-4.76-1.85Zm2.32-25.11h4.04l-3.49,4.81h-3.05l2.51-4.81Zm4.15,22.95c.44-.45.66-1.02.66-1.7,0-.9-.3-1.66-.9-2.25-.6-.6-1.34-.9-2.22-.9-.72,0-1.3.23-1.75.69-.44.46-.66,1.04-.66,1.71,0,.93.3,1.68.91,2.25.61.58,1.33.87,2.17.87.75,0,1.34-.23,1.78-.68Z"/>
    <path class="cls-12" d="m594.99,842.37c-.23-1.74.23-3.21,1.37-4.41,1.14-1.2,2.6-1.8,4.39-1.8s3.24.55,4.44,1.66c1.2,1.11,1.91,2.55,2.13,4.34l1.83,14.68h-3.46l-1.8-14.58c-.11-.81-.46-1.48-1.03-2s-1.26-.78-2.05-.78-1.41.26-1.86.78c-.45.52-.63,1.19-.54,2l1.8,14.58h-3.46l-1.76-14.48Z"/>
    <path class="cls-12" d="m614.19,855.53c-1.2-1.11-1.91-2.54-2.13-4.31l-1.05-8.85c-.23-1.74.23-3.21,1.37-4.41,1.14-1.2,2.6-1.8,4.39-1.8s3.24.55,4.44,1.66c1.2,1.11,1.91,2.55,2.13,4.34l.75,5.93h-8.92l.34,3.02c.11.79.46,1.45,1.04,1.97s1.26.78,2.05.78,1.38-.26,1.85-.78.65-1.18.56-1.97l-.1-.95h3.42l.1.85c.23,1.72-.23,3.18-1.37,4.37-1.14,1.2-2.61,1.8-4.39,1.8s-3.28-.55-4.48-1.66Zm6.1-10.27l-.37-2.98c-.11-.81-.46-1.48-1.03-2s-1.26-.78-2.05-.78-1.41.26-1.86.78c-.45.52-.63,1.19-.54,2l.37,2.98h5.49Z"/>
    <path class="cls-12" d="m630.98,846.68l1.25,10.17h-3.46l-3.32-27.12h3.46l2.07,16.95Zm0,0l5.02-10.17h3.53l-4.88,9.66,7.43,10.68h-4.07l-7.02-10.17Z"/>
  </g>
  <g>
    <path class="cls-12" d="m503.5,942.39l6.68-16.82h-8.75l-.44-3.46h12.51l.41,3.46-6.68,16.82h8.75l.44,3.46h-12.51l-.41-3.46Z"/>
    <path class="cls-12" d="m519.96,944.53c-1.2-1.11-1.91-2.54-2.14-4.31l-1.12-9.05c-.23-1.7.2-3.12,1.27-4.27,1.07-1.15,2.46-1.73,4.15-1.73,1.2,0,2.16.27,2.88.81l-.88-7.26h3.46l2.58,21.29c.23,1.72-.23,3.18-1.37,4.37-1.14,1.2-2.61,1.8-4.39,1.8s-3.24-.55-4.44-1.66Zm6.22-2.44c.46-.52.65-1.18.56-1.97l-1.08-8.85c-.11-.81-.46-1.48-1.03-2-.58-.52-1.26-.78-2.05-.78s-1.41.26-1.86.78c-.45.52-.63,1.19-.54,2l1.08,8.85c.11.79.46,1.45,1.03,1.97s1.26.78,2.05.78,1.38-.26,1.85-.78Z"/>
    <path class="cls-12" d="m532.78,931.54c-.23-1.74.23-3.24,1.36-4.49,1.13-1.25,2.58-1.88,4.34-1.88h1.8l.41,3.32h-2.07c-.79,0-1.41.26-1.87.78s-.63,1.19-.54,2l1.8,14.58h-3.46l-1.76-14.31Z"/>
    <path class="cls-12" d="m545.8,944.34c-1.25-1.23-1.88-2.81-1.88-4.73,0-1.45.53-2.68,1.58-3.7,1.05-1.02,2.32-1.53,3.81-1.53,1.13,0,2.12.26,2.98.78l-.48-3.9c-.11-.81-.46-1.48-1.03-2-.58-.52-1.26-.78-2.05-.78s-1.41.26-1.86.78c-.45.52-.63,1.19-.54,2l.17,1.15h-3.46l-.14-1.05c-.23-1.74.23-3.21,1.37-4.41,1.14-1.2,2.6-1.8,4.39-1.8s3.24.55,4.44,1.66c1.2,1.11,1.91,2.55,2.14,4.34l1.12,8.85c.23,1.72-.24,3.18-1.39,4.37-1.15,1.2-2.62,1.8-4.41,1.8-1.92,0-3.51-.62-4.76-1.85Zm6.48-2.15c.44-.45.66-1.02.66-1.7,0-.9-.3-1.66-.9-2.25-.6-.6-1.34-.9-2.22-.9-.72,0-1.31.23-1.75.69-.44.46-.66,1.04-.66,1.71,0,.93.3,1.68.92,2.25.61.58,1.33.87,2.17.87.75,0,1.34-.23,1.78-.68Z"/>
    <path class="cls-12" d="m556.05,925.5h3.66l5.42,14.58,1.83-14.58h3.32l-2.81,20.34h-3.59l-7.83-20.34Z"/>
    <path class="cls-12" d="m576.04,944.53c-1.2-1.11-1.91-2.54-2.14-4.31l-1.08-8.85c-.23-1.74.23-3.21,1.37-4.41,1.14-1.2,2.6-1.8,4.39-1.8s3.24.55,4.44,1.66c1.2,1.11,1.91,2.55,2.14,4.34l1.08,8.85c.23,1.72-.23,3.18-1.37,4.37-1.14,1.2-2.61,1.8-4.39,1.8s-3.24-.55-4.44-1.66Zm6.22-2.44c.46-.52.65-1.18.56-1.97l-1.08-8.85c-.11-.81-.46-1.48-1.03-2-.58-.52-1.26-.78-2.05-.78s-1.41.26-1.86.78c-.45.52-.63,1.19-.54,2l1.08,8.85c.11.79.46,1.45,1.03,1.97s1.26.78,2.05.78,1.38-.26,1.85-.78Z"/>
    <path class="cls-12" d="m596.29,945.85c-1.79,0-3.29-.53-4.51-1.59s-1.92-2.46-2.1-4.21l-2.24-17.94h3.46l.41,3.39h4.81l.41,3.32h-4.78l1.32,10.95c.11.79.46,1.45,1.03,1.97s1.26.78,2.05.78h2.07l.41,3.32h-2.34Z"/>
    <path class="cls-12" d="m599.22,931.37c-.23-1.74.23-3.21,1.37-4.41,1.14-1.2,2.6-1.8,4.39-1.8s3.24.55,4.44,1.66c1.2,1.11,1.91,2.55,2.14,4.34l1.83,14.68h-3.46l-1.8-14.58c-.11-.81-.46-1.48-1.03-2-.58-.52-1.26-.78-2.05-.78s-1.41.26-1.86.78c-.45.52-.63,1.19-.54,2l1.8,14.58h-3.46l-1.76-14.48Z"/>
    <path class="cls-12" d="m616.91,919.23h4.03l-3.49,4.81h-3.05l2.51-4.81Zm-2.31,6.27h3.46l2.51,20.34h-3.46l-2.51-20.34Z"/>
    <path class="cls-12" d="m626.93,935.68l1.25,10.17h-3.46l-3.32-27.12h3.46l2.07,16.95Zm0,0l5.02-10.17h3.53l-4.88,9.66,7.43,10.68h-4.07l-7.02-10.17Z"/>
  </g>
  <rect class="cls-6" x="667.5" width="412.5" height="148.5"/>
  <g>
    <path class="cls-12" d="m709.6,50.48h10.82l13.31,34.76,4.79-34.76h9.84l5.64,45.91h-6.49l-4.39-35.48-5.25,35.48h-6.49l-13.97-35.48,4.39,35.48h-6.56l-5.64-45.91Z"/>
    <path class="cls-12" d="m763.34,50.48h7.48l17.64,45.91h-7.61l-3.34-8.98h-12.72l-1.12,8.98h-6.69l6.36-45.91Zm11.81,30.23l-7.15-19.08-2.49,19.08h9.64Z"/>
    <path class="cls-12" d="m785.64,50.48h14.23c4.55,0,8.24,1.39,11.08,4.16,2.84,2.78,4.26,6.39,4.26,10.85,0,3.67-1.28,6.72-3.84,9.15-2.56,2.43-5.83,3.64-9.8,3.64h-5.57l2.23,18.1h-6.95l-5.64-45.91Zm16.13,21.12c1.97,0,3.54-.58,4.72-1.74,1.18-1.16,1.77-2.68,1.77-4.56,0-2.32-.74-4.25-2.23-5.8-1.49-1.55-3.37-2.33-5.64-2.33h-6.95l1.77,14.43h6.56Z"/>
    <path class="cls-12" d="m822.68,50.48h7.48l17.64,45.91h-7.61l-3.34-8.98h-12.72l-1.12,8.98h-6.69l6.36-45.91Zm11.81,30.23l-7.15-19.08-2.49,19.08h9.64Z"/>
    <path class="cls-12" d="m868.2,50.48h7.48l17.64,45.91h-7.61l-3.34-8.98h-12.72l-1.12,8.98h-6.69l6.36-45.91Zm11.8,30.23l-7.15-19.08-2.49,19.08h9.64Z"/>
    <path class="cls-12" d="m900.85,78.28l2.23,18.1h-6.95l-5.64-45.91h14.23c4.55,0,8.24,1.39,11.08,4.16,2.84,2.78,4.26,6.39,4.26,10.85,0,3.1-.92,5.79-2.75,8.07s-4.28,3.72-7.34,4.33l17.51,18.49h-9.57l-17.05-18.1Zm5.77-6.69c1.97,0,3.54-.58,4.72-1.74,1.18-1.16,1.77-2.68,1.77-4.56,0-2.32-.74-4.25-2.23-5.8-1.49-1.55-3.37-2.33-5.64-2.33h-6.95l1.77,14.43h6.56Z"/>
    <path class="cls-12" d="m923.7,50.48h21.71l.85,6.69h-14.76l1.57,12.92h13.71l.79,6.69h-13.71l1.64,12.92h14.76l.79,6.69h-21.71l-5.64-45.91Z"/>
    <path class="cls-12" d="m959.47,50.48h7.48l17.64,45.91h-7.61l-3.34-8.98h-12.72l-1.12,8.98h-6.69l6.36-45.91Zm4.72-12.13h7.8l-6.75,9.31h-5.9l4.85-9.31Zm7.08,42.37l-7.15-19.08-2.49,19.08h9.64Z"/>
    <path class="cls-12" d="m981.76,50.48h6.95l4.85,39.22h13.44l.79,6.69h-20.4l-5.64-45.91Z"/>
    <path class="cls-12" d="m1013.53,93.37c-2.69-2.45-4.25-5.64-4.69-9.58l-4.07-33.32h6.95l4.07,33.05c.22,2.01,1.04,3.65,2.46,4.92s3.12,1.9,5.08,1.9,3.51-.63,4.62-1.9,1.54-2.91,1.28-4.92l-4.07-33.05h6.95l4,32.86c.52,3.94-.44,7.2-2.89,9.8-2.45,2.6-5.71,3.9-9.77,3.9s-7.25-1.22-9.94-3.67Z"/>
  </g>
  <path class="cls-17" d="m434,681.86s-79.85,19.64-120.5,114.14"/>
  <path class="cls-6" d="m305.29,1080.5H22.74c-5.76-2.04-13.29-3.3-22.74-3.88v-114.01c43.96,3.54,53.49-8.83,41.84-43.83,56.88,32.04,81.38,29.5,109.59-10.53,23.65,42.89,47.72,48.1,107.78,22.49-4.75,10.32-7.27,18.72-7.19,25.45.23,20.3,24.05,25.37,81.41,21.72-53.21,29.29-46.94,43.11,25.63,61.48-60.49,8.41-76.79,18.65-53.77,41.11Z"/>
  <g>
    <path class="cls-12" d="m70.96,974.95h4.87l8.24,22.27,2.77-22.27h4.29l-4.08,29.42h-4.79l-11.3-29.42Z"/>
    <path class="cls-12" d="m98.96,994.87l.17,1.26c.17,1.29.7,2.34,1.6,3.15s1.98,1.22,3.24,1.22c1.18,0,2.12-.34,2.82-1.03.7-.69,1.05-1.62,1.05-2.79,0-1.54-.55-2.76-1.64-3.66-.62-.5-1.53-.85-2.75-1.05-1.22-.2-2.49-.46-3.82-.8-1.33-.34-2.47-.91-3.42-1.72-2.13-1.88-3.19-4.26-3.19-7.14,0-2.24.77-4.1,2.31-5.57,1.54-1.47,3.52-2.21,5.93-2.21s4.61.78,6.35,2.35c1.74,1.57,2.75,3.61,3.03,6.13l.21,1.43h-4.45l-.21-1.3c-.14-1.26-.67-2.3-1.58-3.11s-2-1.22-3.26-1.22c-1.18,0-2.12.34-2.82,1.03s-1.05,1.62-1.05,2.79c0,1.51.56,2.72,1.68,3.61.62.5,1.53.86,2.73,1.07s2.47.48,3.8.82c1.33.34,2.47.91,3.42,1.72,2.13,1.79,3.19,4.16,3.19,7.1,0,2.27-.76,4.14-2.29,5.61s-3.49,2.21-5.9,2.21c-2.55,0-4.69-.78-6.41-2.35-1.72-1.57-2.72-3.61-3-6.14l-.17-1.43h4.45Z"/>
    <path class="cls-12" d="m117.64,979.24h-6.09l-.55-4.29h16.73l.5,4.29h-6.14l3.11,25.13h-4.45l-3.11-25.13Z"/>
    <path class="cls-12" d="m135.33,1002.44c-1.72-1.57-2.72-3.61-3-6.14l-2.6-21.35h4.45l2.61,21.18c.14,1.29.67,2.34,1.58,3.15.91.81,2,1.22,3.26,1.22s2.25-.41,2.96-1.22.99-1.86.82-3.15l-2.61-21.18h4.45l2.56,21.05c.34,2.52-.28,4.62-1.85,6.28s-3.66,2.5-6.26,2.5-4.64-.78-6.37-2.35Z"/>
    <path class="cls-12" d="m151.87,974.95h9.12c2.91,0,5.28.89,7.1,2.67,1.82,1.78,2.73,4.1,2.73,6.95,0,2.35-.82,4.31-2.46,5.86-1.64,1.55-3.73,2.33-6.28,2.33h-3.57l1.43,11.6h-4.45l-3.61-29.42Zm10.34,13.53c1.26,0,2.27-.37,3.03-1.11s1.13-1.72,1.13-2.92c0-1.48-.48-2.72-1.43-3.72-.95-.99-2.16-1.49-3.61-1.49h-4.45l1.13,9.25h4.2Z"/>
    <path class="cls-12" d="m181.42,974.95h8.99c2.55,0,4.68.76,6.39,2.29,1.71,1.53,2.73,3.55,3.07,6.07l1.51,12.14c.28,2.55-.34,4.67-1.87,6.37-1.53,1.69-3.58,2.54-6.16,2.54h-8.32l-3.61-29.42Zm11.72,25.13c1.26,0,2.24-.41,2.94-1.22.7-.81.98-1.86.84-3.15l-1.51-12.14c-.14-1.26-.67-2.3-1.58-3.11-.91-.81-2-1.22-3.26-1.22h-4.16l2.56,20.84h4.16Z"/>
    <path class="cls-12" d="m208.36,1002.44c-1.74-1.57-2.75-3.61-3.03-6.14l-1.6-12.99c-.28-2.52.35-4.62,1.89-6.28s3.63-2.5,6.26-2.5c2.49,0,4.61.78,6.35,2.35,1.74,1.57,2.75,3.61,3.03,6.13l1.6,12.99c.28,2.52-.35,4.62-1.89,6.28-1.54,1.67-3.61,2.5-6.22,2.5s-4.65-.78-6.39-2.35Zm9.22-3.15c.71-.81.99-1.86.82-3.15l-1.6-12.99c-.14-1.26-.67-2.3-1.58-3.11-.91-.81-2-1.22-3.26-1.22s-2.25.41-2.96,1.22-.99,1.85-.82,3.11l1.6,12.99c.17,1.29.7,2.34,1.6,3.15s1.98,1.22,3.24,1.22,2.25-.41,2.96-1.22Z"/>
    <path class="cls-12" d="m27.08,1014.08h4.79l11.3,29.42h-4.87l-2.14-5.76h-8.15l-.71,5.76h-4.29l4.08-29.42Zm7.56,19.37l-4.58-12.23-1.6,12.23h6.18Z"/>
    <path class="cls-12" d="m48.25,1031.9l1.43,11.6h-4.45l-3.61-29.42h9.12c2.91,0,5.28.89,7.1,2.67,1.82,1.78,2.73,4.1,2.73,6.95,0,1.99-.59,3.71-1.77,5.17-1.18,1.46-2.75,2.38-4.71,2.77l11.22,11.85h-6.14l-10.93-11.6Zm3.7-4.29c1.26,0,2.27-.37,3.03-1.11s1.13-1.72,1.13-2.92c0-1.48-.48-2.72-1.43-3.72-.95-.99-2.16-1.49-3.61-1.49h-4.45l1.13,9.25h4.2Z"/>
    <path class="cls-12" d="m63.12,1014.08h13.91l.55,4.29h-9.46l1.01,8.28h8.78l.5,4.29h-8.78l1.05,8.28h9.46l.5,4.29h-13.91l-3.61-29.42Z"/>
    <path class="cls-12" d="m86.27,1014.08h4.79l11.3,29.42h-4.87l-2.14-5.76h-8.15l-.71,5.76h-4.29l4.08-29.42Zm3.03-7.77h5l-4.33,5.97h-3.78l3.11-5.97Zm4.54,27.15l-4.58-12.23-1.6,12.23h6.18Z"/>
    <path class="cls-12" d="m100.8,1014.08h4.45l3.11,25.13h8.61l.5,4.29h-13.07l-3.61-29.42Z"/>
    <path class="cls-12" d="m121.41,1041.57c-1.72-1.57-2.72-3.61-3-6.14l-2.61-21.35h4.45l2.61,21.18c.14,1.29.67,2.34,1.58,3.15.91.81,2,1.22,3.26,1.22s2.25-.41,2.96-1.22.99-1.86.82-3.15l-2.61-21.18h4.45l2.56,21.05c.34,2.52-.28,4.62-1.85,6.28s-3.66,2.5-6.26,2.5-4.64-.78-6.37-2.35Z"/>
    <path class="cls-12" d="m148.16,1039.21l8.28-20.84h-10.84l-.55-4.29h15.51l.5,4.29-8.28,20.84h10.84l.55,4.29h-15.51l-.5-4.29Z"/>
    <path class="cls-12" d="m163.49,1014.08h8.99c2.55,0,4.68.76,6.39,2.29,1.71,1.53,2.73,3.55,3.07,6.07l1.51,12.14c.28,2.55-.34,4.67-1.87,6.37-1.53,1.69-3.58,2.54-6.16,2.54h-8.32l-3.61-29.42Zm11.72,25.13c1.26,0,2.24-.41,2.94-1.22.7-.81.98-1.86.84-3.15l-1.51-12.14c-.14-1.26-.67-2.3-1.58-3.11-.91-.81-2-1.22-3.26-1.22h-4.16l2.56,20.84h4.16Z"/>
    <path class="cls-12" d="m189.97,1014.08h4.79l11.3,29.42h-4.87l-2.14-5.76h-8.15l-.71,5.76h-4.29l4.08-29.42Zm7.56,19.37l-4.58-12.23-1.6,12.23h6.18Z"/>
    <path class="cls-12" d="m211.14,1031.9l1.43,11.6h-4.45l-3.61-29.42h9.12c2.91,0,5.28.89,7.1,2.67,1.82,1.78,2.73,4.1,2.73,6.95,0,1.99-.59,3.71-1.77,5.17-1.18,1.46-2.75,2.38-4.71,2.77l11.22,11.85h-6.14l-10.93-11.6Zm3.7-4.29c1.26,0,2.27-.37,3.03-1.11s1.13-1.72,1.13-2.92c0-1.48-.48-2.72-1.43-3.72-.95-.99-2.16-1.49-3.61-1.49h-4.45l1.13,9.25h4.2Z"/>
    <path class="cls-12" d="m226,1014.08h6.93l8.53,22.27,3.07-22.27h6.3l3.61,29.42h-4.16l-2.82-22.73-3.36,22.73h-4.16l-8.95-22.73,2.82,22.73h-4.2l-3.61-29.42Z"/>
    <path class="cls-12" d="m260.68,1014.08h4.79l11.3,29.42h-4.87l-2.14-5.76h-8.15l-.71,5.76h-4.29l4.08-29.42Zm7.56,19.37l-4.58-12.23-1.6,12.23h6.18Z"/>
  </g>
  <path class="cls-21" d="m400.74,846c10.76,168-103.24,164-103.24,164"/>
  <polyline class="cls-18" points="413.5 868 400.74 841.59 388.5 868"/>
  <rect class="cls-6" y="1066" width="35.5" height="14.5"/>
</svg>