<svg width="39" height="39" viewBox="0 0 39 39" fill="none" xmlns="http://www.w3.org/2000/svg">
<g clip-path="url(#clip0_635_78)">
<path d="M8.98712 0C15.9942 0 23.0012 0 30.0083 0C30.7379 0.153742 31.4882 0.243234 32.1948 0.472699C36.2949 1.8059 38.9794 5.48653 38.9908 9.81195C39.0092 16.2714 39 22.7332 38.9908 29.1926C38.9885 31.267 38.4126 33.1807 37.1851 34.8604C35.1546 37.637 32.3945 38.9954 28.9598 38.9954C22.6915 38.9954 16.4209 39 10.1527 38.9885C9.49647 38.9885 8.8288 38.9587 8.18408 38.8417C4.5796 38.1854 2.06724 36.1386 0.692905 32.7562C0.339569 31.8934 0.22485 30.9297 0 30.0095C0 23.0039 0 15.9961 0 8.98817C0.0481821 8.71511 0.0940699 8.44204 0.144546 8.17128C0.819096 4.59161 2.84734 2.08355 6.20173 0.70446C7.07819 0.344199 8.05559 0.227171 8.98712 0ZM3.2718 19.5C3.2718 19.5 3.26262 19.5 3.25803 19.5C3.25803 22.6735 3.26491 25.847 3.25574 29.0205C3.25344 30.0371 3.3934 31.0238 3.84539 31.9393C5.10042 34.4658 7.14931 35.7393 9.97141 35.7416C16.3177 35.7485 22.664 35.7462 29.0079 35.7416C29.437 35.7416 29.8706 35.7095 30.2951 35.6521C33.225 35.2459 35.6915 32.5612 35.7098 29.6103C35.7511 22.9603 35.7282 16.3081 35.7305 9.65821C35.7305 8.75641 35.5561 7.88444 35.1592 7.08131C33.9088 4.55719 31.8645 3.2653 29.0447 3.263C22.6869 3.25382 16.3269 3.25841 9.96911 3.263C9.54006 3.263 9.10642 3.29513 8.68196 3.35479C5.78415 3.75406 3.32457 6.45258 3.28327 9.37368C3.23738 12.7491 3.2718 16.1269 3.2718 19.5023V19.5Z" fill="#EF5A23"/>
<path d="M26.0137 19.6032V18.2884C26.0137 17.6619 26.0114 17.0378 26.0137 16.4136C26.0206 14.8395 26.9705 13.8964 28.5513 13.8918C29.4117 13.8872 30.2698 13.8895 31.1302 13.8895H31.534V9.10056C31.534 9.10056 31.5065 9.05926 31.4881 9.06155C29.8545 9.09597 28.2072 8.87109 26.5919 9.27954C23.522 10.0505 21.3171 12.7422 21.1932 15.9065C21.145 17.1158 21.184 18.3251 21.184 19.578H16.5104V24.4266H21.145V36.9439H26.0459V24.4472H30.8342C31.1027 22.8203 31.3642 21.2347 31.635 19.6032H26.0137Z" fill="#EF5A23"/>
</g>
<defs>
<clipPath id="clip0_635_78">
<rect width="39" height="39" fill="white"/>
</clipPath>
</defs>
</svg>
