<svg width="38" height="39" viewBox="0 0 38 39" fill="none" xmlns="http://www.w3.org/2000/svg">
<g clip-path="url(#clip0_635_85)">
<path d="M8.75668 0C15.5841 0 22.4115 0 29.2389 0C29.9498 0.153742 30.6808 0.243234 31.3693 0.472699C35.3643 1.8059 37.9799 5.48653 37.9911 9.81195C38.0089 16.2714 38 22.7332 37.9911 29.1926C37.9888 31.267 37.4277 33.1807 36.2317 34.8604C34.2532 37.637 31.5638 38.9954 28.2172 38.9954C22.1097 38.9954 15.9999 39 9.89234 38.9885C9.25297 38.9885 8.60242 38.9587 7.97423 38.8417C4.46217 38.1854 2.01424 36.1386 0.675138 32.7562C0.330862 31.8934 0.219085 30.9297 0 30.0095C0 23.0039 0 15.9961 0 8.98817C0.0469467 8.71511 0.0916579 8.44204 0.14084 8.17128C0.798094 4.59161 2.77433 2.08355 6.04271 0.70446C6.89669 0.344199 7.84904 0.227171 8.75668 0ZM3.18791 19.5C3.18791 19.5 3.17896 19.5 3.17449 19.5C3.17449 22.6735 3.1812 25.847 3.17226 29.0205C3.17002 30.0371 3.30639 31.0238 3.74679 31.9393C4.96964 34.4658 6.966 35.7393 9.71573 35.7416C15.8993 35.7485 22.0828 35.7462 28.2642 35.7416C28.6822 35.7416 29.1047 35.7095 29.5183 35.6521C32.3731 35.2459 34.7763 32.5612 34.7942 29.6103C34.8345 22.9603 34.8121 16.3081 34.8143 9.65821C34.8143 8.75641 34.6444 7.88444 34.2577 7.08131C33.0393 4.55719 31.0474 3.2653 28.2999 3.263C22.1052 3.25382 15.9082 3.25841 9.7135 3.263C9.29545 3.263 8.87293 3.29513 8.45935 3.35479C5.63584 3.75406 3.23932 6.45258 3.19908 9.37368C3.15437 12.7491 3.18791 16.1269 3.18791 19.5023V19.5Z" fill="#EF5A23"/>
<path d="M18.9509 9.75239C24.1642 9.7019 28.4654 14.0824 28.4945 19.4703C28.5235 24.8168 24.2871 29.1973 19.0425 29.2478C13.8314 29.2983 9.52799 24.9155 9.49893 19.5276C9.46987 14.1788 13.7018 9.80287 18.9486 9.75239H18.9509ZM18.9665 25.9917C22.4517 26.0192 25.282 23.1463 25.32 19.5414C25.358 15.9686 22.5591 13.0544 19.0448 13.0108C15.5506 12.9672 12.6935 15.8676 12.6712 19.4794C12.6511 23.0591 15.4567 25.9641 18.9643 25.9917H18.9665Z" fill="#EF5A23"/>
<path d="M29.2881 11.3609C27.9825 11.3609 26.934 10.2939 26.9251 8.95382C26.9162 7.60685 27.9803 6.49854 29.2881 6.49854C30.5892 6.49854 31.6846 7.6321 31.6623 8.95382C31.6399 10.2939 30.5869 11.3609 29.2881 11.3609Z" fill="#EF5A23"/>
</g>
<defs>
<clipPath id="clip0_635_85">
<rect width="38" height="39" fill="white"/>
</clipPath>
</defs>
</svg>
