<svg width="35" height="35" viewBox="0 0 35 35" fill="none" xmlns="http://www.w3.org/2000/svg">
<g clip-path="url(#clip0_635_73)">
<path d="M0 31.1707C0 22.0425 0 12.9122 0 3.78186C0.0258557 3.68489 0.0560207 3.58792 0.0754125 3.48879C0.0969589 3.36596 0.101268 3.23883 0.127124 3.11815C0.495568 1.27355 2.10078 0 3.92791 0C12.9946 0.00215491 22.0614 0 31.1281 0C31.8154 0 32.4661 0.152998 33.0544 0.506403C34.2954 1.252 34.9935 2.34669 34.9935 3.80557C35.0043 12.923 35 22.0425 34.9957 31.16C34.9957 31.3862 34.9741 31.6146 34.9332 31.8366C34.6294 33.4808 33.2418 34.7436 31.6344 34.9246C31.5052 34.9397 31.3802 34.9741 31.2531 35H3.79432C3.67366 34.9741 3.553 34.9397 3.43234 34.9246C2.96479 34.8707 2.52093 34.7349 2.10939 34.5065C0.907104 33.8363 0.221928 32.8192 0.0732578 31.4466C0.0624846 31.3517 0.0258557 31.2612 0 31.1707ZM13.9341 13.2397C13.9276 13.3389 13.9147 13.4165 13.9147 13.494C13.9147 18.9589 13.9147 24.4237 13.9147 29.8886C13.9147 30.1558 13.9147 30.1558 14.1797 30.1558C15.6901 30.1558 17.2005 30.1558 18.7088 30.1558C18.8941 30.1558 18.9867 30.0617 18.9867 29.8735C18.9867 27.0936 18.9867 24.3117 18.9867 21.5318C18.9867 21.2301 18.9996 20.9285 19.0169 20.6268C19.047 20.157 19.1505 19.7023 19.3314 19.2692C19.6934 18.4094 20.3161 17.8469 21.2297 17.6207C21.6477 17.5172 22.0743 17.5043 22.5031 17.5409C23.0719 17.5884 23.5761 17.7888 23.9919 18.1896C24.3194 18.5063 24.5306 18.8921 24.675 19.3187C24.8689 19.8963 24.9443 20.4932 24.9464 21.1008C24.9508 24.0251 24.9464 26.9471 24.9486 29.8713C24.9486 30.061 25.0405 30.1558 25.2244 30.1558C26.7908 30.1558 28.3594 30.1558 29.9258 30.1558C30.2339 30.1558 30.2038 30.1515 30.2038 29.8735C30.2038 26.4601 30.2038 23.0467 30.2038 19.6334C30.2038 19.183 30.1887 18.7348 30.1391 18.2865C30.0637 17.5797 29.9129 16.8945 29.6479 16.2351C29.1243 14.927 28.2517 13.9379 26.9696 13.3281C26.1724 12.9488 25.3235 12.7764 24.4466 12.7312C23.895 12.7032 23.3412 12.7247 22.7983 12.8389C21.234 13.1686 19.9929 13.9918 19.0729 15.2977C19.0513 15.3279 19.0276 15.3537 18.9867 15.4033C18.9867 14.7611 18.9867 14.1513 18.9867 13.5414C18.9867 13.4854 18.9867 13.4272 18.9867 13.3712C18.9802 13.2591 18.9652 13.2462 18.8531 13.2397C18.8251 13.2397 18.7971 13.2397 18.7669 13.2397C17.222 13.2397 15.6793 13.2397 14.1344 13.2397H13.9341ZM5.35859 21.6827C5.35859 24.4173 5.35859 27.1518 5.35859 29.8864C5.35859 30.066 5.45052 30.1558 5.63439 30.1558C7.21805 30.1558 8.80171 30.1558 10.3854 30.1558C10.5577 30.1558 10.6439 30.0717 10.6439 29.9036C10.6439 24.4345 10.6439 18.9653 10.6439 13.4983C10.6439 13.3274 10.5549 13.2419 10.3768 13.2419C8.79956 13.2419 7.2202 13.2419 5.64301 13.2419C5.36075 13.2419 5.35859 13.201 5.35859 13.5328C5.35859 16.2502 5.35859 18.9675 5.35859 21.6848V21.6827ZM7.97864 11.0805C9.62694 11.0978 11.0856 9.73587 11.0899 7.95161C11.0942 6.30095 9.80147 4.80975 7.97217 4.80975C6.2183 4.80975 4.8501 6.21475 4.86087 7.95592C4.87164 9.82422 6.39067 11.0999 7.97864 11.0784V11.0805Z" fill="#EF5A23"/>
</g>
<defs>
<clipPath id="clip0_635_73">
<rect width="35" height="35" fill="white"/>
</clipPath>
</defs>
</svg>
