<svg width="38" height="37" viewBox="0 0 38 37" fill="none" xmlns="http://www.w3.org/2000/svg">
<g clip-path="url(#clip0_635_91)">
<path d="M18.6248 36.9954C8.1723 36.7866 -0.223695 28.3793 0.00479976 18.0835C0.228631 7.97151 8.82748 -0.220195 19.4361 0.00451523C29.849 0.224686 38.2356 8.63656 37.9955 18.9324C37.76 29.0421 29.1705 37.1861 18.6248 36.9977V36.9954ZM24.5073 14.5176C20.8141 14.8944 17.1629 14.883 13.493 14.5222C13.2388 17.2028 13.2318 19.8221 13.4976 22.4778C17.1885 22.1033 20.8397 22.1124 24.5073 22.4733C24.7661 19.8017 24.7661 17.1937 24.5073 14.5176ZM3.77496 12.3636C2.12187 16.4764 2.11954 20.5326 3.77729 24.6341C6.13451 23.7534 8.52204 23.2041 10.9795 22.8001C10.6951 19.9175 10.6997 17.0666 10.9795 14.1953C8.51038 13.7935 6.12285 13.2352 3.77729 12.3636H3.77496ZM27.0208 22.8024C29.4946 23.1951 31.8774 23.7648 34.2276 24.6296C35.8807 20.5235 35.8807 16.4674 34.2253 12.3658C31.8611 13.2465 29.4619 13.7958 27.0208 14.2044C27.3052 17.0893 27.3029 19.922 27.0208 22.8046V22.8024ZM24.1436 12.073C24.1436 11.9709 24.1552 11.8937 24.1436 11.8211C23.7705 9.72834 23.2366 7.68325 22.3086 5.75165C21.8773 4.85281 21.3737 3.99482 20.6439 3.28664C19.5108 2.18806 18.4545 2.16082 17.3704 3.30707C16.8155 3.89268 16.3468 4.5827 15.9528 5.28634C15.0761 6.85023 14.5655 8.55031 14.1738 10.2844C14.0432 10.8678 13.936 11.4557 13.8101 12.0685C17.3004 12.418 20.7162 12.418 24.1459 12.073H24.1436ZM13.8427 24.9246C13.8497 25.0404 13.8474 25.1062 13.8567 25.1675C14.2227 27.233 14.7473 29.2577 15.659 31.1666C16.1486 32.1971 16.7175 33.1799 17.6175 33.9357C18.5618 34.7302 19.4338 34.7302 20.3804 33.9403C21.1149 33.3274 21.6232 32.5489 22.0615 31.725C22.9009 30.1406 23.4371 28.4542 23.8312 26.7201C23.9641 26.1367 24.0713 25.5466 24.1949 24.9292C20.7138 24.5774 17.2981 24.5796 13.845 24.9246H13.8427ZM23.7332 3.13457C25.3956 5.84244 26.1511 8.74097 26.7013 11.7416C28.879 11.408 30.9798 10.9064 33.0665 10.1528C30.8259 6.71177 27.7645 4.3875 23.7332 3.13457ZM23.7192 33.8722C27.7692 32.6034 30.8329 30.2859 33.0665 26.8449C30.9704 26.0913 28.872 25.5874 26.7736 25.2697C26.3866 26.7723 26.0531 28.2363 25.6288 29.6753C25.2021 31.1189 24.5959 32.5012 23.7216 33.8722H23.7192ZM11.2267 11.7303C11.6207 10.205 11.9564 8.74097 12.3831 7.30192C12.8075 5.86287 13.4183 4.48964 14.2764 3.1323C10.2381 4.38977 7.17439 6.71177 4.93841 10.1505C7.02051 10.9109 9.12359 11.4012 11.2267 11.7303ZM4.93608 26.8494C7.17905 30.2859 10.2404 32.6102 14.2647 33.8608C12.6093 31.1666 11.8492 28.259 11.2989 25.2538C9.11659 25.5988 7.01351 26.089 4.93608 26.8494Z" fill="#EF5A23"/>
</g>
<defs>
<clipPath id="clip0_635_91">
<rect width="38" height="37" fill="white"/>
</clipPath>
</defs>
</svg>
