<svg xmlns="http://www.w3.org/2000/svg" width="130.203" height="130.204" viewBox="0 0 130.203 130.204">
  <g transform="translate(1094.203 8186.245)">
    <circle cx="64.199" cy="64.199" r="64.199" transform="translate(-1093.509 -8185.624)" fill="#fff"/>
    <path d="M-1007.52-8144.5a12.358,12.358,0,0,1,6.292,3.542,31.23,31.23,0,0,1,2.22,2.644,13.609,13.609,0,0,1,1.9,3.067,15.579,15.579,0,0,1,1.586,4.336,28.837,28.837,0,0,1-.581,7.032c-.073.467-.257.893-.318,1.322a16.045,16.045,0,0,1-.9,4.283c-.6,1.289-1.3,2.478-1.851,3.859-.259.648-.548,1.284-.846,1.9a23.614,23.614,0,0,1-1.269,2.855c-.283.3-.413.75-.793.952-.552.811-.693,1.873-1.269,2.7-.091.128-.281.18-.37.317s-.069.341-.159.476c-.174.26-.463.554-.687.846a14.534,14.534,0,0,1-4.6,3.489,14.469,14.469,0,0,0-2.061.793c-.506.157-1.054.2-1.587.371-1.075.333-2.269.5-3.542.793a19.863,19.863,0,0,0-2.538.74c-.367.139-.756.406-1.164.582s-.855.289-1.216.476c-.259.134-.482.412-.74.528a18.809,18.809,0,0,1-4.6,1c-.235.036-.534.035-.793.053a38.879,38.879,0,0,1-5.922.1,25.93,25.93,0,0,0-5.182-.37c-.789.062-1.63.246-2.485.37a37.069,37.069,0,0,1-5.287.476,19.842,19.842,0,0,0-2.644-.053c-.143.023-.356.065-.317.212a33.047,33.047,0,0,1-3.966-.476,25.99,25.99,0,0,1-8.037-3.014c-1.114-1.23-2.489-2.2-3.225-3.807a9.968,9.968,0,0,1-.317-5.657c.5-2.032.594-4.853,1.48-6.5a6.338,6.338,0,0,1,.582-2.062c.146-.413.265-.854.423-1.216a9.784,9.784,0,0,0,1.163-2.432,2.808,2.808,0,0,0,.688-.9,10.949,10.949,0,0,1,2.009-2.644c.107-.4.459-.563.581-.952.449-.144.658-.592.952-.9a18.363,18.363,0,0,1,1.586-1.533c.1-.415.623-.4.635-.9.234.058.263-.089.423-.106a7.43,7.43,0,0,1,1.745-1.744c.171-.39.549-.628.793-.952.72-.96,1.464-1.969,2.22-2.961a36.078,36.078,0,0,1,5.87-4.283c1.353-1.1,3.068-1.831,4.335-3.014,1.716-.236,3.97-1.049,6.081-1.057a27.5,27.5,0,0,1,5.71-.846,13.094,13.094,0,0,0,3.7-.053c.943-.126,2.021-.079,3.014-.212,1.16-.154,2.318-.361,3.437-.581.8-.157,1.562-.391,2.327-.529.33-.06.607.016.9-.053.2-.046.373-.208.582-.264a21.341,21.341,0,0,1,3.437-.423A4.748,4.748,0,0,1-1007.52-8144.5Zm-13.007,46.529c-.143.069-.531.2-.529.371a23.1,23.1,0,0,1,3.807-1.587c.473-.134.959-.17,1.48-.264.95-.172,1.936-.477,2.908-.687a18.87,18.87,0,0,0,5.182-2.01,9.752,9.752,0,0,0,2.908-2.591,16.608,16.608,0,0,0,2.168-3.859c1.4-1.316,1.885-3.373,2.7-5.288.372-.879.835-1.8,1.269-2.7a18.45,18.45,0,0,0,1.269-2.75c.178-.63.278-1.343.423-2.009.313-1.439.5-2.841.687-4.283a23.8,23.8,0,0,0,.317-2.538c.008-.352.209-.716.212-1.057a10.621,10.621,0,0,0-.423-2.591c-.6-1.783-1.485-3.266-2.168-4.97-.587-.686-1.161-1.384-1.745-2.063-.258-.3-.39-.679-.635-1a13.069,13.069,0,0,0-4.388-3.384,9.073,9.073,0,0,0-3.437-1.163,15.35,15.35,0,0,0-3.437,0c-2.442.343-4.9,1.258-7.614,1.533-.606.061-.966.159-1.427.211-.808.092-1.626.028-2.433.106-.455.045-.877.193-1.321.212-2.259.094-4.57-.017-6.768.264-1.505.509-3.256.462-4.812.846a12.783,12.783,0,0,0-2.855.952c-.226.067-.046.212-.211.317-1.23.739-2.418,1.444-3.6,2.221-1.384.913-2.774,1.862-4.071,2.855a18.948,18.948,0,0,0-3.6,3.595,21.414,21.414,0,0,1-1.533,1.957c-.489.509-1.108.946-1.639,1.427a41.9,41.9,0,0,0-4.494,4.812,17.268,17.268,0,0,0-1.375,1.639,29.822,29.822,0,0,0-1.639,2.961,16.766,16.766,0,0,0-1.322,3.173c1.125.284,1.495,1.324,1.9,2.326a5.976,5.976,0,0,0-2.062-2.009c-.392,1.536-.9,2.824-1.163,4.283-.165.918-.01,2-.106,3.014-.079.839-.464,1.458-.476,2.22a7.172,7.172,0,0,0,2.38,5.764c.254.208.508.362.74.581s.441.494.687.688a18.731,18.731,0,0,0,3.49,1.639,11.408,11.408,0,0,0,1.322.37c.166.052.3.214.476.264.631.185,1.413.312,2.115.476a15.521,15.521,0,0,0,2.22.423c1.221.086,2.574-.162,3.86-.106a32.717,32.717,0,0,0,6.028-.317c.63-.088,1.25-.329,1.9-.423,2.276-.327,4.171.157,6.187.317a34.255,34.255,0,0,0,5.6-.211c-1.561-.074-3.124-.45-4.653-.37-.375.019-.7.22-1.057,0a2.5,2.5,0,0,1,1.85-.423c1.309.031,2.715.332,3.86.37a9.593,9.593,0,0,0,4.336-.582c1.089-.487,2.04-1.141,3.172-1.533.159-.055.319-.041.476-.106.777-.321,1.386-1.064,2.38-.846A31.508,31.508,0,0,0-1020.527-8097.976Zm-2.168,1.058a9.358,9.358,0,0,0,1.48-.687A3.027,3.027,0,0,0-1022.7-8096.918Z" fill-rule="evenodd"/>
    <path d="M-1008.736-8142.073c-.01.273-.1.465-.424.423-.045-.042-.031-.145-.105-.159C-1009.261-8142.083-1008.905-8142.279-1008.736-8142.073Z" fill-rule="evenodd"/>
    <path d="M-1032.794-8141.333c-.027.42-.919.311-1.428.423a36.5,36.5,0,0,0-3.965,1.164c1.14-1.131,3.558-1.154,5.234-1.587Z" fill-rule="evenodd"/>
    <path d="M-1004.559-8140.91c-.009.062.011.1.052.106a.376.376,0,0,1-.37.264A.244.244,0,0,1-1004.559-8140.91Z" fill-rule="evenodd"/>
    <path d="M-1032.16-8140.7a.146.146,0,0,1,.106.158c-.138.068-.159.117-.317.053C-1032.354-8140.611-1032.207-8140.6-1032.16-8140.7Z" fill-rule="evenodd"/>
    <path d="M-1032.477-8140.592c-.5.4-1.613.271-2.432.475-.984.246-1.865.682-2.7.794.108-.36.616-.339,1.005-.476A16.642,16.642,0,0,1-1032.477-8140.592Z" fill-rule="evenodd"/>
    <path d="M-1031.1-8140.117c-.108.343-.415.136-.635.159a23.512,23.512,0,0,0-3.912.846c-.421.173-.9.527-1.375.476a7.458,7.458,0,0,1,2.908-1.163A25.939,25.939,0,0,1-1031.1-8140.117Z" fill-rule="evenodd"/>
    <path d="M-1032.636-8139.27a24.322,24.322,0,0,1-2.855.74,8.552,8.552,0,0,1-1.533.581c.052-.459.6-.423.846-.687.095-.007.111.065.211.053A10.875,10.875,0,0,1-1032.636-8139.27Z" fill-rule="evenodd"/>
    <path d="M-1001.44-8139.27a6.143,6.143,0,0,1,1.534,4.547c-.279-.759-.2-1.548-.476-2.221-.32-.779-.789-1.458-1.163-2.168A.374.374,0,0,0-1001.44-8139.27Z" fill-rule="evenodd"/>
    <path d="M-1033.534-8138.372c-.343.486-1.231.427-1.692.793a11.242,11.242,0,0,0-1.534.318c.208-.533.943-.538,1.587-.635A7.953,7.953,0,0,1-1033.534-8138.372Z" fill-rule="evenodd"/>
    <path d="M-1039.827-8138.266a1.058,1.058,0,0,1-.687.37C-1040.385-8138.119-1040.066-8138.153-1039.827-8138.266Z" fill-rule="evenodd"/>
    <path d="M-1001.757-8138.266h.106c.962.731,1.053,2.619,1.11,3.807-.272-.852-.37-2.063-.687-3.014C-1001.439-8137.7-1001.734-8137.848-1001.757-8138.266Z" fill-rule="evenodd"/>
    <path d="M-1044.638-8134.3c.339-.824,1.291-1.036,1.85-1.639,1.3-.677,2.555-1.4,3.808-2.115.089-.02.1.041.1.1A53.327,53.327,0,0,0-1044.638-8134.3Z" fill-rule="evenodd"/>
    <path d="M-1037.87-8137.737c-.043.274-.353.281-.529.423A.629.629,0,0,1-1037.87-8137.737Z" fill-rule="evenodd"/>
    <path d="M-1033.112-8137.684c-.389.394-.989.352-1.48.528a11.738,11.738,0,0,1-2.538.847,3.291,3.291,0,0,1,1.639-.9C-1034.724-8137.443-1033.832-8137.513-1033.112-8137.684Z" fill-rule="evenodd"/>
    <path d="M-1001.968-8137.579h.105c.706.935.771,2.789.9,4.125A29.127,29.127,0,0,0-1001.968-8137.579Z" fill-rule="evenodd"/>
    <path d="M-1038.505-8137.314c-.305.452-1.1.418-1.427.846a24.213,24.213,0,0,0-2.168,1.11c-.25.232-.582.5-.9.74-.278.216-.641.561-.952.423.185-.415.763-.435.952-.845a33.258,33.258,0,0,1,3.49-1.851A2.318,2.318,0,0,1-1038.505-8137.314Z" fill-rule="evenodd"/>
    <path d="M-1001.387-8132.186c-.081-.112-.06-.327-.211-.37a11.426,11.426,0,0,0-.846-4.6c-.009-.061.011-.094.053-.105.18-.125.374.363.264.529C-1001.417-8135.715-1001.53-8133.6-1001.387-8132.186Z" fill-rule="evenodd"/>
    <path d="M-1037.183-8137c.038.232-.176.211-.37.212C-1037.507-8136.933-1037.34-8136.961-1037.183-8137Z" fill-rule="evenodd"/>
    <path d="M-1032.371-8136.785a24.244,24.244,0,0,1-3.067.846,6.644,6.644,0,0,1-2.115.687c-.059-.31.421-.335.635-.423.282-.116.5-.322.74-.423a13.793,13.793,0,0,1,2.644-.582C-1033.133-8136.753-1032.773-8136.965-1032.371-8136.785Z" fill-rule="evenodd"/>
    <path d="M-1037.659-8136.732c-.139.195-.442.227-.74.264a24.833,24.833,0,0,0-2.7,1.533,15.09,15.09,0,0,0-1.533.846c-.39.315-.823.868-1.375.846.044-.42.775-.6,1.111-.9.132-.043.167-.185.264-.264,1.362-.788,2.768-1.533,4.23-2.221a.871.871,0,0,0,.687-.158C-1037.617-8136.8-1037.6-8136.735-1037.659-8136.732Z" fill-rule="evenodd"/>
    <path d="M-1008.789-8136.574a2.377,2.377,0,0,1-1.428.688,15.52,15.52,0,0,0-3.067,1.163c-.448.226-.853.545-1.322.793-.621.328-1.311.537-1.9.9a11.388,11.388,0,0,1-2.221,1.216A24.123,24.123,0,0,1-1008.789-8136.574Z" fill-rule="evenodd"/>
    <path d="M-1002.709-8136.574h.159c.514,1.281.324,3.318.582,4.441-.474-.708-.272-1.921-.423-2.907a6.311,6.311,0,0,0-.371-1.322C-1002.784-8136.473-1002.725-8136.5-1002.709-8136.574Z" fill-rule="evenodd"/>
    <path d="M-1032.371-8136.151c.107.16-.363.289-.635.37a35.227,35.227,0,0,0-4.441,1.481,4.666,4.666,0,0,1-1.745.581c.075-.3.488-.411.74-.528a37.891,37.891,0,0,1,6.028-1.9Z" fill-rule="evenodd"/>
    <path d="M-1037.712-8136.1c.1-.015.109.05.053.053-.112.24-.424.28-.528.529-2.007.866-3.631,2.114-5.552,3.066.135-.5.822-.78,1.322-1.057C-1040.933-8134.33-1039.232-8135.267-1037.712-8136.1Z" fill-rule="evenodd"/>
    <path d="M-1007.044-8135.886c-.058.473-.575.336-.846.37a14.971,14.971,0,0,0-4.653,1c-1.463.728-2.839,1.823-4.336,2.538a25.645,25.645,0,0,1,5.393-3.437c1.4-.32,3.083-.247,4.336-.528C-1007.107-8135.929-1007.1-8135.886-1007.044-8135.886Z" fill-rule="evenodd"/>
    <path d="M-1031.1-8135.728c-.317.509-1.112.466-1.745.635a10.268,10.268,0,0,0-1.322.475,22.07,22.07,0,0,0-3.648,1.164c-.333.14-.68.534-1.058.317,1.519-1.173,3.989-1.573,5.869-2.221a7.507,7.507,0,0,0,1.745-.37Z" fill-rule="evenodd"/>
    <path d="M-997.474-8130.705a6.876,6.876,0,0,0-2.009-4.706c-.015-.085.05-.091.052-.158a4.442,4.442,0,0,1,1.957,3.172c.066.344.017.681.053,1C-997.4-8131.155-997.179-8130.882-997.474-8130.705Z" fill-rule="evenodd"/>
    <path d="M-1030.415-8135.358c-1.373.63-3.641.9-5.076,1.692-.614.038-.926.379-1.48.476.437-.937,1.852-.9,2.855-1.269a30.718,30.718,0,0,1,3.542-.952C-1030.488-8135.426-1030.482-8135.361-1030.415-8135.358Z" fill-rule="evenodd"/>
    <path d="M-1005.881-8135.2c-.231.338-.634.266-1.058.264a20.9,20.9,0,0,0-3.278.317c-1.69.261-2.929,1.407-4.283,1.9.573-.7,1.612-.927,2.168-1.639a18.4,18.4,0,0,1,6.239-.952C-1005.972-8135.32-1005.894-8135.292-1005.881-8135.2Z" fill-rule="evenodd"/>
    <path d="M-1004.824-8134.565c-.206.428-.807.266-1.163.265a20.391,20.391,0,0,0-3.807.211,24.167,24.167,0,0,0-4.124,1.481c1.593-1.34,4.442-2.038,7.191-2.115A5.235,5.235,0,0,1-1004.824-8134.565Z" fill-rule="evenodd"/>
    <path d="M-999.325-8134.406h.106c1.125.885,1.267,3.1,1.269,5.129-.449-1.715-.167-3.927-1.375-4.918-.008-.007.007-.043,0-.052Z" fill-rule="evenodd"/>
    <path d="M-1044.479-8133.56c-.175.477-.881.423-1.111.846.287.092.545-.3.9-.317a1.763,1.763,0,0,1-1.057.74c-.1-.1-.006-.133,0-.265-.161-.014-.206.17-.318.053A2.751,2.751,0,0,1-1044.479-8133.56Z" fill-rule="evenodd"/>
    <path d="M-1006.78-8121.452c-.027-1.291.073-2.577.053-3.595a10.782,10.782,0,0,0-2.009-5.182c-.333-.475-.743-1.033-1.217-1.586a5.589,5.589,0,0,1-1.163-1.639c-.01-.045.021-.05.053-.053s.053-.053.106-.053a7,7,0,0,1,1.9,2.009,14.279,14.279,0,0,1,2.8,6.134,12.322,12.322,0,0,1,.1,1.321C-1006.118-8123.184-1005.957-8121.913-1006.78-8121.452Z" fill-rule="evenodd"/>
    <path d="M-999.7-8133.349h.106c1.037,1.07.935,3.425,1.057,5.023-.376-1.194-.244-2.926-.74-4.071C-999.409-8132.713-999.733-8132.921-999.7-8133.349Z" fill-rule="evenodd"/>
    <path d="M-1038.61-8132.82c-.81.813-2.175,1.069-3.014,1.851a12.507,12.507,0,0,0-3.543,2.326.26.26,0,0,0-.317,0,31.144,31.144,0,0,0-2.538,2.115c.155-.62.734-.817,1.163-1.163.384-.638,1.318-.726,1.587-1.481.693-.557,1.56-.942,2.22-1.533h.264a21.149,21.149,0,0,1,3.755-1.851.741.741,0,0,0,.264-.264Z" fill-rule="evenodd"/>
    <path d="M-1032.266-8132.767c-2.477,1.294-5.543,2-7.825,3.49,1.573-1.847,4.581-2.258,6.927-3.331C-1032.857-8132.52-1032.6-8132.732-1032.266-8132.767Z" fill-rule="evenodd"/>
    <path d="M-1034.328-8132.608c-.262-.034-.3.16-.528.158C-1034.864-8132.637-1034.412-8132.857-1034.328-8132.608Z" fill-rule="evenodd"/>
    <path d="M-1048.075-8132.608c.135,0,.065.039.053.1a47.455,47.455,0,0,1-5.34,5.182c-1.074.851-2.017,1.87-3.067,2.75a8.91,8.91,0,0,1-1.8,2.167,1.376,1.376,0,0,1-.581,1,3.987,3.987,0,0,1-1.164,1.745c-.174-.556.327-.867.582-1.269.12-.189.144-.44.265-.635.154-.249.405-.47.581-.74s.3-.633.476-.846c.282-.339.654-.625.952-1a12.957,12.957,0,0,1,1.9-2.01,6.115,6.115,0,0,1,1.322-1,6.357,6.357,0,0,0,.423-.476,13.309,13.309,0,0,0,2.379-1.957,17.057,17.057,0,0,0,1.8-1.9,2.068,2.068,0,0,0,.793-.793C-1048.306-8132.346-1048.209-8132.5-1048.075-8132.608Z" fill-rule="evenodd"/>
    <path d="M-1000.012-8132.344c.085-.015.091.05.158.053a8.561,8.561,0,0,1,.582,4.653,5.166,5.166,0,0,1-.053-1.8,14.975,14.975,0,0,0-.37-1.745C-999.748-8131.552-1000.234-8131.958-1000.012-8132.344Z" fill-rule="evenodd"/>
    <path d="M-1044.849-8132.186a.757.757,0,0,1-.476.371C-1045.257-8132.029-1045.158-8132.212-1044.849-8132.186Z" fill-rule="evenodd"/>
    <path d="M-1044.056-8132.08c-.692.631-1.421,1.223-2.168,1.8a5.168,5.168,0,0,1,1.9-1.639C-1044.239-8131.969-1044.21-8132.158-1044.056-8132.08Z" fill-rule="evenodd"/>
    <path d="M-1047.229-8132.027c.062-.008.094.012.106.053a104.578,104.578,0,0,0-9.993,9.57,8.578,8.578,0,0,0-.846,1.217c-.234.388-.432.9-.9,1.11-.092-.374.226-.338.159-.687a30.892,30.892,0,0,1,6.239-6.715,42.561,42.561,0,0,1,4.282-3.7A5.054,5.054,0,0,1-1047.229-8132.027Z" fill-rule="evenodd"/>
    <path d="M-1000.541-8131.287c.942.7.853,2.3.74,3.49-.321-.051-.1-.8-.053-1.11C-999.874-8129.875-1000.447-8130.568-1000.541-8131.287Z" fill-rule="evenodd"/>
    <path d="M-1046.912-8130.176a.584.584,0,0,1-.423.37,10.778,10.778,0,0,1-1.269,1.269c-.218.236-.323.666-.687.634A6.249,6.249,0,0,1-1046.912-8130.176Z" fill-rule="evenodd"/>
    <path d="M-1047.44-8128.907c.061-.009.094.012.1.053-.462.474-.926,1.221-1.533,1.375C-1048.5-8128.066-1047.853-8128.368-1047.44-8128.907Z" fill-rule="evenodd"/>
    <path d="M-1025.233-8128.22c-.114.081-.158.23-.37.212-.024-.047-.047-.1-.106-.106C-1025.794-8128.542-1025.255-8128.586-1025.233-8128.22Z" fill-rule="evenodd"/>
    <path d="M-1047.176-8128.431c.09-.02.1.041.106.1-.428.313-.637.844-1.216,1.005C-1048.04-8127.815-1047.537-8128.053-1047.176-8128.431Z" fill-rule="evenodd"/>
    <path d="M-1045.643-8127.9c-.1.195-.329.27-.528.371A.7.7,0,0,1-1045.643-8127.9Z" fill-rule="evenodd"/>
    <path d="M-1046.277-8127.427q-.812.748-1.692,1.428v.264c-.787.359-.995,1.3-1.8,1.639a2.8,2.8,0,0,1,1.216-1.374c-.038-.162.054-.193.053-.317C-1047.692-8126.269-1047.26-8127.123-1046.277-8127.427Z" fill-rule="evenodd"/>
    <path d="M-1031.261-8126c-.162.1-.522.007-.635.159-.133-.254-.755-.02-.845-.318-.185.056-.29.251-.529.106-.045-.326.242-.322.317-.529.029-.187-.187-.13-.159-.317C-1032.442-8127.237-1031.527-8126.579-1031.261-8126Z" fill-rule="evenodd"/>
    <path d="M-1048.445-8126.369a.2.2,0,0,1-.211.211A.2.2,0,0,1-1048.445-8126.369Z" fill-rule="evenodd"/>
    <path d="M-1046.912-8125.417a.482.482,0,0,1-.37.264A.521.521,0,0,1-1046.912-8125.417Z" fill-rule="evenodd"/>
    <path d="M-1007.256-8125.206c.064.316-.166.42-.37.317C-1007.631-8125.123-1007.531-8125.252-1007.256-8125.206Z" fill-rule="evenodd"/>
    <path d="M-1018.042-8124.836c0,.125.091.156.053.317-.168.073-.177.012-.371,0C-1018.355-8124.726-1018.295-8124.877-1018.042-8124.836Z" fill-rule="evenodd"/>
    <path d="M-1047.863-8124.783a.146.146,0,0,1,.1.159c-.6.557-1.141,1.185-1.745,1.744C-1049.354-8123.7-1048.345-8124.119-1047.863-8124.783Z" fill-rule="evenodd"/>
    <path d="M-1001.916-8124.783c.208.19-.236.548-.158.952-.568,1.23-.968,2.627-1.428,3.965-.332.179-.259.763-.687.846.212-1.2,1.048-2.229,1.269-3.6A14.83,14.83,0,0,1-1001.916-8124.783Z" fill-rule="evenodd"/>
    <path d="M-1001.863-8124.466c.086-.015.091.05.159.053a11.477,11.477,0,0,1-1.269,4.6,2.546,2.546,0,0,1-.846,1.692c.084-.747.666-1.447.74-2.379.114-.1.14-.284.265-.37.252-1.211.723-2.2.951-3.437Z" fill-rule="evenodd"/>
    <path d="M-1046.542-8124.254c-1,.9-1.954,1.852-2.908,2.8-.069.244-.276.587-.581.423A13.576,13.576,0,0,1-1046.542-8124.254Z" fill-rule="evenodd"/>
    <path d="M-1049.45-8122.192a8.374,8.374,0,0,1,2.062-1.956c-.35.585-1.184,1.047-1.533,1.639C-1048.989-8122.393-1049.152-8122.026-1049.45-8122.192Z" fill-rule="evenodd"/>
    <path d="M-1001.387-8124.2c.317.418-.08,1.29-.211,1.9-.343,1.6-.958,2.941-1.322,4.494-.3.247-.365,1-.74,1.005-.091-.455.309-.856.475-1.322.161-.448.153-1.027.529-1.322C-1002.416-8121-1001.566-8122.4-1001.387-8124.2Z" fill-rule="evenodd"/>
    <path d="M-1000.911-8124.148c.062-.009.094.011.106.052a15.843,15.843,0,0,1-.846,4.812,32.473,32.473,0,0,0-1.481,3.384c-.126.277-.2.759-.581.793-.029-1,.831-1.564.9-2.644A17.75,17.75,0,0,0-1000.911-8124.148Z" fill-rule="evenodd"/>
    <path d="M-1050.4-8122.562c-.1.078-.079.273-.264.264C-1050.622-8122.431-1050.6-8122.581-1050.4-8122.562Z" fill-rule="evenodd"/>
    <path d="M-1049.82-8122.245c-.116.13-.147.346-.37.37A.528.528,0,0,1-1049.82-8122.245Z" fill-rule="evenodd"/>
    <path d="M-1016.72-8122.033a.612.612,0,0,1,0,.528.986.986,0,0,1-.423-.053C-1017.124-8121.838-1017.074-8122.088-1016.72-8122.033Z" fill-rule="evenodd"/>
    <path d="M-999.113-8121.558c.051,0,.041.065.053.106a27.183,27.183,0,0,1-.9,5.023c-.073.156-.244.214-.318.37a18.325,18.325,0,0,1-2.96,5.5c-.154-.328.225-.539.211-.9A25.269,25.269,0,0,0-999.113-8121.558Z" fill-rule="evenodd"/>
    <path d="M-1048.233-8121.293c-.238.22-.372.544-.741.634A1.483,1.483,0,0,1-1048.233-8121.293Z" fill-rule="evenodd"/>
    <path d="M-999.008-8119.5c.062-.008.095.012.106.053a10.554,10.554,0,0,1-.634,2.961,11.74,11.74,0,0,1-.741,2.538,13.366,13.366,0,0,0-1.057,2.274c-2.023,2.63-3.466,5.84-5.605,8.354-.473.136-.919.83-1.533.476-.022-.322.39-.274.582-.37a8.684,8.684,0,0,0,2.855-3.331c.446-.764.719-1.646,1.163-2.327.114-.175.342-.256.476-.423a15.045,15.045,0,0,0,.952-1.48c.307-.511.694-1,.951-1.481a28.905,28.905,0,0,0,2.062-5.657A4.939,4.939,0,0,0-999.008-8119.5Z" fill-rule="evenodd"/>
    <path d="M-1004.877-8118.808c.086-.015.091.05.159.053-.065,1.01-.786,1.364-1.005,2.221-.963,1.274-2.062,2.413-3.119,3.6C-1007.543-8114.918-1005.9-8116.551-1004.877-8118.808Z" fill-rule="evenodd"/>
    <path d="M-1038.4-8118.279c-.134.156-.31.4-.581.264C-1039.069-8118.544-1038.506-8118.793-1038.4-8118.279Z" fill-rule="evenodd"/>
    <path d="M-1004.718-8117.433a27.673,27.673,0,0,1-1.48,2.7c-.769.7-1.321,1.886-2.168,2.327a39.164,39.164,0,0,0,3.436-5.076C-1004.835-8117.493-1004.818-8117.422-1004.718-8117.433Z" fill-rule="evenodd"/>
    <path d="M-1004.295-8117.116c.168.477-.26.867-.423,1.163-.084.152-.041.368-.106.529a5.393,5.393,0,0,1-1.322,1.745,9.269,9.269,0,0,1-2.009,2.22,3.368,3.368,0,0,1,1.164-1.374c.555-.89,1.183-1.707,1.8-2.538.06-.59.587-.885.476-1.481C-1004.528-8116.891-1004.584-8117.176-1004.295-8117.116Z" fill-rule="evenodd"/>
    <path d="M-1037.976-8116.957c.087.159-.267.33-.476.37C-1038.445-8116.863-1038.072-8116.772-1037.976-8116.957Z" fill-rule="evenodd"/>
    <path d="M-1061.928-8116.217c1.374.636,1.948,2.07,2.644,3.384-.961-1-1.628-2.285-2.75-3.12C-1061.98-8116.022-1061.982-8116.148-1061.928-8116.217Z" fill-rule="evenodd"/>
    <path d="M-1004.136-8115.741a16.149,16.149,0,0,1-4.495,6.186c-.21-.068.066-.333.265-.317.368-.46.586-1.071,1.163-1.322a3.039,3.039,0,0,1,.846-1.058c.741-1.127,1.322-2.415,2.062-3.542A.25.25,0,0,0-1004.136-8115.741Z" fill-rule="evenodd"/>
    <path d="M-1062.668-8114.737a5.515,5.515,0,0,1,2.009,2.855,18.239,18.239,0,0,0-2.115-2.591C-1062.819-8114.641-1062.691-8114.636-1062.668-8114.737Z" fill-rule="evenodd"/>
    <path d="M-1004.295-8114.367a2.4,2.4,0,0,1-.264.9,10.319,10.319,0,0,1-.9,1.534,6.846,6.846,0,0,1-.423.74,3.015,3.015,0,0,1-.529.423c-.453.37-.7,1.036-1.269,1.269a8.911,8.911,0,0,1,1.639-1.9c.472-1.043,1.164-1.867,1.586-2.961Z" fill-rule="evenodd"/>
    <path d="M-1062.88-8114h.159a9.208,9.208,0,0,1,1.85,2.909c-.769-.853-1.3-1.939-2.114-2.75A.372.372,0,0,0-1062.88-8114Z" fill-rule="evenodd"/>
    <path d="M-1025.339-8105.114a10.638,10.638,0,0,0-1.8-7.614c-.175-.265-.5-.383-.529-.793.014-.182.47-.2.529-.158,1.493.834,2.166,3.546,2.433,5.816a8.281,8.281,0,0,1,0,1.427C-1024.741-8105.977-1024.716-8105.136-1025.339-8105.114Z" fill-rule="evenodd"/>
    <path d="M-1004.189-8113.2a8,8,0,0,1-2.75,3.859.667.667,0,0,1-.475.582c.055-.539.583-.851.951-1.269.643-.729,1.174-1.594,1.745-2.379a1.436,1.436,0,0,1,.37-.793Z" fill-rule="evenodd"/>
    <path d="M-1062.774-8112.78c.111-.023.14.036.212.052.249.329.349.643.581.952.989,1.315,3.027,1.9,2.908,4.019-.251-.136-.139-.4-.211-.582C-1060.016-8110.185-1062.573-8110.6-1062.774-8112.78Z" fill-rule="evenodd"/>
    <path d="M-1063.356-8112.516h.106c.633.5-.261,2.083.37,2.432a13.5,13.5,0,0,1-.952,4.389c-.352-.156-.107-.78,0-1.164.132-.471.42-1.071.582-1.48-.451.106-.192.643-.582.846A32.261,32.261,0,0,0-1063.356-8112.516Zm.212,2.591c.023-.118.121-.287-.053-.318C-1063.284-8110.16-1063.22-8110-1063.144-8109.925Z" fill-rule="evenodd"/>
    <path d="M-1016.086-8112.357a.434.434,0,0,1,.476.211c.017.3-.174.39-.317.529C-1016.191-8111.68-1016.285-8112.138-1016.086-8112.357Z" fill-rule="evenodd"/>
    <path d="M-1004.084-8112.2a8.347,8.347,0,0,1-2.114,2.961c.34-1.088,1.445-1.867,1.956-2.961Z" fill-rule="evenodd"/>
    <path d="M-1004.084-8111.3a.253.253,0,0,0,.159.053c-.008.433-.3.581-.529.793-.2.347-.289.8-.687.952C-1005.09-8110.195-1004.471-8110.769-1004.084-8111.3Z" fill-rule="evenodd"/>
    <path d="M-1003.555-8110.613a2.158,2.158,0,0,1-.793,1.111A1.306,1.306,0,0,1-1003.555-8110.613Z" fill-rule="evenodd"/>
    <path d="M-1062.457-8110.19h.159a7.943,7.943,0,0,1-.846,4.23c-.371-.161-.013-.773.106-.951A11.026,11.026,0,0,0-1062.457-8110.19Z" fill-rule="evenodd"/>
    <path d="M-1061.981-8110.084a4.8,4.8,0,0,1-.423,3.913c-.2-.7.306-1.4.423-2.168a7.18,7.18,0,0,0-.106-1.586A.147.147,0,0,0-1061.981-8110.084Z" fill-rule="evenodd"/>
    <path d="M-1061.294-8109.872h.159c-.028.635.074,1.2,0,1.744-.062.46-.118,1.126-.581,1.375-.067-.612.536-1.6.264-2.432C-1061.337-8109.352-1061.375-8109.672-1061.294-8109.872Z" fill-rule="evenodd"/>
    <path d="M-1053.785-8109.132c-.009.15-.1.22-.106.37-.162.038-.193-.054-.317-.053C-1054.348-8109.076-1054.022-8109.389-1053.785-8109.132Z" fill-rule="evenodd"/>
    <path d="M-1004.559-8109.238a1.562,1.562,0,0,1-.106.846,18.811,18.811,0,0,1-2.432,3.966c-.6.215-.757.864-1.375,1.057a41.55,41.55,0,0,0,2.538-3.331c.3-.868.8-1.524,1.11-2.379-.015-.086.05-.091.053-.159Z" fill-rule="evenodd"/>
    <path d="M-1005.353-8108.551a14.87,14.87,0,0,1-3.754,5.288c-.1-.183.126-.419.318-.476a38.286,38.286,0,0,0,3.172-4.917C-1005.485-8108.664-1005.453-8108.573-1005.353-8108.551Z" fill-rule="evenodd"/>
    <path d="M-1059.073-8107.6c.151.026.152.2.212.318C-1059.1-8107.221-1059-8107.494-1059.073-8107.6Z" fill-rule="evenodd"/>
    <path d="M-1008.366-8107.123a7.1,7.1,0,0,1-1.587,1.745,7.765,7.765,0,0,1-4.864,2.485,11.889,11.889,0,0,0,4.97-3.014C-1009.405-8106.366-1009.059-8107-1008.366-8107.123Z" fill-rule="evenodd"/>
    <path d="M-1034.116-8107.07c.137.081.37.265.211.476C-1034.164-8106.586-1034.217-8106.868-1034.116-8107.07Z" fill-rule="evenodd"/>
    <path d="M-1010.587-8106.7c-.075.524-.643.556-.846.952-1.371.655-2.348,1.706-4.124,1.956.277-.413.806-.508,1.216-.687a18.972,18.972,0,0,0,3.49-2.221c.013-.057.105-.036.105-.106C-1010.676-8106.787-1010.663-8106.713-1010.587-8106.7Z" fill-rule="evenodd"/>
    <path d="M-1009.794-8106.753c.032.642-.907.743-1.11,1.322a13.828,13.828,0,0,1-3.331,1.9c-.309.106-.673.425-1.058.211a15.966,15.966,0,0,0,5.288-3.437Z" fill-rule="evenodd"/>
    <path d="M-1057.857-8106.33a5.462,5.462,0,0,0,2.009.159,1.735,1.735,0,0,1-2.061.211C-1057.909-8106.1-1057.929-8106.262-1057.857-8106.33Z" fill-rule="evenodd"/>
    <path d="M-1029.727-8105.695c.013.18.133.254.105.476a.692.692,0,0,1-.476.053C-1030.131-8105.5-1030-8105.67-1029.727-8105.695Z" fill-rule="evenodd"/>
    <path d="M-1036.39-8101.941a5.2,5.2,0,0,0-.687-3.543c-.016-.139.11-.136.211-.158a3.609,3.609,0,0,1,1.005,2.59C-1035.877-8102.6-1036.024-8102-1036.39-8101.941Z" fill-rule="evenodd"/>
    <path d="M-1018.36-8104.426c.074.161.091.441-.105.476-.154.013-.183-.1-.265-.159C-1018.725-8104.333-1018.6-8104.442-1018.36-8104.426Z" fill-rule="evenodd"/>
    <path d="M-1046.489-8104.056c.108.051.115.2.106.37C-1046.551-8103.733-1046.562-8103.9-1046.489-8104.056Z" fill-rule="evenodd"/>
    <path d="M-1043.21-8103.422c0,.248-.379.335-.582.212C-1043.945-8103.651-1043.405-8103.793-1043.21-8103.422Z" fill-rule="evenodd"/>
    <path d="M-1054.631-8103.316a.536.536,0,0,1-.423.106C-1054.935-8103.268-1054.757-8103.426-1054.631-8103.316Z" fill-rule="evenodd"/>
    <path d="M-1011.486-8103.1a6.963,6.963,0,0,1-1.851.687,13.3,13.3,0,0,1-2.96.476c.052-.249.634-.245.793-.212,1.16-.461,2.627-.615,3.7-1.163C-1011.579-8103.364-1011.537-8103.23-1011.486-8103.1Z" fill-rule="evenodd"/>
    <path d="M-1050.349-8103.263a.271.271,0,0,0,.159.159.447.447,0,0,1-.635.476C-1050.874-8103.048-1050.679-8103.224-1050.349-8103.263Z" fill-rule="evenodd"/>
    <path d="M-1010.217-8102.787c-1.824,1.207-5.05,1.294-7.4,1.8.233-.332.743-.329,1.163-.423.483-.11,1.036-.237,1.533-.37,1.418-.381,3.12-.47,4.177-1C-1010.645-8102.838-1010.409-8103.035-1010.217-8102.787Z" fill-rule="evenodd"/>
    <path d="M-1022.272-8102.417c.079.144.237-.237.37-.053-.139.943-.414,2.157-1.375,1.269C-1023.042-8101.614-1022.731-8103.4-1022.272-8102.417Z" fill-rule="evenodd"/>
    <path d="M-1038.029-8102.576c.066.251.126.509.212.741C-1038.037-8101.912-1038.1-8102.381-1038.029-8102.576Z" fill-rule="evenodd"/>
    <path d="M-1009.424-8102.47a1.962,1.962,0,0,1-.952.582,26.757,26.757,0,0,1-7.085,1.427c.068-.328.387-.165.582-.211.716-.169,1.474-.3,2.221-.423a29.113,29.113,0,0,0,4.917-1.481A.428.428,0,0,1-1009.424-8102.47Z" fill-rule="evenodd"/>
    <path d="M-1008.208-8102.258c-.113.325-.447.276-.687.37a23.7,23.7,0,0,1-2.485,1,37.633,37.633,0,0,1-6.239,1.111c.263-.3.873-.342,1.322-.423.723-.132,1.454-.215,2.167-.37.23-.05.417-.2.635-.265.888-.246,1.753-.354,2.591-.634s1.623-.721,2.485-.952A.9.9,0,0,1-1008.208-8102.258Z" fill-rule="evenodd"/>
    <path d="M-1019.576-8101.888c-.03.129-.045.272-.211.264C-1019.757-8101.753-1019.742-8101.9-1019.576-8101.888Z" fill-rule="evenodd"/>
    <path d="M-1019.946-8101.465c.09-.02.1.041.106.106-.566.526-.926,1.259-1.533,1.744-.144.473-.607.79-.952,1.164-.248.268-.43.721-.793.687-.047-.382.161-.509.423-.582C-1021.814-8099.421-1020.817-8100.38-1019.946-8101.465Z" fill-rule="evenodd"/>
    <path d="M-1018.677-8100.936c.212,0,.058.411-.106.37C-1018.817-8100.76-1018.668-8100.769-1018.677-8100.936Z" fill-rule="evenodd"/>
    <path d="M-1018.836-8100.514c-.035.48-.455,1.3-1,1.269A5.631,5.631,0,0,1-1018.836-8100.514Z" fill-rule="evenodd"/>
    <path d="M-1026.767-8100.3c-.755.712-1.679,1.506-2.538,2.221a3.366,3.366,0,0,1-1.956,1.11c.179-.493.771-.618,1.163-.9a6.523,6.523,0,0,0,1.534-1.269c.308.009.347-.252.528-.37.538-.1.76-.509,1.111-.793Z" fill-rule="evenodd"/>
    <path d="M-1024.493-8097.129c.019-.417.432-.652.687-.9a8.852,8.852,0,0,1,1.428-1.322c.063-.29.288-.417.423-.635.1-.015.109.05.053.053a14.564,14.564,0,0,1-1.639,2.115A1.986,1.986,0,0,1-1024.493-8097.129Z" fill-rule="evenodd"/>
    <path d="M-1023.33-8099.615c.062.009.045.1.053.159a23.865,23.865,0,0,1-2.379,2.485c-.11-.413.318-.617.581-.846C-1024.455-8098.357-1023.953-8099.115-1023.33-8099.615Z" fill-rule="evenodd"/>
    <path d="M-1024.387-8099.456c.094-.015.108.05.053.053a10.912,10.912,0,0,1-1.586,1.8c-.249.372-.591.919-1.058.9.358-.911,1.384-1.153,1.8-2.009A3.715,3.715,0,0,0-1024.387-8099.456Z" fill-rule="evenodd"/>
    <path d="M-1041.624-8099.3c-.094.251-.279.1-.582.158C-1042.078-8099.258-1041.824-8099.251-1041.624-8099.3Z" fill-rule="evenodd"/>
    <path d="M-1047.863-8094.7h-.318C-1048.17-8094.776-1047.835-8094.91-1047.863-8094.7Z" fill-rule="evenodd"/>
    <path d="M-1040.567-8137.843a4.291,4.291,0,0,1-1.745.952.3.3,0,0,0-.053.211,12.22,12.22,0,0,0-2.061,1.322c-.21.184-.311.641-.688.529a7.249,7.249,0,0,1,2.591-2.062A14.337,14.337,0,0,1-1040.567-8137.843Z" fill-rule="evenodd"/>
    <path d="M-1030.626-8134.988c-1.34.988-3.463,1.191-4.865,2.115-.234.076-.138-.179-.317-.158-1.128.635-2.431,1.093-3.543,1.744a.444.444,0,0,0,.212.371c1.431-.473,2.659-1.148,4.124-1.587-.725.685-1.982.838-2.749,1.481-1.954.5-3.348,1.834-4.759,2.7.654-1.143,1.971-1.624,3.014-2.379-.128-.1-.435-.023-.37-.317-.313.04-.41.295-.741.317a9.39,9.39,0,0,1-1.8,1.058,17.919,17.919,0,0,1-1.8,1.216,3.81,3.81,0,0,1,2.273-1.745c.424-.51,1.2-.667,1.692-1.111a35.437,35.437,0,0,1,4.072-1.639C-1034.683-8133.969-1032.488-8134.312-1030.626-8134.988Z" fill-rule="evenodd"/>
    <path d="M-1047.493-8133.19c.059.149-.258.375-.423.476C-1047.791-8132.889-1047.627-8133.025-1047.493-8133.19Z" fill-rule="evenodd"/>
    <path d="M-1046.806-8128.8c.061-.539.675-.524.793-1.005,2.006-1.1,3.668-2.536,5.975-3.331a14.942,14.942,0,0,1-2.379,1.375,22.231,22.231,0,0,1-3.278,2.115A2.591,2.591,0,0,1-1046.806-8128.8Z" fill-rule="evenodd"/>
    <path d="M-1053.2-8123.3c1.362-1.07,2.42-2.444,3.807-3.489-1.088,1.38-2.465,2.47-3.542,3.86a.526.526,0,0,0,.211.37c1.525-.961,2.662-2.59,4.019-3.543-1.187,1.352-2.512,2.565-3.754,3.86a7.3,7.3,0,0,0,.581.9c.483-.2.693-.682,1.163-.9-.209.461-.632.707-.951,1.058-.013.224.154.268.211.423.481-.119.583-.616,1.005-.794-.229.353-.517.647-.741,1,.087.283.344.4.476.634.217-.012.279-.179.476-.211-.024.223-.25.243-.317.423.649.409.964-.765,1.586-.9-.1.282-.379.383-.634.635-.074.072-.579.528-.582.634,0,.085.439.5.582.687.89,1.183,2.422,2.8,3.014,4.336.285.74.364,1.226.634,1.9-.9-1.182-1.389-2.771-2.326-3.913-.8-.787-1.406-1.767-2.168-2.591-.2-.076-.1.145-.265.106,1.281,1.84,2.854,3.655,3.649,5.975a9.537,9.537,0,0,0,.687,1.745c-.424.029-.523-.554-.687-.9a4.11,4.11,0,0,1-.476-1.164c-.531-.817-.942-1.754-1.481-2.59a11.939,11.939,0,0,0-1.322-1.851c-.052-.054-.06-.15-.211-.106a1.3,1.3,0,0,0-.476-.634c-.1.108-.312.111-.317.317.063.2.259.269.317.476.166-.028.17-.218.423-.159-.023.188-.214.209-.317.317a27.937,27.937,0,0,1,3.86,7.191c-1.17-1.667-1.852-3.823-3.173-5.34-.176-.089-.18.034-.37.053.038-.12.159-.158.264-.212a6.643,6.643,0,0,0-.793-1.216.6.6,0,0,0-.317,1.058c.256-.079.372-.3.529-.476.181.127-.261.5-.37.687a2.139,2.139,0,0,0,.264.318c.232.055.174-.179.37-.159a.748.748,0,0,1-.211.423c.667.778,1.1,1.794,1.692,2.644.185-.146.347-.2.529,0,.051.263-.214.209-.265.37a29.547,29.547,0,0,1,1.533,2.855c.852-.488,1.495-1.184,2.327-1.692a.764.764,0,0,1-.37-.846c.425.033.338.578.74.635.288-.133-.269-.409-.053-.635.306-.024.264.3.529.317.014-.256-.143-.49.053-.634.255.1.308.386.634.158-.006-.274-.348-.44-.158-.74.284.016.232.367.476.423.209,0,.306-.116.475-.158.01-.418-.414-.775-.158-1.111.3.1.356.455.37.846.166.026.207-.075.317-.106-.053-.165-.211-.424-.106-.581.192-.126.256.251.37.37.095.007.112-.065.212-.053-.216-.652-.478-1.345-.74-2.062-.582-1.592-1.641-3.147-1.534-4.97.606,1.107.637,2.137,1.269,3.225.044.149-.074.137-.053.265.031.054.284-.022.212.264-.15-1.522-1.139-3.019-.952-4.6.29.124.326.756.318,1,.518,1.386.8,3.008,1.427,4.283a1.142,1.142,0,0,0,.317-.106c-.308-.976-.812-2.037-1.11-3.066a1.515,1.515,0,0,1-.053-1,25.081,25.081,0,0,1,1.322,3.807c.646-.235,1.074-.688,1.745-.9-.413.609-1.479.566-1.534,1.534.834-.034,1.444-1.021,2.274-1.058-.629.57-1.53.867-2.062,1.533.98-.2,1.743-1.076,2.855-1.321-.83.668-1.982,1.013-2.7,1.8.846-.017,1.333-.852,2.22-1a2.98,2.98,0,0,1,1.428-.688c-1.08.806-2.522,1.25-3.437,2.221,1.534-.457,2.785-1.656,4.336-2.274-.2-.474-.81-.807-.793-1.321.807.032.753,1.109,1.427,1.11-.161-.67-.853-1.083-.9-1.692a2.306,2.306,0,0,1,1.057,1.322c.094.147.486.054.317.317.15.008.123-.159.265-.158-.16-.654-.963-.938-.9-1.64.508.144.556.749,1,.952.043.222.157.473.423.317-.071-.526-.862-.781-.634-1.269.564.124.59.785,1.057,1,.145.039.107-.1.212-.106-.071-.581-.779-.807-.582-1.48.545.389.759,1.109,1.216,1.586.106-.053.226-.091.265-.212-.242-.68-.933-1.174-.9-1.956.647.307.729,1.453,1.322,1.639.178-.135-.093-.277-.159-.423a5.98,5.98,0,0,0-.37-.846c-.144-.221-.525-.476-.265-.74.666.4.609,1.19,1.164,1.692.218-.029.309-.184.476-.264-.266-.654-.847-1.266-.794-2.063.6.407.58,1.43,1.217,1.8-.1-.493-.638-.958-.423-1.427.538.1.312.956.793,1.11,1.644,4.257,3.672,8.646,3.86,14.012-.507-2.508-.835-5.193-1.8-7.244a24.372,24.372,0,0,0-1.8-5.076c-.182-.445-.185-.921-.582-1.216a43.2,43.2,0,0,1,1.957,5.71,40.3,40.3,0,0,1,1.216,6.081c.083.426.319.807.211,1.216a4.885,4.885,0,0,1-.581-1.692,56.144,56.144,0,0,0-1.639-7.508c-.13-.375-.394-.7-.529-1.058a8.22,8.22,0,0,0-1-2.432c-.217.012-.292.166-.423.264a15.3,15.3,0,0,1,.688,1.851c.1.262.239.518.37.9.243.707.507,1.379.687,2.115.324,1.321.687,2.6.952,4.018.219,1.174.543,2.349.74,3.543-.193-.142-.158-.511-.37-.634.086-.26-.1-.467-.159-.688-.759-3.078-1.112-6.334-2.432-8.83a5.419,5.419,0,0,0-.9-1.956c.181,1.382,1.109,2.528,1.322,3.965.141.95.619,2.186.793,3.384.021.141-.032.327,0,.476.055.254.22.483.265.74a33.6,33.6,0,0,0,.634,3.807c-.457-.258-.423-1.1-.581-1.8-.233-1.031-.606-2.471-.794-3.6a24.783,24.783,0,0,0-2.115-6.609c-.1,0-.067.144-.211.106a48.291,48.291,0,0,1,1.639,5.71.719.719,0,0,1-.582,0c-.069-.3.2-.263.265-.423a27.957,27.957,0,0,0-1.639-4.864c-.183-.042-.223.058-.317.1a11.927,11.927,0,0,1,1.216,4.389c-.563-.688-.484-2.02-1.005-2.75-.386.175-.066.873.053,1.375a2.294,2.294,0,0,0,.264.688c-.1.4.187.817.212,1.269a.26.26,0,0,1-.318,0c.025.275.2.4.159.74-.712-.963-.924-2.424-1.586-3.437-.283.084-.088.559.106.634.136,1.067.6,1.931.687,2.961-.4-.643-.685-1.882-1.057-2.538-1.509.889-2.935,1.86-4.389,2.8,1.041-.369,1.759-1.061,2.75-1.481-.213.518-.81.732-1.27,1s-.943.591-1.374.9c.022.1.114.133.106.264.912-.358,2.024-1.251,2.961-1.586-.732.925-2.1,1.217-2.856,2.115.228.132.463-.119.582-.265,1.1-.452,1.788-1.313,2.908-1.744a18.465,18.465,0,0,1-3.12,2.326c1.27-.4,2.325-1.483,3.6-2.062-.982,1.151-2.526,1.739-3.7,2.7.054.069.051.2.1.264a30.443,30.443,0,0,0,3.437-2.062c.053.295-.381.5-.634.687-.82.6-1.869,1.225-2.7,1.8.519.08,1-.412,1.481-.687a15.464,15.464,0,0,1,1.48-.9,15.19,15.19,0,0,1-2.8,2.115,1.989,1.989,0,0,0,1.163-.37,16.634,16.634,0,0,1,2.168-1.322c.111.191-.263.282-.423.37-.48.366-1.014.863-1.586,1.216-.406.25-1.018.308-1.164.74a3.866,3.866,0,0,0,1.375-.634,7.781,7.781,0,0,1,1.586-1.005,20.222,20.222,0,0,1-2.908,2.168,19.269,19.269,0,0,1,.582,2.168c-.433-.519-.433-1.47-.793-2.062-.28.863.175,1.969.211,3.067a25.959,25.959,0,0,0-1-3.014,6.92,6.92,0,0,0,.687,2.379c-.333.017-.448-.464-.529-.687-.305-.85-.5-1.986-.846-3.014a27.067,27.067,0,0,0-1.851-4.283c-.439.236.116,1,.265,1.322.444,1.426.891,2.963,1.216,4.494a8.666,8.666,0,0,1,.476,1.851c-.248-.05-.152-.313-.212-.476-.765-2.087-1.16-4.831-2.273-6.768-.146-.107-.277.153-.423.211a42.563,42.563,0,0,1,1.8,5.764,14.487,14.487,0,0,1-1.164-3.384c-.076-.434-.8-2.762-1.216-1.851a12.134,12.134,0,0,1,.9,2.908c-.2-.1-.256-.343-.264-.634-.252-.5-.461-1.272-.74-1.851-.033-.066-.4-.795-.529-.793-.226,0,.212.6.264.74a2.632,2.632,0,0,1,.159,1,2.447,2.447,0,0,1,.264.9c-.532-.649-.427-1.934-1.163-2.38.08.7.462,1.548.634,2.327-.494-.475-.572-1.367-.951-1.957-.536-.018-.561.737-1.058.582.092-.542.719-.549.846-1.057-.019-.07-.093-.084-.1-.159a14.945,14.945,0,0,0-2.38,1.8,15.425,15.425,0,0,1,.9,2.644,10.941,10.941,0,0,1-1.163-2.327c-.2.011-.257.166-.423.211a17.929,17.929,0,0,1,1.163,3.173,26.932,26.932,0,0,1-1.428-2.8c-.249.085-.367.3-.528.476.036.213.338.594.1.74-.2-.1-.229-.37-.317-.582-.356.261-.527.706-1.005.846.107-.581.549-.827.846-1.216a19.854,19.854,0,0,0-3.225-5.975c-.163.049-.211.212-.317.317a9.241,9.241,0,0,1,2.168,4.019,10.091,10.091,0,0,1,.528,1.163c-.55,0-.388-1.159-1.11-1.163a.832.832,0,0,1,.159-.476,11.067,11.067,0,0,0-2.009-3.12c-.329.612.67,1.368.845,2.01.074.12.183.2.265.317.009.5.371.651.37,1.163a3.984,3.984,0,0,1,.581,1.269c-.948-1.2-1.517-2.783-2.432-4.018a.373.373,0,0,0-.317.211,30.13,30.13,0,0,1,1.851,4.019c-.963-.924-1.246-2.526-2.062-3.6-.194,0-.2.185-.318.265.333.795.812,1.444,1.164,2.22-.62-.455-.866-1.284-1.375-1.85-.285.015-.192.407-.529.37-.175-.366.211-.59.37-.793,0-.1-.144-.068-.106-.212-.367.021-.281.494-.634.529-.131-.375.4-.784.317-1.11-.393.132-.4.878-.846.793-.109-.214.2-.615-.158-.741-.326.021-.353.584-.741.371.186-.452.676-.812.212-1.217-.429.453-.534,1.229-1.216,1.428-.043-.607.367-.761.529-1.163-.06-.116-.177-.176-.212-.317-.344.19-.426.906-.793.9.13-.5.379-.89.529-1.374-.006-.136-.207-.076-.212-.212-.8.659-1.032,1.893-1.85,2.538.14-.811.757-1.146.952-1.9a34.413,34.413,0,0,0-2.221-2.856c-.232-.267-.679-.515-.582-.951.455.026.716.485.952.793a16.9,16.9,0,0,1,1.9,2.7c.221.045.21-.143.318-.211-.672-.88-1.367-1.735-2.01-2.644-.283-.251-.9-.436-.74-.951a2.757,2.757,0,0,1,1.11.793c.479.518.927,1.49,1.481,2.009a.8.8,0,0,0,.264.476c.519-.358-.611-.984-.687-1.428a.231.231,0,0,0-.211-.106c-.335-.989-1.452-1.473-1.746-2.326.405-.111.789.382,1.058.687.679.77,1.32,1.8,1.956,2.644.108-.016.1-.143.212-.159a4.414,4.414,0,0,0-.952-1.269c-.362-.978-1.49-1.469-1.639-2.485.418.1.836.654,1.216,1.111.361.433.76.908,1.005,1.269.183.27.442,1.192.846.74-.194-.515-.8-.889-.688-1.533.566.1.55.789.952,1.057.152-.148-.188-.345,0-.529.146-.158.311.178.476,0-.016-.312-.3-.481,0-.687.248-.055.141.247.37.211.268-.175.147-.487.211-.793.112-.116.236-.011.318.053.766-.8,1.478-1.659,2.221-2.485a2.789,2.789,0,0,0-.688-.952c-.282.388-.331,1.009-.846,1.163a4.044,4.044,0,0,1,.74-1.427,1.379,1.379,0,0,0-.264-.423c-.505.341-.613,1.079-1.11,1.427.055-.844.575-1.222.9-1.8-.046-.112-.161-.156-.158-.317-.7.566-.945,1.593-1.639,2.167.047-1.064,1-1.68,1.48-2.485-.154-.092-.1-.392-.264-.476a12.843,12.843,0,0,0-2.432,3.173c-.134-.676.3-.945.634-1.428.19-.277.272-.633.423-.846.063-.088.245-.126.317-.211.255-.3.442-.691.741-1,1.019-1.071,2.126-2.044,3.225-3.119,1-.978,2.037-1.943,3.12-2.909.516-.46.954-1,1.427-1.427a9.926,9.926,0,0,0,1.269-1.269,1.722,1.722,0,0,1-.529.846c-2.248,2.453-5.126,4.7-7.4,7.244.112.135.285.208.317.423.3-.086.293-.326.318-.582.1-.1.193-.016.317,0a48.237,48.237,0,0,0,3.542-3.331c-.7,1.218-2.088,2.212-3.013,3.384C-1053.128-8123.8-1053.418-8123.537-1053.2-8123.3Zm-1.692.212c.142.069.106.318.317.317.158-.072.22-.239.318-.37a.315.315,0,0,1-.106-.423C-1054.595-8123.653-1054.721-8123.23-1054.9-8123.091Zm1.005.053c-.04.163.145.1.106.264a.253.253,0,0,0,.158-.476C-1053.669-8123.133-1053.812-8123.117-1053.891-8123.038Zm-.582.687c.063.079.046.236.212.212.088-.141.3-.156.317-.37-.074-.014-.06-.116-.106-.159A.379.379,0,0,0-1054.473-8122.351Zm.952,0a4.487,4.487,0,0,1,.264.37.289.289,0,0,0,.265-.264c-.061-.133-.211-.177-.212-.37C-1053.44-8122.658-1053.5-8122.521-1053.521-8122.351Zm-.635.582c.138.11.185.309.371.37C-1053.228-8121.614-1053.928-8122.369-1054.156-8121.769Zm1.64.9a.372.372,0,0,0,.37-.212c-.33-.164-.33-.656-.74-.74C-1053.133-8121.5-1052.582-8121.217-1052.516-8120.87Zm-1.058-.053c.209.249.3.615.635.74-.029-.187.187-.13.158-.317C-1053-8120.766-1053.347-8121.733-1053.574-8120.923Zm1.322.317a.46.46,0,0,0,.264.423.932.932,0,0,1,.212-.159C-1051.786-8120.654-1052.019-8120.795-1052.252-8120.606Zm-.582.793c.215-.021.163.225.318.265.1-.094.234-.154.211-.371C-1052.457-8120.1-1052.8-8120.135-1052.834-8119.813Zm1.058-.053c.17.173.475.663.74.265C-1051.223-8119.791-1051.542-8120.332-1051.776-8119.866Zm-2.327,1.428a3.95,3.95,0,0,0-1.11,1.9,25.742,25.742,0,0,0,2.379-2.644c-.134-.113-.181-.313-.37-.37A4.76,4.76,0,0,1-1054.1-8118.438Zm1.8-.952a.789.789,0,0,0,.476.582c.029-.129.2-.113.159-.317-.2-.079-.225-.34-.423-.423C-1052.263-8119.6-1052.2-8119.411-1052.305-8119.39Zm1.216.212c.018.249.293.224.423.1C-1050.639-8119.4-1051.029-8119.473-1051.089-8119.178Zm-3.913,3.066c.088.106.142.246.318.265a.534.534,0,0,0,.264-.793c.108-.016.1-.143.212-.159.1.023.095.151.264.106.554-.591,1.1-1.193,1.692-1.745-.08-.255-.321-.349-.476-.529C-1053.465-8117.994-1054.349-8117.169-1055-8116.112Zm3.226-2.485a.4.4,0,0,0,.317.318.569.569,0,0,0,.264-.318C-1051.39-8118.83-1051.568-8118.8-1051.776-8118.6Zm-2.009,2.063a.521.521,0,0,0,.1.581.4.4,0,0,0,.318-.317c-.035-.232-.209-.463.053-.582.2-.056.15.131.317.106a14.716,14.716,0,0,0,1.163-1.11.837.837,0,0,1-.212-.371C-1052.8-8117.842-1053.107-8117-1053.785-8116.534Zm1.48-.476c.159.1.159.369.37.423a6.515,6.515,0,0,0,.582-.582.919.919,0,0,0-.37-.476C-1051.921-8117.437-1052.12-8117.231-1052.305-8117.01Zm18.506.1c.041.012.062.045.053.106.19.031.256-.061.37-.106-.033-.125-.071-.246-.211-.264C-1033.6-8117.02-1033.839-8117.1-1033.8-8116.9Zm-.581.318c.08.1.2.313.37.158A.2.2,0,0,0-1034.38-8116.587Zm-18.506.317c.2.068.17.358.423.37.022-.172.219-.168.264-.317-.108-.121-.258-.2-.264-.423h-.265C-1052.758-8116.5-1052.86-8116.419-1052.886-8116.27Zm17.924.158c.062.212.445.09.37-.158A.24.24,0,0,0-1034.962-8116.112Zm-20.886.159a.285.285,0,0,0,.318-.317C-1055.772-8116.3-1055.832-8116.149-1055.848-8115.953Zm22.314.952c.075-.013.089-.087.158-.106a2.429,2.429,0,0,0-.581-1.057A1.687,1.687,0,0,0-1033.534-8115Zm-19.511-.265c.083-.022.045-.166.211-.1-.053-.3-.157-.548-.475-.582A.481.481,0,0,0-1053.045-8115.266Zm16.867-.687a41.65,41.65,0,0,0-4.072,2.591.231.231,0,0,1,.106.211,24.5,24.5,0,0,0,4.177-2.749C-1036.067-8115.888-1036.083-8115.96-1036.178-8115.953Zm1.005.37c.1-.128-.045-.346-.212-.37C-1035.517-8115.795-1035.35-8115.6-1035.173-8115.583Zm-19.353.053c.14.055.178.21.318.264.083-.145.27-.188.317-.37a.957.957,0,0,0-.317-.264A4,4,0,0,0-1054.526-8115.53Zm2.221-.106a.8.8,0,0,0,.37.423c.079-.027.134-.078.212-.1C-1051.693-8115.65-1052.2-8116.077-1052.305-8115.636Zm-3.172,0c.062.184.115.378.317.423.1-.006.037-.175.158-.158C-1055.03-8115.651-1055.3-8115.957-1055.477-8115.636Zm20.991.423c.158,0,.18-.137.317-.158-.027-.167-.156-.232-.159-.423C-1034.82-8115.8-1034.647-8115.436-1034.486-8115.213Zm-7.4.688c.108-.258-.208-.888-.476-1.111A2.455,2.455,0,0,0-1041.889-8114.525Zm5.922-1c-1.259.979-2.582,1.894-3.912,2.8a25.166,25.166,0,0,0,4.23-2.538C-1035.721-8115.388-1035.742-8115.561-1035.967-8115.53Zm-5.6.264c-.086.083.019.207.053.318h.212c.122-.118-.018-.207,0-.37A.348.348,0,0,0-1041.572-8115.266Zm-10.257.318c.068.09.109.208.264.211.1,0,.068-.144.212-.106C-1051.321-8115.3-1051.767-8115.342-1051.829-8114.948Zm16.708-.265c.01.149.092.226.265.212C-1034.821-8115.2-1034.979-8115.348-1035.121-8115.213Zm-21.572.106c.128.027.233.346.317.106C-1056.446-8115.087-1056.609-8115.348-1056.693-8115.107Zm2.7.264c.127.1.162.3.37.318.122-.073.17-.218.265-.318C-1053.5-8115.219-1053.872-8115.3-1054-8114.843Zm1.111-.052c.141.088.155.3.37.317C-1052.05-8114.9-1052.8-8115.561-1052.886-8114.9Zm-2.591.211a.783.783,0,0,0-.318-.476C-1055.928-8114.946-1055.709-8114.7-1055.477-8114.684Zm.475-.264c0,.157.138.179.159.317.132.008.164-.083.264-.106.031-.259-.068-.39-.264-.423A.876.876,0,0,1-1055-8114.948Zm20.622-.053c-.022.215.054.333.264.317.012-.041.044-.061.106-.053.03-.171-.036-.246-.053-.37C-1034.229-8115.132-1034.27-8115.032-1034.38-8115Zm-1.216.158c-1.232,1.043-2.892,1.657-4.231,2.591a16.4,16.4,0,0,0,3.385-1.85,3.288,3.288,0,0,0,1.057-.741Zm-21.573.423c.059.012.082.059.1.106.188.029.232-.085.318-.159,0-.18-.156-.2-.265-.264C-1057.057-8114.625-1057.172-8114.581-1057.169-8114.42Zm6.027-.264c-.221-.045-.209.143-.317.211.5.741.929,1.562,1.428,2.327a17.1,17.1,0,0,1,1.427,2.379c.169.386.218.827.582,1.111.158,0,.18-.138.317-.159A37.944,37.944,0,0,0-1051.142-8114.684Zm16.339.317c.094-.029.219-.027.264-.106-.144-.049-.1-.287-.37-.211C-1034.935-8114.518-1034.834-8114.477-1034.8-8114.367Zm-17.608-.106a.374.374,0,0,0,.212.371c.033-.144.221-.132.211-.318-.079-.062-.062-.219-.211-.211C-1052.214-8114.522-1052.34-8114.526-1052.411-8114.473Zm-3.437.212c-.168-.043-.073-.349-.317-.317C-1056.18-8114.384-1055.954-8114.158-1055.848-8114.261Zm2.38.106c.149.009.066.251.264.211C-1052.528-8114.135-1053.354-8114.908-1053.468-8114.155Zm-1.639.053c0-.195-.024-.365-.212-.371C-1055.45-8114.314-1055.283-8114.116-1055.107-8114.1Zm.634-.106c.081.137.266.37.476.211a.454.454,0,0,0-.37-.476C-1054.328-8114.31-1054.512-8114.371-1054.473-8114.208Zm21.361,2.538a8.2,8.2,0,0,1-.317-1.533c-.364-.288-.159-1.145-.687-1.27A18.248,18.248,0,0,0-1033.112-8111.67Zm-2.22-2.75c-.268.261-.686.373-.9.688-.162-.039-.155.091-.317.053a1.077,1.077,0,0,1-.318.317c-.424.3-.97.563-1.48.846-.441.244-1.217.526-1.216,1a6.116,6.116,0,0,0,1.9-1.058,19.073,19.073,0,0,0,2.538-1.639C-1035.214-8114.256-1035.208-8114.4-1035.332-8114.42Zm-6.5.318c.138.015.228-.02.212-.159C-1041.763-8114.276-1041.852-8114.242-1041.836-8114.1Zm.687-.053c-.015.139.074.173.212.158.015-.138-.019-.227-.159-.211C-1041.1-8114.176-1041.1-8114.145-1041.149-8114.155Zm-16.285.634a.944.944,0,0,1,.212-.158c-.032-.2-.064-.4-.265-.423C-1057.566-8113.846-1057.745-8113.669-1057.434-8113.521Zm.688-.37a.6.6,0,0,0,.317.37c.083-.092.243-.109.264-.264C-1056.3-8114.048-1056.569-8114.2-1056.746-8113.891Zm7.349,3.384c-.939-1.052-1.474-2.509-2.432-3.543a.254.254,0,0,0-.159.053c0,.068-.067.074-.053.159a18.173,18.173,0,0,1,3.173,5.975c.269-.031.349-.25.476-.423C-1048.636-8109.117-1049.169-8109.659-1049.4-8110.507Zm-5.129-2.8c.112-.237-.153-.5-.317-.635A.54.54,0,0,0-1054.526-8113.309Zm1.534-.265c.181.155.334-.056.476-.1C-1052.573-8114.081-1052.98-8113.9-1052.992-8113.574Zm16.867.9c.506-.367,1.666-.69,1-1.163-1.062.7-2.311,1.459-3.331,2.168a3.391,3.391,0,0,0-.9.793,4.509,4.509,0,0,0,1.692-.9A4.419,4.419,0,0,0-1036.125-8112.675Zm-17.766-1.057q-.042.358.317.317a.28.28,0,0,0-.211-.37C-1053.8-8113.744-1053.83-8113.724-1053.891-8113.732Zm-3.331.687c.14.036.059.293.264.265.329-.051.234-.659-.053-.688A1.071,1.071,0,0,0-1057.222-8113.045Zm.951.053c.138.092.1.361.371.317,0-.232.175-.283.211-.476-.142-.069-.1-.317-.317-.317A1.869,1.869,0,0,0-1056.271-8112.992Zm1.058-.211c.076.17.114.379.37.37C-1054.922-8112.988-1055.047-8113.3-1055.213-8113.2Zm14.7.317c.012-.206-.056-.332-.211-.37C-1040.664-8113.123-1040.7-8112.894-1040.514-8112.886Zm-12.9.053c.172.013.254-.063.264-.212-.046-.077-.079-.167-.211-.158C-1053.439-8113.071-1053.49-8113-1053.415-8112.833Zm-.793.1c.167-.026.27-.431-.053-.37C-1054.267-8112.92-1054.367-8112.818-1054.208-8112.728Zm13.165.159a.254.254,0,0,0-.158-.37C-1041.281-8112.844-1041.232-8112.557-1041.043-8112.569Zm-14.752.37c.028.149.128.225.159.37a.635.635,0,0,0,.423-.581,1.079,1.079,0,0,0-.317-.318C-1055.561-8112.494-1055.717-8112.386-1055.8-8112.2Zm14.329-.106c.021-.214-.019-.368-.211-.37C-1041.845-8112.559-1041.725-8112.288-1041.466-8112.305Zm-12.425.159c.158-.018.21-.142.264-.264a.2.2,0,0,0-.211-.212C-1053.938-8112.455-1054.062-8112.329-1053.891-8112.146Zm-.582-.159c.016-.139-.073-.173-.211-.158C-1054.727-8112.274-1054.572-8112.2-1054.473-8112.305Zm12.108.159c.042.012.062.044.053.106.1.1.25.026.37,0-.04-.118-.03-.287-.158-.317C-1042.168-8112.267-1042.352-8112.292-1042.365-8112.146Zm-12,.529c.172.013.254-.063.264-.212a.263.263,0,0,0-.158-.158C-1054.364-8111.925-1054.442-8111.7-1054.367-8111.617Zm11.368,0c.076.012.089.087.159.106.08-.131.328-.095.317-.318A.274.274,0,0,0-1043-8111.617Zm.952.106c.111.105.293-.018.317-.159A.253.253,0,0,0-1042.047-8111.511Zm.793-.053c.047.129.047.3.211.317C-1040.873-8111.413-1041.117-8111.706-1041.254-8111.564Zm-2.327.476c.2,0,.365-.024.371-.212C-1043.281-8111.626-1043.846-8111.389-1043.581-8111.088Zm.846.1a.33.33,0,0,0,.423-.264c-.011-.059-.058-.082-.1-.106C-1042.494-8111.2-1042.81-8111.288-1042.735-8110.983Zm-1.11.159c-.108-.033-.015-.267-.211-.212C-1044.1-8110.88-1043.913-8110.692-1043.845-8110.824Zm3.437,1.163a4.981,4.981,0,0,0-.317-1.269c-.077.029-.274-.062-.265.053A9.664,9.664,0,0,0-1040.408-8109.661Zm-2.961-.952a.263.263,0,0,0,.159.159c.076-.135.289-.134.211-.423A.394.394,0,0,0-1043.369-8110.613Zm-1.216-.1c-.017.21.1.286.317.264.022-.216-.054-.334-.264-.317C-1044.535-8110.739-1044.54-8110.709-1044.585-8110.718Zm4.864,1.533c.007-.489-.534.052,0,0Zm-.423.264a.159.159,0,0,0-.158-.264C-1040.328-8109.019-1040.236-8108.969-1040.144-8108.921Zm.423.37c.181.023.3-.016.265-.211h-.265Zm.37,1.164c.209.032.235-.119.265-.265a5.138,5.138,0,0,1-.212-.634C-1039.887-8108.219-1039.338-8107.774-1039.351-8107.387Zm.371.317c.008-.087-.326-.087-.318,0C-1039.256-8107.023-1038.974-8106.836-1038.98-8107.07Zm.1.74c.11-.109,0-.268-.158-.264C-1039.044-8106.443-1039.04-8106.306-1038.875-8106.33Zm.159.423c.014-.172-.063-.254-.212-.264C-1038.924-8106.016-1038.908-8105.873-1038.716-8105.907Z" fill-rule="evenodd"/>
    <path d="M-1046.33-8130.6a2.861,2.861,0,0,1-.529.423A.764.764,0,0,1-1046.33-8130.6Z" fill-rule="evenodd"/>
    <path d="M-1046.594-8126.316c-1.077.938-2.226,1.788-3.226,2.8-.175.178-.219.485-.529.529-.033-.445.651-.615.794-1.058.662-.43,1.237-1.23,1.9-1.48A2.8,2.8,0,0,1-1046.594-8126.316Z" fill-rule="evenodd"/>
    <path d="M-1042.365-8099.139c-.532.321-1.2.238-1.8.529a5.862,5.862,0,0,1,.106.687c.98-.175,1.938-.5,2.8-.634a14.448,14.448,0,0,1-2.8.9c0,.164.125.344,0,.476.185.133.468,0,.687,0-.056.225-.392.171-.635.211-.028.183.079.5-.1.529-.267.02-.111-.383-.317-.423-.521-.124-.235.432-.423.529-.368.039-.037-.327-.265-.371-.359-.023-.139.531-.317.688-.438.1-.089-.581-.476-.529-.106.183.284.66-.053.793-.332.015-.3-.337-.317-.634-2.182-.13-4.376.52-6.609.264-.543-.062-1.131-.1-1.64-.211-.811-.181-1.517-.651-2.326-.9a9.306,9.306,0,0,1-1.9-.529c-.068-.209.154-.128.158-.264-.093-.184-.262.015-.37-.106a7,7,0,0,0-1.322-.793,9.223,9.223,0,0,1-3.278-3.437c-.389-.727-1.03-2.092-.529-2.908.285.092.122.48.159.687a8.218,8.218,0,0,0,4.6,5.816.44.44,0,0,0,.264-.264c-.08-.229-.331.024-.581-.053a.348.348,0,0,0-.053-.264,1.536,1.536,0,0,0-.74-.37,13.686,13.686,0,0,1-1.692-1.692c-.114-.129-.315-.23-.423-.37a7.216,7.216,0,0,1-.794-1.8c-.176-.451-.643-.959-.37-1.481.56.357.486,1.347.952,1.8a6,6,0,0,0,2.855,3.225c.19.014.194-.158.37-.158-1.536-1.425-3.542-2.661-3.6-5.393.709.929.787,2.49,1.85,3.066.332.377.721.967,1.217,1-.072-.547-.653-.809-1.005-1.216a14.242,14.242,0,0,1-1.216-1.9c.067-.4-.3-.6-.106-.951.452.345.53.88.793,1.321a12.6,12.6,0,0,0,1.639,2.01c1.075-.187-.838-1.046-.74-1.534a3.849,3.849,0,0,1-1-2.168c.647.569.9,1.592,1.48,2.274.288.34.849.915,1.375.9a8.307,8.307,0,0,1-2.115-3.278c.47.112.682.844,1,1.321a5.133,5.133,0,0,0,1.164,1.269.493.493,0,0,0,.793.318c-.818-.968-1.952-1.883-2.274-3.173.512.072.666.73.952,1.111.216.288.553.63.846.951.353.387.661.889,1.322.846-.215-.49-.787-.623-.952-1.163a4.055,4.055,0,0,1-1.533-2.062c1.154.855,1.819,2.2,3.013,3.014a12.907,12.907,0,0,1,1.851-.317c-.441.229-1.1.237-1.481.528a.588.588,0,0,0,.635.318c-.146.359.349.435.476.687.436.03.66-.151,1.057-.159-.157.2-.516.189-.793.265a16.514,16.514,0,0,1,1.9,2.326c.23,0,.49-.031.581.106-.017.2-.418-.094-.37.264-.66-.411-1.7.11-2.273-.158-.085-.023-.178.2-.053.211-.171.116-.389-.173-.688-.106,1.014,1.052,3.331,1.181,5.235,1.322a29.773,29.773,0,0,0,3.913-.158c-.357-1.424-.978-2.583-1.269-4.072a23.88,23.88,0,0,1,1.374,3.173c.119.294.09.927.529.793-.166-1.157-.741-2.478-.846-3.6.595,1.026.82,2.422,1.322,3.542.183.042.223-.059.317-.106a29.7,29.7,0,0,0-1.11-4.758c.831,1.324.906,3.1,1.428,4.758h.264a5.436,5.436,0,0,0-.317-2.643c-.256-1.016-.688-1.969-.846-2.961a18.609,18.609,0,0,1,1.692,5.5A16.806,16.806,0,0,0-1042.365-8099.139Zm-14.8-3.965a.48.48,0,0,0,.687.1C-1056.636-8103.147-1057-8103.427-1057.169-8103.1Zm-.952.423a.268.268,0,0,1,.159.158c.208-.055.471-.057.581-.211A.431.431,0,0,0-1058.121-8102.681Zm1.533-.053c.017.158.592.825.9.37C-1055.948-8102.5-1056.175-8102.924-1056.588-8102.734Zm-1.8.423c0-.175-.151-.2-.317-.212C-1058.751-8102.3-1058.576-8102.3-1058.385-8102.311Zm.9,0a.434.434,0,0,0,.741.158A.52.52,0,0,0-1057.487-8102.311Zm-2.062.317c.112.073.456.025.424-.211C-1059.346-8102.215-1059.385-8102.042-1059.549-8101.994Zm3.7-.053c.145.31.639.855.952.37C-1055.152-8101.869-1055.432-8102.331-1055.848-8102.047Zm-1.057.212a1.251,1.251,0,0,0,1.163.528C-1056.034-8101.594-1056.355-8102.118-1056.905-8101.835Zm-2.273.317c.239.007.258.235.528.211.1-.167.41-.118.476-.317C-1058.435-8101.858-1059.059-8101.948-1059.178-8101.518Zm4.071.211a2.425,2.425,0,0,0,1.85,1.375C-1053.625-8100.425-1054.534-8101.782-1055.107-8101.307Zm-4.812.053a.365.365,0,0,0,.635.159C-1059.459-8101.226-1059.682-8101.481-1059.919-8101.254Zm1.481.159c.127.378.936.294,1.163.053A.932.932,0,0,0-1058.438-8101.1Zm2.908-.106c-.166-.025-.207.075-.318.106.1.406.68.343.794.74-.534-.07-.9-.575-1.375-.529a1.84,1.84,0,0,0,2.221.793A10.222,10.222,0,0,1-1055.53-8101.2Zm-3.648.476c-.039.144.1.107.1.211.158-.018.322-.03.371-.158A.309.309,0,0,0-1059.178-8100.725Zm1.744.264a3.238,3.238,0,0,0,1.375.37C-1056.36-8100.381-1056.979-8100.956-1057.434-8100.461Zm-1.11.212c.022.307.579.32.846.211A.647.647,0,0,0-1058.544-8100.249Zm-.9.37c.042.235.361.311.582.211C-1058.889-8100.014-1059.206-8099.983-1059.443-8099.879Zm1.851.37a1.869,1.869,0,0,0,1.533.317C-1056.377-8099.469-1057.075-8099.918-1057.592-8099.509Zm-1.058.159c.038.309.407.2.582.158C-1058.129-8099.46-1058.392-8099.387-1058.65-8099.35Zm.9.634c.234.067.584.3.846.159C-1057.125-8098.631-1057.481-8099.032-1057.751-8098.716Zm1.375.053a6.814,6.814,0,0,0,2.8,1.163A3.338,3.338,0,0,0-1056.376-8098.663Zm-2.7.106a.839.839,0,0,0,.688-.053C-1058.536-8098.755-1058.979-8098.76-1059.073-8098.557Zm14.171.106c.059.222.027.536.158.687.382.029.24-.465.265-.793A.584.584,0,0,0-1044.9-8098.451Zm-.212.74c.021-.251-.094-.364-.053-.635h-.317C-1045.462-8098.033-1045.473-8097.686-1045.114-8097.711Zm-.634.106c-.072-.246-.018-.618-.265-.688h-.106C-1046.208-8098.046-1046.175-8097.509-1045.748-8097.6Zm-7.033.211c1.577.609,4.509-.344,6.345-.106a1.8,1.8,0,0,0-.158-.687,34.365,34.365,0,0,1-7.191,0C-1053.337-8098.045-1053.2-8097.558-1052.781-8097.394Zm-1.322.529c-.857-.237-1.438-1.028-2.432-.952-.058.216.325-.007.212.264-.633-.19-1.28-.89-2.115-.528.219.242.521.145.793.211.978.24,1.929.775,2.8,1.058a12.591,12.591,0,0,0,2.538.37,44.757,44.757,0,0,0,5.975-.265c-.036-.257.093-.35,0-.528-1.917.127-3.765.323-5.763.37-.13.07.058.2-.053.211-.5-.473-1.763-.458-2.433-.581C-1054.436-8097.1-1054.1-8097.147-1054.1-8096.865Zm9.359-.212c.167-.026.187.1.37.053a1.191,1.191,0,0,0-.1-.529h-.212C-1044.78-8097.465-1044.733-8097.242-1044.744-8097.077Zm-.581.159c.423.045.225-.25.317-.476a.345.345,0,0,0-.264-.053C-1045.366-8097.347-1045.311-8097.1-1045.325-8096.918Zm-.688-.423a2.859,2.859,0,0,0,.106.529c.371.049.269-.417.159-.582A.347.347,0,0,0-1046.013-8097.341Z" fill-rule="evenodd"/>
    <path d="M-1018.465-8102.734a10.537,10.537,0,0,1-1.481,2.168,9.1,9.1,0,0,1-1.322,1.8,3.026,3.026,0,0,1-.9.688c.208-.832,1.039-1.041,1.374-1.745a.3.3,0,0,1,.212-.053A20.987,20.987,0,0,1-1018.465-8102.734Z" fill-rule="evenodd"/>
    <path d="M-1018.36-8101.941c.231-.124-.047.29-.158.317a7.108,7.108,0,0,1-1.216,1.8c-.332.413-.633.948-1.111,1.057a6.572,6.572,0,0,1,1.587-1.8C-1019.169-8101.235-1018.6-8101.42-1018.36-8101.941Z" fill-rule="evenodd"/>
    <path d="M-1026.079-8100.143c-.955,1.107-2.288,1.836-3.278,2.908-.383,0-.485.524-.846.37.095-.415.567-.575.846-.793a3.2,3.2,0,0,1,.951-.688C-1027.658-8098.973-1026.873-8099.563-1026.079-8100.143Z" fill-rule="evenodd"/>
    <path d="M-1026.344-8098.98a8.54,8.54,0,0,1-1.374,1.692,1.64,1.64,0,0,1-.9.581.366.366,0,0,1,0-.317c-.193.049-.327.214-.529.106-.067-.35.345-.441.529-.582a32.638,32.638,0,0,0,2.591-2.22,2.792,2.792,0,0,1-.793,1C-1026.7-8098.638-1026.493-8098.916-1026.344-8098.98Zm-.846.793c.022-.1.2-.042.159-.212C-1027.151-8098.424-1027.348-8098.266-1027.19-8098.187Zm-.476.317c.2,0,.234-.154.318-.264A.4.4,0,0,0-1027.666-8097.87Z" fill-rule="evenodd"/>
    <path d="M-1028.036-8096.6c.315-.672,1.012-.962,1.587-1.375a5.888,5.888,0,0,1,1.163-1.269,9.969,9.969,0,0,1-1.692,2.116A1.988,1.988,0,0,1-1028.036-8096.6Z" fill-rule="evenodd"/>
    <path d="M-1014.183-8143.078a7.936,7.936,0,0,1-1.956.582c-1.084.227-2.252.418-3.384.635-.1.192.107.243.106.475a5.542,5.542,0,0,1,1.216-.053c.081.373-.839.177-1.11.371.094.394.211.771.317,1.269h.423c-.038.191-.293.165-.37.317.022.1.114.133.1.264.488.065.541-.306,1.058-.211-.181.365-.737.356-1.005.634.378.21.648-.4.952-.264-.076.488-.711.417-.9.793.408.016,1.138-.373,1.534-.37-.23.545-1.178.374-1.534.793.6.148,1.664-.407,2.168-.529-.418.569-1.32.655-2.009.952-.147-.024.041.288-.106.264-.192.051-.044-.237-.211-.211-.209,0-.307.117-.476.159a1.159,1.159,0,0,0,.106.317c.742-.209,1.648-.256,2.115-.74-.037.9-1.733.592-2.221,1.216a.342.342,0,0,0-.265-.053c.044.149-.074.137-.052.264a7.288,7.288,0,0,0,2.379-.793c-.3.741-1.362.754-2.062,1.058-.154.066-.291.127-.317.317-.176-.289-.519.032-.793.106.208.28.749.111,1,.053.762-.177,1.56-.634,2.221-.846-.225.58-1.065.648-1.692.846a5.391,5.391,0,0,0-1.428.581c.219.374.786-.126,1.216-.053.766-.381,1.935-.636,2.644-.9-.933.83-2.584.941-3.754,1.534.218.3.612.006.9-.053.723-.148,1.583-.333,2.273-.529.2-.084.48-.309.688-.211-1.348,1-3.673,1.015-5.34,1.691-.02.32.206.393.158.741-.221-.114-.22-.45-.317-.688-.28.027-.507.09-.688-.053.036-.263.3-.3.582-.317-.053-.4-.5-.08-.846-.158-.1-.47.46-.281.635-.476-.036-.247-.578.014-.635-.212.006-.258.362-.167.423-.37-.386-.953-.82-1.859-1.163-2.855-.246.036-.443.121-.687.159.405,1.6,1.087,2.931,1.533,4.494a34.709,34.709,0,0,1-2.062-5.182.681.681,0,0,0-.476.159c.406,2.032,1.6,3.543,2.009,5.393a29.118,29.118,0,0,1-2.273-5.393c-.125.017-.2.083-.37.053.606,1.861,1.367,3.567,1.85,5.551a2.269,2.269,0,0,1-.582-1.11c-.106-.357-.132-.757-.264-1.11-.421-1.127-.909-2.224-1.322-3.278a.822.822,0,0,0-.423.1,55.477,55.477,0,0,1,1.851,5.658c-.288-.075-.2-.346-.265-.529-.5-1.394-.967-2.947-1.586-4.23.045-.38-.151-.518-.211-.793-.294-.06-.462.213-.688.053.4,2.177,1.8,3.629,1.957,5.869-.286-.2-.194-.573-.265-.846-.411-1.573-1.4-2.894-1.85-4.441a2.446,2.446,0,0,0-.423-1.217c-.218-.041-.272.082-.476.053.754,2.577,1.791,4.871,2.644,7.35-.386-.12-.356-.5-.476-.793-.1-.242-.283-.481-.37-.741-.334-.987-.65-1.971-1.005-2.907-.376-.994-.735-1.969-1.11-2.856a1.364,1.364,0,0,1-.423.106c.871,2.847,2.2,5.239,3.172,7.984a2.566,2.566,0,0,1-.74-1.586,1.308,1.308,0,0,1-.265-.265,51.2,51.2,0,0,0-2.009-4.758,7.982,7.982,0,0,0-.37-1.322c-.306-.009-.505.32-.793.158.03-.339.361-.378.635-.475-.047-.219-.085-.445-.265-.529-.779.108-1.5.535-2.168.581.329-.729,1.414-.7,2.168-1-.08-.131-.013-.41-.106-.529-.251-.062-.4.16-.528.053.041-.355.587-.458.317-.952a2.059,2.059,0,0,1-.9.106c-.056-.427.394-.346.687-.423.123-.053.171-.182.159-.37.183-.117.224.282.582.158.246-.025-.108-.377.158-.423.266-.071.175.213.265.318.551-.12,1.2.026,1.48-.265,1,.31,2.71-.308,3.543,0,.187-.059.284-.209.423-.317.2-.02.1.255.264.264a20.319,20.319,0,0,1,2.7-.158c.222-.024.2-.3.37-.37.241-.065.167.185.317.211.187.029.13-.187.317-.158.161,0,.206.111.317.158C-1017.713-8142.384-1015.9-8142.906-1014.183-8143.078Zm-6.609,1.639c.127.068.2.194.423.159-.068-.2-.15-.378-.37-.423A.346.346,0,0,0-1020.792-8141.439Zm.9.106a.228.228,0,0,0-.211-.37A.371.371,0,0,0-1019.893-8141.333Zm-1.216.106c-.065-.128-.044-.343-.211-.37C-1021.4-8141.536-1021.326-8141.171-1021.109-8141.227Zm-.9.053c.164.069.151-.014.37,0-.014-.163-.114-.238-.158-.37h-.265C-1022.087-8141.377-1021.965-8141.357-1022.008-8141.174Zm-.9-.159c.145.219.247.273.582.212.023-.2-.1-.248-.159-.37C-1022.672-8141.486-1022.847-8141.466-1022.907-8141.333Zm-.74-.053c-.057.322.188.341.476.318C-1023.168-8141.38-1023.381-8141.48-1023.647-8141.386Zm-3.225.159c-.031.445.649.248.793.106.136,0,.075.206.211.211.074-.1.274-.078.371-.158.038-.162-.055-.193-.053-.318C-1026.021-8141.28-1026.568-8141.391-1026.872-8141.227Zm1.692.212c.179-.015.428.041.528-.053.025-.325-.252-.347-.581-.318C-1025.276-8141.2-1025.154-8141.182-1025.18-8141.015Zm.9,0c.124-.017.2-.084.37-.053.025-.167-.076-.207-.106-.318h-.317C-1024.334-8141.245-1024.354-8141.084-1024.281-8141.015Zm-3.437-.159c.054.342.291.173.581.264.012-.041,0-.1.053-.1.025-.166-.142-.14-.158-.265A1.2,1.2,0,0,0-1027.718-8141.174Zm-1.639.159c-.033.374.6.407.74.158a.258.258,0,0,1-.106-.264A.809.809,0,0,0-1029.357-8141.015Zm.951.158h.476C-1027.667-8141.2-1028.551-8141.367-1028.406-8140.857Zm-1.639,0c.114.045.086.232.159.317a.39.39,0,0,0,.423-.211A.335.335,0,0,0-1030.045-8140.857Zm10.839,1.216c-.152-.447-.235-.963-.423-1.374h-.211C-1019.764-8140.66-1019.759-8139.519-1019.206-8139.641Zm-1.057-.211c.122.054.17.182.37.159a3.431,3.431,0,0,0-.37-1.27h-.159C-1020.614-8140.553-1020.009-8140.174-1020.263-8139.852Zm-.9-.846a2.848,2.848,0,0,1,.212.476h.264c.092-.158-.118-.389-.159-.582C-1020.985-8140.8-1021.156-8140.833-1021.162-8140.7Zm-.687,0c.028.148.077.275.106.423.171,0,.327.186.475.053-.062-.2-.193-.335-.264-.529A.451.451,0,0,0-1021.849-8140.7Zm-.846.053c0,.393.36.659.687.423-.028-.184-.141-.282-.158-.476A1.863,1.863,0,0,1-1022.7-8140.645Zm-2.432.158c.007.187.151.237.158.423.21-.019.507.049.635-.053C-1024.3-8140.629-1024.768-8140.749-1025.127-8140.487Zm1.691-.053c.014.163.115.238.159.371a1.14,1.14,0,0,1,.476.052C-1022.852-8140.488-1023.053-8140.766-1023.436-8140.54Zm-3.278.053a1.123,1.123,0,0,1,.053.476,1.205,1.205,0,0,0,.635,0,2.224,2.224,0,0,1-.106-.529A.765.765,0,0,0-1026.714-8140.487Zm.9-.053c.011.253.135.235.053.476.15.041.4.156.529.053a1.912,1.912,0,0,0-.212-.581C-1025.616-8140.623-1025.691-8140.556-1025.815-8140.54Zm1.692.371c.214.014.368.09.582.1a1.536,1.536,0,0,0-.212-.528h-.476C-1024.221-8140.424-1024.109-8140.36-1024.123-8140.169Zm-4.177-.212c-.037.267.163.3.106.582a1.263,1.263,0,0,0,.634-.053c-.172-.18-.129-.576-.37-.688C-1027.973-8140.406-1028.209-8140.466-1028.3-8140.381Zm.793-.053c.091.295.147.732.582.529a1.624,1.624,0,0,0-.106-.582C-1027.2-8140.476-1027.419-8140.522-1027.507-8140.434Zm-1.692.265c.129.118.149.345.212.528a1.327,1.327,0,0,0,.528-.052,2.614,2.614,0,0,0-.1-.635C-1028.812-8140.312-1029.1-8140.331-1029.2-8140.169Zm-.687.211a2.293,2.293,0,0,0,.211.476.841.841,0,0,0,.476-.106c-.007-.239-.129-.364-.158-.581C-1029.659-8140.225-1029.667-8139.985-1029.886-8139.958Zm8.989,0c-.044.149.074.137.052.265.248-.083.3.168.423.052a2,2,0,0,0-.1-.37C-1020.668-8140.01-1020.829-8140.031-1020.9-8139.958Zm-.688.053c-.078.392.562.426.476,0C-1021.306-8139.873-1021.443-8140.04-1021.585-8139.9Zm-.793.423c.243-.021.556.027.582-.211C-1021.84-8140.019-1022.587-8140.013-1022.378-8139.482Zm-.793-.317c-.045.238.124.264.158.423h.476c-.1-.168-.124-.4-.317-.476C-1022.978-8139.853-1023.01-8139.761-1023.171-8139.8Zm-.688.529a1.336,1.336,0,0,0,.529-.053c.039-.216-.17-.182-.106-.423a1.871,1.871,0,0,1-.528-.053C-1024.052-8139.673-1023.857-8139.476-1023.859-8139.27Zm-.9.1a1.408,1.408,0,0,0,.687-.1c-.007-.187-.151-.237-.159-.423h-.634A.627.627,0,0,0-1024.757-8139.165Zm-.9-.423c.016.16.163.189.106.423a.543.543,0,0,0,.475.053C-1024.926-8139.525-1025.242-8139.71-1025.656-8139.588Zm-.793.053c.054.175.054.4.158.529a1.21,1.21,0,0,0,.529-.106,3.762,3.762,0,0,0-.158-.423C-1026.122-8139.562-1026.238-8139.627-1026.449-8139.535Zm-.688.106c-.09.129.145.286.159.476.14,0,.3.02.37-.053a3.322,3.322,0,0,0-.106-.476C-1026.866-8139.476-1027.06-8139.511-1027.137-8139.429Zm-.9.106c-.028.221.093.3.106.475.266.037.369-.089.635-.052C-1027.315-8139.342-1027.622-8139.537-1028.036-8139.323Zm8.566.264c.189,0,.363-.025.423-.159C-1019.14-8139.46-1019.57-8139.532-1019.47-8139.059Zm-9.359-.159a1.339,1.339,0,0,0,.106.423c.18-.014.429.041.529-.053C-1028.249-8139.221-1028.458-8139.413-1028.829-8139.218Zm9.095.212c-.007-.169-.12-.233-.318-.212A.2.2,0,0,0-1019.734-8139.006Zm-9.941.053c.164.277.308.437.688.264C-1028.87-8139.24-1029.481-8139.241-1029.675-8138.953Zm9.042-.159v.212c.068.073.23.052.37.052.038-.161-.054-.192-.053-.317A.448.448,0,0,0-1020.633-8139.112Zm-.687.159c-.021.347.424.321.475.053C-1020.914-8139.053-1021.18-8139.009-1021.32-8138.953Zm-3.12.158c.059.033.437.046.476-.1A.391.391,0,0,0-1024.44-8138.795Zm2.274,0c-.02.322.618.248.634,0C-1021.623-8139.019-1022.019-8138.843-1022.166-8138.795Zm-3.173.053c-.028.2.388.075.37-.053C-1025.109-8138.794-1025.271-8138.815-1025.339-8138.742Zm2.432.106c.109.015.106.141.159.211.2-.015.363-.059.423-.211-.074-.014-.06-.116-.106-.159C-1022.588-8138.74-1022.854-8138.794-1022.907-8138.636Zm3.49.106c.179-.033.408-.015.37-.265C-1019.259-8138.795-1019.442-8138.767-1019.417-8138.53Zm-6.715,0c.188-.006.426.038.423-.159C-1025.887-8138.673-1026.167-8138.76-1026.132-8138.53Zm2.538-.053c-.05.439.506.318.634.106A.566.566,0,0,0-1023.594-8138.583Zm3.648,0c-.039.2.343.114.265-.053A.349.349,0,0,0-1019.946-8138.583Zm-6.926.106c.131.062.4.195.423-.053C-1026.5-8138.628-1026.887-8138.62-1026.872-8138.477Zm-.952.052a1.093,1.093,0,0,0,.158.476c.21-.16.548-.193.635-.476C-1027.191-8138.622-1027.572-8138.45-1027.824-8138.425Zm7.35,0c.067.073.316.093.317-.052C-1020.225-8138.55-1020.473-8138.569-1020.474-8138.425Zm-4.072.053c-.031.19.062.256.106.37a.99.99,0,0,0,.74-.264c-.093-.013-.12-.091-.106-.211C-1024.127-8138.517-1024.283-8138.39-1024.546-8138.372Zm3.384.106c.213.037.3-.051.476-.053C-1020.673-8138.546-1021.163-8138.479-1021.162-8138.266Zm-.793.212c.309.01.581-.019.635-.265C-1021.516-8138.369-1022.008-8138.412-1021.955-8138.054Zm2.591-.159c-.026.268.335.081.37-.053C-1019.135-8138.265-1019.3-8138.286-1019.364-8138.213Zm-3.278.159c-.013.305.433.21.476,0C-1022.242-8138.284-1022.48-8138.055-1022.642-8138.054Zm-.688.158a4.974,4.974,0,0,0,.265.846c.23,0,.4-.061.37-.317-.169-.007-.4.052-.37-.159-.013-.223.3-.119.211-.423C-1023.034-8138.113-1023.132-8137.875-1023.33-8137.9Zm2.327.159c.091-.1.433.045.423-.159C-1020.768-8137.89-1021.006-8137.934-1021-8137.737Zm1.639.053c.041.011.061.044.053.1.17.012.223-.093.423-.052-.006-.135-.01-.272-.159-.265C-1019.115-8137.788-1019.344-8137.84-1019.364-8137.684Zm-2.432.1c.136.071.556.05.528-.211C-1021.473-8137.749-1021.7-8137.729-1021.8-8137.579Zm1.956-.052c0,.208.317.188.264-.053A.34.34,0,0,0-1019.84-8137.631Zm-2.591.1v.212c.241.064.208-.145.423-.106C-1022-8137.691-1022.27-8137.527-1022.431-8137.526Zm1.534.265c.207,0,.463.041.423-.212A.392.392,0,0,0-1020.9-8137.261Zm-.688.158c.106.08.4.013.423-.158C-1021.351-8137.256-1021.525-8137.237-1021.585-8137.1Zm2.062.265v-.318h-.211C-1019.749-8136.965-1019.747-8136.79-1019.523-8136.838Zm-.476.106a.2.2,0,0,0-.1-.318C-1020.1-8136.91-1020.134-8136.738-1020-8136.732Zm-.687.158c.183.043.2-.079.37-.053v-.264C-1020.586-8137.081-1020.96-8136.8-1020.686-8136.574Zm-.846-.106c-.026.167.095.187.053.371a2.351,2.351,0,0,0,.529-.106.822.822,0,0,0-.106-.423C-1021.319-8136.89-1021.371-8136.73-1021.532-8136.68Zm-.634.212a3.606,3.606,0,0,0,.158.423c.2.056.151-.131.317-.106.037-.213-.05-.3-.052-.476C-1022.007-8136.7-1021.968-8136.464-1022.166-8136.468Zm-.582.211c.091.333.273.573.37.9a.448.448,0,0,0,.317-.053c-.056-.366-.237-.608-.317-.951A.852.852,0,0,0-1022.748-8136.257Zm2.749.159c.137.048.26-.3.053-.264C-1019.924-8136.235-1020.042-8136.247-1020-8136.1Zm-.634.053c.041.011.061.044.053.106.152-.007.346.028.423-.053.008-.132-.083-.164-.106-.265C-1020.458-8136.258-1020.627-8136.233-1020.633-8136.045Zm-.74.317c.25,0,.52.027.581-.158-.061-.009-.057-.084-.053-.159C-1021.109-8136.028-1021.363-8136-1021.373-8135.728Zm-.476.212c.179-.033.408-.015.37-.265h-.476C-1021.994-8135.618-1021.81-8135.679-1021.849-8135.516Zm.634.317c.241-.006.493,0,.582-.159A.353.353,0,0,0-1021.215-8135.2Zm-.423.106c.116.1.337-.016.318-.212A.493.493,0,0,0-1021.638-8135.093Zm.053.37c.038.458.776.086,1.111.053C-1020.569-8135.283-1021.1-8134.652-1021.585-8134.723Zm-.476.317c.153.127.4.008.318-.264C-1021.927-8134.66-1022.087-8134.627-1022.061-8134.406Zm.688.423a1.777,1.777,0,0,0,1.057-.212C-1020.5-8134.41-1021.269-8134.321-1021.373-8133.983Zm-.476.159c.2.025.33-.023.37-.159-.068-.073-.23-.052-.37-.053Z" fill-rule="evenodd"/>
    <path d="M-1000.435-8123.408a13.11,13.11,0,0,1-.053,4.283c.518-.83.345-2.071.9-2.8a20.313,20.313,0,0,0-.37,2.8,3.975,3.975,0,0,0-.37,1.48q-.578,1.353-1.058,2.8c-.584.72-.8,1.807-1.427,2.486-.055.325-.264.745-.582.634,1.092-2.31,2.434-4.369,2.961-7.244a23.44,23.44,0,0,0-1.163,2.908c-.683.958-.887,2.673-1.8,3.226.888-2.39,2.176-4.38,2.644-7.191-.264.928-.89,1.75-1.269,2.7-.439,1.1-.657,2.435-1.428,3.173-.339-.44.508-.844.423-1.534.675-.858.736-2.33,1.428-3.172A43.305,43.305,0,0,0-1000.435-8123.408Z" fill-rule="evenodd"/>
    <path d="M-1006.146-8108.656c.048.023.095.046.106.1.084.43-.194.479-.423.794a18.3,18.3,0,0,1-1.639,2.432c-.1.1-.24.114-.317.211-.089.114-.1.295-.159.37s-.156,0-.211.053-.031.242-.053.265c-.139.14-.316.273-.476.423a4.093,4.093,0,0,1-1.322.9,20.972,20.972,0,0,0,3.067-3.6,3.863,3.863,0,0,0-.952,1.163c-.81.583-1.247,1.538-2.273,1.9a40.176,40.176,0,0,0,3.912-4.759c.166-.008.182.136.212.264C-1006.465-8108.271-1006.388-8108.546-1006.146-8108.656Z" fill-rule="evenodd"/>
    <path d="M-1029.1-8056.041a64.675,64.675,0,0,1-46.034-19.068,64.677,64.677,0,0,1-19.068-46.034,64.675,64.675,0,0,1,19.068-46.034,64.674,64.674,0,0,1,46.034-19.068,64.673,64.673,0,0,1,46.033,19.068A64.675,64.675,0,0,1-964-8121.143a64.677,64.677,0,0,1-19.068,46.034A64.675,64.675,0,0,1-1029.1-8056.041Zm0-128.441a62.925,62.925,0,0,0-44.788,18.551,62.927,62.927,0,0,0-18.551,44.788,62.924,62.924,0,0,0,18.551,44.787A62.922,62.922,0,0,0-1029.1-8057.8a62.921,62.921,0,0,0,44.787-18.552,62.925,62.925,0,0,0,18.552-44.787,62.928,62.928,0,0,0-18.552-44.788A62.924,62.924,0,0,0-1029.1-8184.482Z" fill="#1d1d1b"/>
    <path d="M-992.63-8151.537l11.752-1.546-.9-1.052-10.3,1.34,2.932-9.948-.886-1.035-3.342,11.308-4.7,4.025.773.9Z" fill="#1d1d1b"/>
    <path d="M-1004.725-8157.461a5.474,5.474,0,0,0,1.727-.969l.177-.146-.764-.846-.16.116a5.381,5.381,0,0,1-1.518.789,5.737,5.737,0,0,1-1.578.278,6.2,6.2,0,0,1-1.552-.144,6.412,6.412,0,0,1-1.408-.489,5.634,5.634,0,0,1-1.995-1.615,6.616,6.616,0,0,1-1.149-2.285,7.318,7.318,0,0,1-.225-2.624,7.416,7.416,0,0,1,.735-2.618,7.872,7.872,0,0,1,1.479-2.068,6.96,6.96,0,0,1,2.08-1.454,6.282,6.282,0,0,1,2.486-.547,5.8,5.8,0,0,1,2.677.64,6.813,6.813,0,0,1,1.2.754,5.434,5.434,0,0,1,1,1.034,5.054,5.054,0,0,1,.7,1.33,5.463,5.463,0,0,1,.286,1.65l.007.21,1.16.022,0-.221a6.156,6.156,0,0,0-.9-3.277,6.605,6.605,0,0,0-2.865-2.511,7.161,7.161,0,0,0-3.224-.782,7.479,7.479,0,0,0-2.959.623,8.3,8.3,0,0,0-2.451,1.659,8.514,8.514,0,0,0-1.721,2.355,8.567,8.567,0,0,0-.831,2.954,8.9,8.9,0,0,0,.216,3.049,7.838,7.838,0,0,0,1.293,2.741,6.463,6.463,0,0,0,2.4,1.991,7.83,7.83,0,0,0,1.794.615,7.6,7.6,0,0,0,1.576.166q.184,0,.369-.009A7.075,7.075,0,0,0-1004.725-8157.461Z" fill="#1d1d1b"/>
    <path d="M-1021.571-8178.412l-1.19-.019-.227,14-10.945-14.2-.9-.015-.261,16.081,1.19.02.223-13.777,10.708,13.872.065.084,1.075.018Z" fill="#1d1d1b"/>
    <path d="M-1056.413-8159.584l5.043-2.65,2.511,4.778,9.517-5-.533-1.014-8.464,4.448-3.024-5.753,7.235-3.8-.533-1.015-7.235,3.8-2.859-5.441,8.288-4.356-.533-1.014-9.427,4.955-1.842,19.136,1.247-.655Zm4.49-3.654-4.434,2.33.921-9.016Z" fill="#1d1d1b"/>
    <path d="M-1064.593-8142.6l-6.19-4.486,4.68-6.458-.91-.659-4.68,6.458-4.995-3.62,5.495-7.582-.927-.672-6.193,8.545,13.022,9.438Z" fill="#1d1d1b"/>
    <path d="M-1051.14-8081.337l.682-.92-8.476-6.286-9.58,12.918.956.708,4.554-6.141,6.406,4.75.669-.9-6.406-4.751,3.675-4.955Z" fill="#1d1d1b"/>
    <path d="M-1037.332-8076.089a4.984,4.984,0,0,0-1.106-1.512,4.148,4.148,0,0,0-1.694-.957l-6.385-1.87-4.52,15.434,1.141.334,1.7-5.793,4.917,1.44,2.046,6.89,1.348.394-2.08-7.044a3.935,3.935,0,0,0,1.389-.1,4.781,4.781,0,0,0,1.542-.7,4.9,4.9,0,0,0,1.225-1.227,5.576,5.576,0,0,0,.778-1.636,5.067,5.067,0,0,0,.18-1.843A5.233,5.233,0,0,0-1037.332-8076.089Zm-3.143-1.376a2.929,2.929,0,0,1,1.2.682,3.846,3.846,0,0,1,.83,1.133,4.14,4.14,0,0,1,.386,1.4,3.855,3.855,0,0,1-.137,1.469,4.5,4.5,0,0,1-.64,1.324,4.057,4.057,0,0,1-1,1.012,3.4,3.4,0,0,1-1.258.538,2.874,2.874,0,0,1-1.409-.073l-5.37-1.572,2.179-7.442Z" fill="#1d1d1b"/>
    <rect width="16.06" height="1.19" transform="translate(-1030.153 -8061.12) rotate(-89.078)" fill="#1d1d1b"/>
    <path d="M-1017.223-8063.334l-1.7-6.274,7.932-2.145-.3-1.106-7.933,2.146-1.6-5.934,9.059-2.45-.3-1.106-10.208,2.762,4.2,15.524,10.4-2.813-.3-1.106Z" fill="#1d1d1b"/>
    <path d="M-992.177-8078.719a3.748,3.748,0,0,0-1.406-1.273,3.59,3.59,0,0,0-1.7-.346,7.047,7.047,0,0,0-1.955.378c-.688.228-1.443.518-2.242.86-.779.331-1.47.6-2.053.806a5.29,5.29,0,0,1-1.515.323,2.162,2.162,0,0,1-1.116-.232,2.7,2.7,0,0,1-.911-.868,2.909,2.909,0,0,1-.5-2.537,5.437,5.437,0,0,1,2.353-2.733,6.762,6.762,0,0,1,2.137-1.038,4.481,4.481,0,0,1,2.191.023l.266.065.026-1.17-.183-.035a6.149,6.149,0,0,0-2.607.037,7.561,7.561,0,0,0-2.5,1.191,8.612,8.612,0,0,0-1.742,1.574,5.43,5.43,0,0,0-.984,1.738,3.95,3.95,0,0,0-.152,1.841,4.336,4.336,0,0,0,.764,1.828,3.612,3.612,0,0,0,1.281,1.194,3.176,3.176,0,0,0,1.555.33,6.382,6.382,0,0,0,1.845-.367c.651-.222,1.389-.509,2.192-.853a22.216,22.216,0,0,1,2.144-.817,6.231,6.231,0,0,1,1.636-.313,2.5,2.5,0,0,1,1.227.253,2.815,2.815,0,0,1,.986.919,2.481,2.481,0,0,1,.344,2.529,6.263,6.263,0,0,1-2.309,2.549,8.242,8.242,0,0,1-2.87,1.323,7.19,7.19,0,0,1-2.941.044l-.244-.046-.076,1.152.2.032a9.187,9.187,0,0,0,1.457.118,8.144,8.144,0,0,0,1.915-.224,9.481,9.481,0,0,0,3.173-1.483,9.716,9.716,0,0,0,1.765-1.548,5.44,5.44,0,0,0,1.043-1.694,3.761,3.761,0,0,0,.215-1.776A3.908,3.908,0,0,0-992.177-8078.719Z" fill="#1d1d1b"/>
  </g>
</svg>
