<?xml version="1.0" standalone="no"?>
<!DOCTYPE svg PUBLIC "-//W3C//DTD SVG 20010904//EN"
 "http://www.w3.org/TR/2001/REC-SVG-20010904/DTD/svg10.dtd">
<svg version="1.0" xmlns="http://www.w3.org/2000/svg"
 width="700.000000pt" height="700.000000pt" viewBox="0 0 700.000000 700.000000"
 preserveAspectRatio="xMidYMid meet">
<metadata>
Created by potrace 1.14, written by Peter Selinger 2001-2017
</metadata>
<g transform="translate(0.000000,700.000000) scale(0.100000,-0.100000)"
fill="#000000" stroke="none">
<path d="M3561 6325 c-322 -681 -627 -828 -1118 -539 -109 64 -290 199 -416
309 -49 42 -90 75 -92 73 -3 -2 5 -67 17 -144 30 -196 30 -476 0 -585 -29
-106 -57 -162 -114 -225 -63 -69 -162 -118 -278 -140 -175 -33 -527 -5 -838
67 -113 26 -119 25 -90 -9 345 -419 459 -633 445 -833 -17 -249 -265 -412
-849 -559 -89 -22 -163 -42 -165 -43 -1 -2 66 -29 150 -61 83 -32 217 -89 296
-127 522 -250 620 -491 348 -854 -55 -74 -242 -267 -367 -379 l-75 -68 70 6
c449 37 696 28 880 -30 181 -58 298 -183 336 -359 18 -81 15 -286 -5 -410 -9
-55 -32 -165 -52 -244 -19 -79 -33 -145 -31 -148 3 -2 61 31 129 73 275 174
542 288 730 315 356 49 595 -185 804 -788 21 -62 41 -113 44 -112 3 0 44 80
92 178 110 225 201 362 310 466 123 118 226 165 364 165 193 0 462 -139 768
-397 71 -59 136 -114 146 -121 15 -11 15 -2 -3 110 -28 174 -30 524 -4 618 55
201 164 308 362 357 96 23 366 23 530 -1 109 -16 374 -66 434 -83 20 -5 8 15
-61 98 -402 491 -486 768 -296 984 118 134 406 259 821 356 53 13 97 26 97 30
0 4 -12 10 -26 13 -14 4 -90 32 -168 63 -400 158 -630 310 -711 469 -27 53
-30 68 -30 149 1 73 6 101 25 145 63 143 183 297 363 463 62 57 132 123 157
146 l45 43 -40 -6 c-253 -33 -663 -32 -824 3 -422 91 -529 387 -371 1031 21
85 37 156 36 157 -1 2 -42 -22 -90 -53 -831 -527 -1214 -458 -1510 274 -24 59
-56 145 -71 192 -15 47 -30 88 -34 92 -3 4 -35 -53 -70 -127z m-716 -1514
c248 -51 464 -199 579 -395 21 -36 41 -66 45 -66 3 0 22 28 41 61 95 167 272
307 465 368 135 43 225 55 383 48 378 -15 650 -179 800 -482 46 -94 66 -151
95 -277 20 -90 21 -119 24 -995 l4 -903 -231 0 -230 0 0 858 c0 796 -2 863
-19 947 -62 302 -286 472 -596 452 -243 -16 -403 -145 -477 -387 l-23 -75 -3
-897 -3 -898 -229 0 -229 0 -4 888 c-3 988 0 938 -74 1092 -44 91 -133 184
-213 223 -111 54 -269 71 -405 42 -205 -43 -347 -188 -407 -416 -22 -83 -22
-94 -25 -956 l-4 -873 -225 0 -225 0 4 918 c4 993 1 945 58 1122 106 325 359
543 702 605 110 20 315 18 422 -4z"/>
</g>
</svg>
