<?xml version="1.0" encoding="UTF-8" standalone="no"?>
<svg
   width="1080"
   height="1080"
   viewBox="0 0 1080 1080"
   fill="none"
   version="1.1"
   id="svg3"
   sodipodi:docname="safari-pinned-tab.svg"
   inkscape:version="1.4 (86a8ad7, 2024-10-11)"
   xmlns:inkscape="http://www.inkscape.org/namespaces/inkscape"
   xmlns:sodipodi="http://sodipodi.sourceforge.net/DTD/sodipodi-0.dtd"
   xmlns="http://www.w3.org/2000/svg"
   xmlns:svg="http://www.w3.org/2000/svg">
  <sodipodi:namedview
     id="namedview3"
     pagecolor="#ffffff"
     bordercolor="#000000"
     borderopacity="0.25"
     inkscape:showpageshadow="2"
     inkscape:pageopacity="0.0"
     inkscape:pagecheckerboard="0"
     inkscape:deskcolor="#d1d1d1"
     inkscape:zoom="0.7712963"
     inkscape:cx="540"
     inkscape:cy="540"
     inkscape:window-width="1920"
     inkscape:window-height="1051"
     inkscape:window-x="-9"
     inkscape:window-y="-9"
     inkscape:window-maximized="1"
     inkscape:current-layer="svg3" />
  <g
     clip-path="url(#clip0_8_764)"
     id="g2"
     style="fill:none">
    <circle
       cx="540"
       cy="540"
       r="540"
       fill="#FFE2DE"
       id="circle1"
       style="fill:none" />
    <g
       clip-path="url(#clip1_8_764)"
       id="g1"
       style="fill:none">
      <path
         d="M711.081 288.023C644.935 288.023 588.748 316.788 556.259 367.07C523.875 316.788 477.495 287.075 401.496 288.023C350.062 288.693 306.863 317.124 274.537 359.22C250.098 318.453 209.05 301.504 180.101 294.474L136.023 391.223C143.384 390.585 150.792 390.759 158.114 391.743C199.983 396.599 207.848 428.313 207.848 491.417V792.022H314.185V491.059C314.185 421.619 349.333 381.765 410.621 381.765C470.486 381.765 503.438 420.578 503.438 491.059V792.022H609.069V491.059C609.069 420.532 642.02 381.765 701.886 381.765C761.751 381.765 798.369 421.619 798.369 491.059V792.022H904V488.295C904 364.734 830.094 288.023 711.081 288.023Z"
         fill="#FF785A"
         id="path1"
         style="fill:none" />
    </g>
  </g>
  <defs
     id="defs3">
    <clipPath
       id="clip0_8_764">
      <rect
         width="1080"
         height="1080"
         fill="white"
         id="rect2" />
    </clipPath>
    <clipPath
       id="clip1_8_764">
      <rect
         width="768"
         height="504"
         fill="white"
         transform="translate(136 288)"
         id="rect3" />
    </clipPath>
  </defs>
  <path
     style="fill:#000000;stroke-width:2.59304"
     d="M 511.64068,1078.6115 C 398.66778,1072.7762 289.14556,1030.7122 200.68075,959.18155 132.13034,903.75324 78.838107,833.20815 43.978581,751.74853 22.9953,702.71487 9.1579228,648.94967 3.1624489,593.15726 c -2.81462135,-26.19218 -2.81462135,-80.12234 0,-106.31452 C 16.838512,359.57664 69.927071,247.68802 158.80754,158.80754 219.48931,98.12578 288.25636,55.588967 369.57686,28.433257 426.35623,9.472677 479.06732,0.98218571 540,0.98218571 c 74.85179,0 144.27701,14.14631829 212.39679,43.27868929 C 879.97617,98.821968 981.22355,200.2 1036.0214,328.25147 c 41.697,97.43743 53.4877,204.98441 34.0883,310.9322 -10.9231,59.65565 -35.3444,124.70326 -66.0065,175.81267 -87.01575,145.04281 -231.15148,239.18626 -398.62901,260.36796 -15.54243,1.9657 -60.55289,4.8123 -70.01201,4.4277 -2.49579,-0.1015 -13.21547,-0.6327 -23.8215,-1.1805 z m -196.29025,-450.12411 0.36356,-163.68547 3.46356,-12.55696 c 10.00021,-36.25527 30.16992,-57.48629 63.37044,-66.70497 11.77207,-3.26871 43.77022,-3.27308 55.6753,-0.008 37.03862,10.15943 58.22066,38.73033 63.44418,85.57515 0.90086,8.07899 1.38175,66.1059 1.38175,166.72853 v 154.33681 h 53.15726 53.15727 v -153.4997 c 0,-96.45808 0.49842,-158.357 1.34123,-166.57009 4.08099,-39.76818 20.15475,-67.13632 47.16503,-80.30602 11.51064,-5.61237 21.45554,-7.98515 37.3117,-8.90231 50.13058,-2.89971 85.7414,22.7199 98.5319,70.88715 l 2.9264,11.02041 0.39304,163.68547 0.39304,163.68548 h 53.84356 53.84358 L 904.58329,625.89436 C 904.00502,444.45033 904.33296,452.59324 896.37844,422.16493 880.73646,362.32981 842.17056,319.19474 786.98679,299.81291 c -26.44729,-9.2889 -50.29298,-12.63257 -82.7487,-11.6031 -40.8512,1.29577 -70.83111,10.37926 -102.0052,30.90613 -11.82688,7.78751 -34.37767,29.57394 -41.109,39.7156 l -4.53111,6.82673 -6.91961,-9.41976 c -9.09527,-12.38155 -29.64627,-32.88853 -39.79366,-39.70843 -17.13073,-11.5133 -38.09838,-20.2548 -59.67136,-24.87723 -16.20591,-3.47244 -52.32473,-4.86072 -67.75636,-2.60432 -35.23222,5.15164 -70.01574,25.48687 -98.03411,57.31295 l -10.02771,11.39046 -4.50042,-6.76312 c -10.20361,-15.33375 -31.76707,-33.46279 -51.87611,-43.61381 -8.23191,-4.15544 -33.28618,-13.06529 -36.7393,-13.06529 -1.18197,0 -9.71701,17.28471 -23.52772,47.64706 -11.92007,26.20589 -21.65917,48.00084 -21.64242,48.43326 0.0167,0.4324 6.01065,1.11941 13.31977,1.5267 34.20591,1.90602 47.56665,14.31564 55.10627,51.18337 1.79389,8.7719 2.11378,31.34301 2.54474,179.55295 l 0.49292,169.51981 h 53.7096 53.70957 z"
     id="path3" />
</svg>
