<?xml version="1.0" standalone="no"?>
<!DOCTYPE svg PUBLIC "-//W3C//DTD SVG 20010904//EN"
 "http://www.w3.org/TR/2001/REC-SVG-20010904/DTD/svg10.dtd">
<svg version="1.0" xmlns="http://www.w3.org/2000/svg"
 width="1056.000000pt" height="1056.000000pt" viewBox="0 0 1056.000000 1056.000000"
 preserveAspectRatio="xMidYMid meet">
<metadata>
Created by potrace 1.14, written by Peter Selinger 2001-2017
</metadata>
<g transform="translate(0.000000,1056.000000) scale(0.100000,-0.100000)"
fill="#000000" stroke="none">
<path d="M4715 10073 c-106 -21 -249 -70 -265 -91 -3 -4 -23 -17 -45 -29 -22
-11 -54 -29 -72 -40 -161 -93 -260 -149 -270 -151 -7 -2 -13 -7 -13 -12 0 -4
-11 -11 -24 -14 -14 -3 -31 -12 -38 -19 -13 -12 -54 -36 -135 -79 -24 -12 -43
-26 -43 -30 0 -4 -9 -8 -20 -8 -11 0 -20 -4 -20 -9 0 -5 -8 -11 -17 -15 -10
-3 -31 -14 -48 -23 -16 -10 -61 -36 -100 -58 -38 -21 -72 -41 -75 -44 -3 -3
-25 -17 -50 -30 -50 -27 -257 -146 -280 -162 -8 -5 -23 -12 -32 -15 -10 -4
-18 -11 -18 -16 0 -5 -4 -7 -9 -4 -5 3 -14 -1 -21 -9 -7 -8 -16 -15 -20 -15
-4 0 -72 -37 -151 -83 -79 -46 -218 -127 -309 -179 -91 -53 -181 -104 -200
-115 -19 -11 -80 -46 -135 -78 -55 -32 -116 -67 -135 -78 -93 -52 -126 -72
-132 -82 -4 -5 -8 -7 -8 -3 0 4 -21 -6 -47 -22 -26 -17 -52 -30 -59 -30 -7 0
-14 -4 -16 -8 -3 -8 -195 -122 -205 -122 -3 0 -11 -7 -20 -15 -8 -8 -19 -13
-24 -10 -5 4 -9 2 -9 -3 0 -4 -19 -18 -42 -31 -120 -62 -424 -275 -484 -338
-12 -13 -24 -23 -28 -23 -14 0 -269 -259 -343 -348 -43 -52 -84 -100 -91 -107
-6 -8 -12 -18 -12 -23 0 -6 -3 -12 -7 -14 -22 -9 -189 -262 -239 -360 -15 -29
-35 -64 -45 -78 -9 -14 -17 -28 -18 -33 0 -4 -7 -20 -16 -36 -25 -50 -116
-258 -120 -276 -2 -5 -17 -50 -35 -100 -35 -100 -87 -292 -106 -390 -10 -54
-25 -139 -30 -170 -2 -16 -6 -43 -9 -60 -23 -152 -27 -775 -4 -775 3 0 6 -17
7 -39 2 -21 5 -49 8 -62 2 -13 7 -42 10 -64 4 -22 13 -69 21 -105 7 -36 16
-76 19 -90 11 -55 76 -274 93 -315 5 -11 14 -36 21 -55 7 -19 16 -44 21 -55 4
-11 22 -54 39 -95 65 -156 252 -490 311 -556 11 -11 19 -26 19 -32 0 -7 4 -12
8 -12 4 0 15 -12 24 -27 20 -33 42 -62 127 -162 68 -81 371 -386 371 -373 0 4
11 -4 25 -18 27 -28 33 -33 90 -75 22 -17 49 -38 59 -47 11 -10 23 -18 27 -18
4 0 14 -6 21 -13 18 -16 191 -128 253 -163 28 -15 58 -34 69 -43 10 -9 20 -15
22 -14 2 2 54 -22 116 -51 141 -67 190 -89 203 -92 6 -1 38 -14 73 -28 34 -13
88 -32 120 -41 31 -9 63 -21 69 -27 7 -6 19 -8 26 -5 7 3 24 -1 38 -9 13 -7
35 -13 49 -14 15 0 31 -5 38 -12 7 -7 12 -9 12 -6 0 3 17 2 38 -3 126 -32 248
-53 357 -64 28 -3 61 -8 75 -11 14 -3 135 -7 270 -9 235 -2 392 7 545 34 33 6
71 13 85 15 134 23 269 58 430 112 63 21 118 37 123 36 4 -1 7 2 7 8 0 5 8 10
18 10 10 0 22 3 26 7 3 4 12 8 19 9 23 3 299 133 307 144 3 4 16 11 30 15 14
4 27 11 30 14 4 6 174 105 268 156 20 11 39 23 42 27 3 4 17 11 30 17 14 6 86
47 160 91 74 44 147 85 163 91 15 6 27 15 27 20 0 5 6 9 14 9 8 0 22 7 30 16
9 8 16 12 16 8 0 -4 8 -1 18 7 9 8 26 19 37 25 11 6 99 56 196 112 97 56 181
102 187 102 7 0 12 4 12 8 0 5 19 19 43 31 23 12 59 32 79 44 21 12 61 35 90
51 29 15 60 34 68 40 8 7 33 21 55 31 22 11 42 23 43 28 2 4 7 7 11 7 5 0 92
49 194 109 102 60 188 106 191 103 4 -3 6 0 6 6 0 7 7 12 15 12 8 0 15 5 15
10 0 6 5 10 11 10 6 0 64 32 129 70 65 39 123 70 129 70 5 0 15 8 20 18 6 9
11 14 11 10 0 -6 96 47 205 113 17 10 41 24 55 32 14 7 42 23 63 35 20 12 54
32 75 43 132 75 214 127 259 165 95 81 180 215 214 334 7 25 14 52 17 60 2 8
5 66 6 129 4 155 -26 261 -110 391 -130 203 -348 321 -594 323 -103 0 -228
-22 -257 -45 -7 -6 -13 -8 -13 -4 0 3 -16 -3 -35 -14 -19 -11 -65 -36 -102
-56 -37 -21 -70 -40 -73 -43 -3 -3 -30 -19 -60 -35 -30 -16 -57 -31 -60 -35
-5 -5 -46 -28 -125 -69 -16 -8 -32 -18 -35 -22 -3 -4 -10 -9 -16 -11 -6 -2
-92 -51 -192 -109 -207 -120 -192 -111 -296 -170 -44 -25 -100 -57 -125 -72
-25 -15 -58 -33 -73 -40 -16 -7 -28 -16 -28 -20 0 -4 -4 -8 -9 -8 -13 0 -225
-122 -233 -134 -4 -6 -8 -7 -8 -3 0 4 -17 -4 -37 -18 -21 -14 -43 -25 -50 -25
-7 0 -13 -4 -13 -9 0 -5 -8 -11 -17 -14 -24 -8 -77 -40 -81 -49 -2 -5 -10 -8
-18 -8 -8 0 -20 -5 -27 -11 -7 -6 -91 -55 -187 -109 -96 -54 -179 -103 -185
-108 -5 -4 -23 -15 -40 -23 -16 -9 -46 -25 -65 -36 -37 -22 -178 -103 -315
-182 -44 -25 -89 -51 -100 -58 -11 -7 -27 -15 -35 -19 -8 -4 -38 -22 -67 -40
-28 -18 -53 -31 -56 -28 -2 2 -10 -2 -17 -11 -7 -8 -19 -15 -26 -15 -8 0 -14
-4 -14 -9 0 -5 -6 -11 -12 -13 -7 -2 -57 -27 -110 -56 -54 -29 -101 -54 -105
-54 -4 -1 -35 -14 -68 -28 -55 -25 -169 -67 -205 -76 -103 -25 -140 -33 -170
-38 -19 -3 -45 -8 -57 -10 -35 -7 -211 -19 -278 -18 -82 1 -216 13 -290 26
-16 3 -41 8 -55 10 -14 3 -25 5 -25 6 0 1 -11 3 -25 6 -40 6 -129 33 -205 61
-79 29 -257 110 -265 121 -3 4 -25 18 -50 31 -42 23 -207 140 -240 172 -9 8
-39 35 -67 61 -28 26 -50 48 -48 50 2 2 -3 9 -11 16 -8 7 -14 9 -14 5 0 -4 -8
4 -17 17 -9 14 -39 50 -65 81 -26 30 -48 60 -48 66 0 6 -4 13 -8 15 -28 11
-174 270 -207 368 -6 17 -18 49 -27 70 -6 14 -12 30 -13 35 -2 6 -12 42 -23
80 -26 94 -43 171 -47 225 -2 25 -4 45 -5 45 -9 0 -13 300 -5 355 3 19 7 55
10 80 3 25 7 56 10 70 8 36 15 71 20 100 11 59 78 248 116 328 23 48 43 94 45
102 2 8 8 16 13 18 6 2 11 9 11 17 0 7 7 18 15 25 8 7 13 16 10 20 -2 4 4 15
15 25 11 10 20 22 20 27 0 5 5 14 10 21 6 7 34 44 62 82 63 84 238 265 256
265 7 0 10 5 7 10 -3 6 -2 10 3 10 8 0 18 7 67 48 47 39 170 116 320 200 36
20 180 103 195 112 24 15 143 82 175 100 17 9 48 27 70 41 22 15 50 29 63 33
12 4 22 12 22 17 0 5 4 9 9 9 5 0 30 12 56 28 26 15 64 36 84 48 20 11 53 30
74 42 57 33 130 75 198 114 13 7 27 18 31 23 4 6 8 6 8 2 0 -4 19 5 43 21 23
15 69 43 102 62 90 50 127 71 261 149 39 22 76 41 83 41 6 0 11 4 11 8 0 5 19
18 43 31 23 12 56 30 72 40 39 23 111 63 155 87 19 11 37 22 40 25 3 4 15 9
28 13 12 4 22 12 22 17 0 5 5 9 10 9 6 0 35 16 65 35 30 19 55 32 55 28 0 -3
8 1 18 9 9 8 42 29 72 45 30 17 111 63 180 104 69 40 143 82 165 93 22 11 46
26 53 33 7 7 20 13 28 13 8 0 14 3 14 8 0 4 27 20 60 36 33 16 60 33 60 38 0
4 6 8 13 8 7 0 51 25 97 55 46 30 85 55 86 55 12 0 115 117 140 158 10 18 21
32 25 32 6 0 11 12 19 48 1 4 6 12 11 18 5 6 16 31 25 55 31 86 37 126 36 244
-1 118 -5 154 -23 186 -7 13 -11 24 -10 24 8 0 -16 66 -37 105 -58 105 -176
241 -223 255 -10 4 -19 10 -19 14 0 9 -51 35 -62 33 -5 -1 -8 2 -8 7 0 7 -15
15 -50 25 -3 1 -25 9 -50 18 -82 31 -246 46 -325 31z"/>
<path d="M7358 8165 c-3 -3 -67 -7 -144 -10 -76 -3 -157 -8 -179 -10 -22 -3
-62 -7 -90 -10 -27 -3 -75 -11 -105 -17 -30 -6 -69 -12 -86 -13 -17 -1 -35 -4
-40 -7 -5 -3 -25 -9 -44 -12 -19 -3 -53 -11 -75 -16 -22 -6 -51 -13 -64 -16
-14 -3 -28 -7 -33 -10 -5 -3 -19 -7 -33 -10 -28 -5 -217 -69 -320 -109 -119
-45 -407 -194 -530 -273 -11 -6 -27 -15 -35 -19 -26 -11 -255 -144 -264 -154
-6 -5 -18 -9 -28 -9 -10 0 -18 -4 -18 -9 0 -5 -21 -20 -47 -34 -27 -13 -62
-33 -80 -43 -81 -48 -291 -169 -318 -184 -16 -9 -91 -52 -165 -95 -74 -43
-148 -85 -165 -93 -16 -9 -32 -18 -35 -21 -3 -3 -18 -13 -35 -21 -16 -8 -46
-25 -65 -38 -19 -13 -51 -31 -70 -40 -19 -9 -37 -19 -40 -22 -3 -3 -52 -33
-110 -65 -58 -33 -114 -65 -125 -72 -11 -7 -29 -16 -41 -22 -11 -5 -51 -28
-88 -50 -36 -23 -69 -41 -72 -41 -3 0 -12 -7 -21 -15 -8 -8 -19 -13 -24 -10
-5 4 -9 1 -9 -4 0 -6 -7 -11 -15 -11 -8 0 -15 -4 -15 -10 0 -5 -4 -10 -9 -10
-6 0 -58 -28 -118 -63 -59 -35 -115 -66 -123 -70 -8 -4 -24 -13 -35 -20 -86
-51 -186 -107 -191 -106 -4 0 -10 -3 -13 -8 -5 -8 -120 -76 -276 -163 -112
-63 -208 -142 -266 -220 -40 -54 -105 -184 -101 -202 1 -5 -3 -8 -9 -8 -5 0
-8 -4 -5 -9 4 -5 1 -22 -5 -38 -18 -43 -19 -245 -2 -311 23 -93 47 -155 72
-184 8 -10 11 -18 7 -18 -11 0 48 -79 101 -136 27 -27 71 -66 98 -85 28 -18
53 -38 57 -44 4 -5 8 -6 8 -1 0 5 9 1 20 -9 11 -10 20 -15 20 -10 0 4 6 2 13
-4 17 -13 130 -50 177 -57 110 -17 238 -9 335 22 64 20 195 85 195 96 0 5 4 7
9 3 5 -3 16 2 24 10 9 8 18 15 21 15 3 0 35 18 71 40 36 22 69 40 74 40 5 0
11 3 13 8 2 4 33 23 71 42 37 19 67 38 67 42 0 4 9 8 20 8 11 0 20 4 20 9 0 5
19 18 43 30 23 12 65 35 92 51 28 17 62 35 78 41 15 6 27 14 27 19 0 4 8 10
18 13 21 7 97 50 115 66 8 6 17 8 20 4 4 -3 7 -1 7 5 0 7 7 12 15 12 9 0 18 7
21 15 4 8 9 13 13 11 3 -2 47 21 96 50 50 30 102 59 118 65 15 6 27 15 27 20
0 5 5 9 11 9 6 0 45 20 86 45 40 25 78 45 83 45 5 0 15 6 22 14 8 8 32 23 54
33 21 11 95 53 164 93 69 40 141 82 160 93 19 11 49 28 65 38 17 11 37 22 45
26 8 4 53 29 100 56 120 70 149 87 200 115 25 14 56 32 70 41 14 10 36 22 50
29 48 24 140 78 152 90 7 7 15 12 19 12 7 0 215 117 249 140 8 6 22 13 30 17
8 4 44 24 78 45 122 74 368 185 452 203 8 2 42 11 75 19 33 9 71 18 85 20 14
3 25 5 25 6 0 1 14 3 30 5 17 2 55 7 85 11 69 8 350 9 410 0 25 -4 59 -9 75
-11 17 -2 44 -7 60 -11 17 -4 40 -7 53 -7 12 -1 22 -5 22 -9 0 -4 10 -8 23 -8
57 0 378 -123 398 -153 3 -5 9 -8 13 -7 11 2 133 -69 146 -85 7 -8 16 -15 21
-15 32 0 310 -255 379 -348 14 -18 33 -43 43 -54 9 -12 17 -24 17 -28 0 -3 8
-15 18 -26 16 -19 23 -31 55 -86 6 -13 15 -25 18 -28 3 -3 21 -36 40 -75 19
-38 39 -73 44 -77 6 -4 7 -8 3 -8 -4 0 3 -24 16 -52 13 -29 31 -78 40 -108 10
-30 20 -62 23 -70 4 -8 7 -17 8 -20 2 -6 15 -68 20 -95 2 -11 4 -20 5 -20 4 0
15 -73 26 -160 7 -58 11 -318 6 -329 -3 -5 -6 -27 -7 -50 -3 -40 -10 -91 -21
-148 -3 -15 -5 -30 -5 -33 0 -2 -9 -35 -20 -72 -11 -38 -22 -77 -24 -89 -3
-11 -18 -53 -34 -92 -17 -40 -27 -72 -24 -72 3 0 -1 -8 -10 -17 -8 -10 -16
-21 -16 -26 -1 -9 -54 -120 -61 -127 -7 -7 -27 -41 -46 -77 -9 -18 -22 -37
-30 -44 -8 -6 -14 -16 -14 -21 0 -5 -6 -15 -12 -22 -7 -7 -24 -28 -38 -46 -70
-91 -183 -210 -265 -275 -28 -22 -57 -46 -65 -54 -37 -36 -410 -260 -419 -252
-2 1 -7 -1 -10 -6 -6 -9 -178 -113 -187 -113 -2 0 -33 -18 -69 -40 -36 -22
-67 -40 -69 -40 -2 0 -45 -25 -95 -55 -51 -30 -94 -55 -97 -55 -3 0 -30 -16
-60 -35 -30 -19 -58 -35 -63 -35 -5 0 -11 -3 -13 -7 -1 -5 -19 -16 -38 -25
-19 -10 -57 -31 -85 -47 -27 -16 -84 -49 -125 -72 -41 -24 -87 -50 -101 -59
-42 -24 -261 -150 -294 -168 -16 -10 -32 -19 -35 -22 -6 -6 -86 -50 -117 -65
-13 -5 -23 -13 -23 -17 0 -5 -5 -8 -10 -8 -6 0 -41 -18 -77 -41 -37 -22 -72
-41 -78 -42 -5 -1 -12 -5 -15 -8 -10 -12 -155 -93 -162 -91 -5 1 -8 -1 -8 -6
0 -4 -26 -20 -58 -37 -31 -16 -58 -33 -60 -37 -2 -5 -10 -8 -18 -8 -8 0 -14
-4 -14 -10 0 -5 -5 -10 -10 -10 -11 0 -333 -183 -357 -202 -7 -6 -13 -7 -13
-2 0 5 -4 4 -8 -2 -6 -10 -46 -34 -144 -87 -21 -12 -38 -24 -38 -29 0 -4 -5
-8 -12 -8 -15 0 -141 -75 -176 -104 -56 -46 -132 -131 -132 -146 0 -5 -4 -10
-10 -10 -5 0 -12 -11 -16 -25 -3 -14 -10 -25 -14 -25 -6 0 -34 -54 -35 -70 0
-3 -6 -15 -13 -28 -7 -12 -10 -22 -7 -22 3 0 1 -8 -4 -18 -6 -11 -13 -32 -17
-48 -9 -37 -13 -276 -5 -289 3 -5 7 -18 8 -28 6 -39 44 -132 79 -194 35 -63
170 -213 191 -213 6 0 18 -9 27 -19 10 -11 28 -22 42 -25 13 -4 24 -11 24 -16
0 -6 8 -10 18 -10 10 0 23 -5 28 -10 6 -6 19 -12 30 -15 10 -2 46 -12 79 -21
64 -19 238 -25 310 -11 56 10 134 37 173 58 17 10 32 16 32 12 0 -3 8 1 18 9
9 9 33 24 52 33 19 10 37 21 40 24 5 6 78 47 117 65 13 6 23 14 23 19 0 4 5 7
11 7 6 0 43 19 82 42 40 23 75 41 80 40 4 -1 7 2 7 8 0 5 15 16 33 25 38 17
75 38 232 132 11 7 27 15 35 20 8 4 38 20 65 36 61 37 93 54 170 97 33 18 67
39 75 46 8 7 22 14 30 16 8 2 17 5 20 9 11 12 219 129 230 129 6 0 13 7 16 15
4 8 10 13 14 10 4 -3 13 2 20 10 7 8 16 15 21 15 5 0 43 20 85 45 41 25 80 45
85 45 5 0 9 5 9 10 0 6 4 10 9 10 6 0 64 32 130 70 66 39 124 70 130 70 6 0
11 5 11 10 0 6 7 10 15 10 8 0 15 4 15 8 0 4 12 13 28 19 15 7 50 26 77 42 28
16 75 44 105 60 30 17 73 42 95 56 22 14 55 32 74 41 18 8 38 20 45 25 6 5 94
57 196 116 102 58 199 114 215 124 17 10 54 30 83 45 28 14 52 30 52 35 0 5 3
8 8 7 7 -3 44 18 125 68 68 43 122 79 127 84 3 3 29 21 57 40 29 19 53 38 53
43 0 4 5 7 11 7 6 0 26 12 44 28 18 15 47 40 66 55 148 124 268 242 389 385
25 30 55 64 68 77 12 13 22 29 22 34 0 6 6 14 13 18 7 4 38 44 68 88 30 44 57
82 62 83 4 2 7 9 7 16 0 7 8 21 18 32 15 17 32 44 66 109 6 11 14 22 17 25 14
10 188 374 183 382 -3 4 0 8 6 8 6 0 10 6 9 13 -2 11 10 49 31 92 5 11 19 52
30 90 12 39 26 81 31 95 5 14 11 34 14 45 2 11 9 35 14 54 6 19 8 38 5 42 -3
5 -1 9 4 9 5 0 9 6 9 13 1 12 8 49 18 97 6 24 10 49 19 108 3 15 7 43 10 62 8
48 14 92 23 180 10 92 10 457 0 560 -14 146 -17 175 -23 200 -3 14 -8 39 -11
55 -26 175 -126 531 -179 636 -7 15 -10 29 -7 33 4 3 2 6 -4 6 -6 0 -14 12
-17 26 -9 34 -98 218 -108 222 -4 2 -8 10 -8 18 0 14 -20 55 -31 64 -3 3 -14
21 -24 40 -16 32 -128 210 -148 235 -4 6 -31 42 -59 80 -122 164 -306 364
-444 482 -27 23 -60 52 -74 64 -14 12 -70 55 -125 96 -55 40 -105 77 -111 82
-5 4 -21 14 -34 21 -13 7 -29 17 -34 21 -24 20 -91 62 -140 87 -28 14 -53 29
-56 32 -8 10 -216 110 -229 110 -6 0 -11 4 -11 9 0 5 -20 14 -45 20 -25 6 -45
15 -45 19 0 5 -6 9 -12 9 -7 0 -62 19 -123 41 -91 34 -148 52 -207 68 -5 1 -9
2 -10 4 -2 1 -10 3 -18 5 -8 1 -44 11 -80 20 -36 9 -76 19 -90 21 -14 3 -56
11 -95 19 -68 13 -171 28 -285 40 -30 4 -106 8 -168 10 -62 3 -117 7 -121 10
-5 2 -10 2 -13 0z"/>
</g>
</svg>
